<?xml version="1.0" encoding="UTF-8" standalone="no"?><svg xmlns="http://www.w3.org/2000/svg" xmlns:xlink="http://www.w3.org/1999/xlink" contentScriptType="application/ecmascript" contentStyleType="text/css" height="285px" preserveAspectRatio="none" style="width:578px;height:285px;" version="1.1" viewBox="0 0 578 285" width="578px" zoomAndPan="magnify"><defs/><g><!--MD5=[158db41cc9a355bc9cd943f568881511]
entity ApplicationService--><rect fill="#F8C9DF" height="46.2969" rx="5" ry="5" style="stroke: #F29AC2; stroke-width: 1.5;" width="168" x="7" y="233"/><rect fill="#F8C9DF" height="10" style="stroke: #F29AC2; stroke-width: 1.5;" width="15" x="155" y="238"/><rect fill="#F8C9DF" height="2" style="stroke: #F29AC2; stroke-width: 1.5;" width="4" x="153" y="240"/><rect fill="#F8C9DF" height="2" style="stroke: #F29AC2; stroke-width: 1.5;" width="4" x="153" y="244"/><text fill="#000000" font-family="sans-serif" font-size="14" lengthAdjust="spacingAndGlyphs" textLength="128" x="22" y="265.9951">Application service</text><!--MD5=[e2c247f15ce2eb3e1dc70e363d24ad12]
entity ApplicationFrontend--><rect fill="#BCDCF5" height="46.2969" rx="5" ry="5" style="stroke: #8DC3EB; stroke-width: 1.5;" width="178" x="115" y="7"/><rect fill="#BCDCF5" height="10" style="stroke: #8DC3EB; stroke-width: 1.5;" width="15" x="273" y="12"/><rect fill="#BCDCF5" height="2" style="stroke: #8DC3EB; stroke-width: 1.5;" width="4" x="271" y="14"/><rect fill="#BCDCF5" height="2" style="stroke: #8DC3EB; stroke-width: 1.5;" width="4" x="271" y="18"/><text fill="#000000" font-family="sans-serif" font-size="14" lengthAdjust="spacingAndGlyphs" textLength="138" x="130" y="39.9951">Application frontend</text><!--MD5=[f990ff1b552b426dc9e2995b7c6fb377]
entity MediaBrowser--><rect fill="#65A7A9" height="46.2969" rx="5" ry="5" style="stroke: #008D8D; stroke-width: 1.5;" width="138" x="210" y="233"/><rect fill="#65A7A9" height="10" style="stroke: #008D8D; stroke-width: 1.5;" width="15" x="328" y="238"/><rect fill="#65A7A9" height="2" style="stroke: #008D8D; stroke-width: 1.5;" width="4" x="326" y="240"/><rect fill="#65A7A9" height="2" style="stroke: #008D8D; stroke-width: 1.5;" width="4" x="326" y="244"/><text fill="#000000" font-family="sans-serif" font-size="14" lengthAdjust="spacingAndGlyphs" textLength="98" x="225" y="265.9951">MediaBrowser</text><!--MD5=[f65789f50e01cb8ef287c2879fd5bbc9]
entity MediaService--><ellipse cx="139" cy="143" fill="#F8C9DF" rx="8" ry="8" style="stroke: #F29AC2; stroke-width: 1.5;"/><text fill="#000000" font-family="sans-serif" font-size="14" lengthAdjust="spacingAndGlyphs" textLength="91" x="93.5" y="172.9951">MediaService</text><path d="M328.5,10 L328.5,26 L293.0156,30 L328.5,34 L328.5,50.2656 A0,0 0 0 0 328.5,50.2656 L511.5,50.2656 A0,0 0 0 0 511.5,50.2656 L511.5,20 L501.5,10 L328.5,10 A0,0 0 0 0 328.5,10 " fill="#FBFB77" style="stroke: #A80036; stroke-width: 1.0;"/><path d="M501.5,10 L501.5,20 L511.5,20 L501.5,10 " fill="#FBFB77" style="stroke: #A80036; stroke-width: 1.0;"/><text fill="#000000" font-family="sans-serif" font-size="13" lengthAdjust="spacingAndGlyphs" textLength="119" x="334.5" y="27.0669">The user interface,</text><text fill="#000000" font-family="sans-serif" font-size="13" lengthAdjust="spacingAndGlyphs" textLength="162" x="334.5" y="42.1997">customizable via policies.</text><path d="M383,236 L383,252 L348.2227,256 L383,260 L383,276.2656 A0,0 0 0 0 383,276.2656 L571,276.2656 A0,0 0 0 0 571,276.2656 L571,246 L561,236 L383,236 A0,0 0 0 0 383,236 " fill="#FBFB77" style="stroke: #A80036; stroke-width: 1.0;"/><path d="M561,236 L561,246 L571,246 L561,236 " fill="#FBFB77" style="stroke: #A80036; stroke-width: 1.0;"/><text fill="#000000" font-family="sans-serif" font-size="13" lengthAdjust="spacingAndGlyphs" textLength="167" x="389" y="253.0669">Connection to the Android</text><text fill="#000000" font-family="sans-serif" font-size="13" lengthAdjust="spacingAndGlyphs" textLength="152" x="389" y="268.1997">Automotive ecosystem.</text><!--MD5=[3de063562e75a7b3cbdb0bdc7dcced70]
link MediaService to ApplicationService--><path d="M135.072,152.2473 C127.6832,169.6417 111.5106,207.7146 100.9465,232.5842 " fill="none" id="MediaService-ApplicationService" style="stroke: #A80036; stroke-width: 1.0;"/><!--MD5=[586d140f7b435b99b2a0a1bb039c34d2]
link ApplicationFrontend to MediaService--><path d="M190.6894,53.1399 C177.4728,76.1166 157.6596,110.5609 146.8033,129.4342 " fill="none" id="ApplicationFrontend-to-MediaService" style="stroke: #A80036; stroke-width: 1.0;"/><polygon fill="#A80036" points="144.2457,133.8805,152.2006,128.0736,146.7388,129.5464,145.266,124.0846,144.2457,133.8805" style="stroke: #A80036; stroke-width: 1.0;"/><!--MD5=[95def278f18a234b08da109781a17f9b]
link ApplicationService to MediaBrowser--><path d="M175.0859,256 C184.9949,256 194.9039,256 204.8128,256 " fill="none" id="ApplicationService-to-MediaBrowser" style="stroke: #A80036; stroke-width: 1.0;"/><polygon fill="#A80036" points="209.9946,256,200.9946,252,204.9946,256,200.9946,260,209.9946,256" style="stroke: #A80036; stroke-width: 1.0;"/><!--MD5=[113e1daccf16ca3f05c81cf1e5d10f2c]
link ApplicationFrontend to MediaBrowser--><path d="M211.7438,53.3347 C225.6465,95.228 254.7779,183.0107 269.7226,228.0441 " fill="none" id="ApplicationFrontend-to-MediaBrowser" style="stroke: #A80036; stroke-width: 1.0;"/><polygon fill="#A80036" points="271.2983,232.7922,272.2599,222.9904,269.7234,228.0467,264.6671,225.5102,271.2983,232.7922" style="stroke: #A80036; stroke-width: 1.0;"/><path d="M256,130.5 L256,155.5 L364,155.5 L364,140.5 L354,130.5 L256,130.5 " fill="#FBFB77" style="stroke: #A80036; stroke-width: 1.0;"/><path d="M354,130.5 L354,140.5 L364,140.5 L354,130.5 " fill="#FBFB77" style="stroke: #A80036; stroke-width: 1.0;"/><text fill="#000000" font-family="sans-serif" font-size="13" lengthAdjust="spacingAndGlyphs" textLength="87" x="262" y="147.5669">Browsing only</text><!--MD5=[f3cde63227545a4d101033b539a98cff]
@startuml
!include theme.plantuml

Component ApplicationService as [Application service]<<Service>>
Component ApplicationFrontend as [Application frontend]<<Frontend>>

Component MediaBrowser as [MediaBrowser]<<Android>>

MediaService - - ApplicationService
ApplicationFrontend - -> MediaService
ApplicationService -> MediaBrowser
ApplicationFrontend -> MediaBrowser
note on link: Browsing only

note right of ApplicationFrontend: The user interface,\ncustomizable via policies.
note right of MediaBrowser: Connection to the Android\nAutomotive ecosystem.
@enduml

@startuml
skinparam componentRoundCorner 10
skinparam shadowing false
hide stereotype


skinparam interface {
  backgroundColor #f8c9df
  borderColor #f29ac2
}

skinparam component {
  BackgroundColor<<Api>> #e5e5e5
  BorderColor<<Api>> #bebebe
  BackgroundColor<<Frontend>> #bcdcf5
  BorderColor<<Frontend>> #8dc3eb
  BackgroundColor<<Service>> #f8c9df
  BorderColor<<Service>> #f29ac2
  BackgroundColor<<Android>> #65a7a9
  BorderColor<<Android>> #008d8d
  BackgroundColor<<AndroidService>> #e94743
  BorderColor<<AndroidService>> #87382B
}

hide empty methods
hide empty attributes

skinparam class {
  BackgroundColor<<Api>> #e5e5e5
  BorderColor<<Api>> #bebebe
  BackgroundColor<<Frontend>> #bcdcf5
  BorderColor<<Frontend>> #8dc3eb
  BackgroundColor<<Service>> #f8c9df
  BorderColor<<Service>> #f29ac2
  BackgroundColor<<Android>> #65a7a9
  BorderColor<<Android>> #008d8d
  BackgroundColor<<AndroidService>> #e94743
  BorderColor<<AndroidService>> #87382B
}

skinparam stereotypeCBackgroundColor<<Api>> #bebebe
skinparam stereotypeCBackgroundColor<<Frontend>> #8dc3eb
skinparam stereotypeCBackgroundColor<<Service>> #f29ac2
skinparam stereotypeCBackgroundColor<<Android>> #008d8d
skinparam stereotypeCBackgroundColor<<AndroidService>> #87382B

skinparam stereotypeIBackgroundColor<<Api>> #bebebe
skinparam stereotypeIBackgroundColor<<Frontend>> #8dc3eb
skinparam stereotypeIBackgroundColor<<Service>> #f29ac2
skinparam stereotypeIBackgroundColor<<Android>> #008d8d
skinparam stereotypeIBackgroundColor<<AndroidService>> #87382B

Component ApplicationService as [Application service]<<Service>>
Component ApplicationFrontend as [Application frontend]<<Frontend>>

Component MediaBrowser as [MediaBrowser]<<Android>>

MediaService - - ApplicationService
ApplicationFrontend - -> MediaService
ApplicationService -> MediaBrowser
ApplicationFrontend -> MediaBrowser
note on link: Browsing only

note right of ApplicationFrontend: The user interface,\ncustomizable via policies.
note right of MediaBrowser: Connection to the Android\nAutomotive ecosystem.
@enduml

PlantUML version 1.2020.19(Mon Oct 12 17:10:01 CEST 2020)
(GPL source distribution)
Java Runtime: OpenJDK Runtime Environment
JVM: OpenJDK 64-Bit Server VM
Default Encoding: UTF-8
Language: en
Country: US
--></g></svg>