<?xml version="1.0" encoding="UTF-8" standalone="no"?><svg xmlns="http://www.w3.org/2000/svg" xmlns:xlink="http://www.w3.org/1999/xlink" contentStyleType="text/css" height="463px" preserveAspectRatio="none" style="width:547px;height:463px;background:#FFFFFF;" version="1.1" viewBox="0 0 547 463" width="547px" zoomAndPan="magnify"><defs/><g><!--MD5=[751014a9392b2c449da76a4392acfc0b]
cluster Hardware/Head Unit--><g id="cluster_Hardware/Head Unit"><rect height="332" rx="2.5" ry="2.5" style="stroke:#181818;stroke-width:1.0;fill:none;" width="534" x="7" y="7"/><text fill="#000000" font-family="sans-serif" font-size="14" font-weight="bold" lengthAdjust="spacing" textLength="161" x="193.5" y="21.9951">Hardware/Head Unit</text></g><!--MD5=[6fdd2b2115c022aa727f78ccd5b48ece]
cluster Android System Image--><g id="cluster_Android System Image"><rect height="265" rx="2.5" ry="2.5" style="stroke:#181818;stroke-width:1.0;fill:none;" width="486" x="31" y="50"/><text fill="#000000" font-family="sans-serif" font-size="14" font-weight="bold" lengthAdjust="spacing" textLength="181" x="183.5" y="64.9951">Android System Image</text></g><!--MD5=[78b8bb3aeee69c8ba3414da576f66191]
cluster Android Automotive OS--><g id="cluster_Android Automotive OS"><rect height="97" rx="2.5" ry="2.5" style="stroke:#181818;stroke-width:1.0;fill:none;" width="205" x="288" y="93"/><text fill="#000000" font-family="sans-serif" font-size="14" font-weight="bold" lengthAdjust="spacing" textLength="189" x="296" y="107.9951">Android Automotive OS</text></g><!--MD5=[6bc0b0ecbfa32c82d472c167d20999c5]
entity Indigo--><g id="elem_Indigo"><rect fill="#BCDCF5" height="46.2969" rx="5" ry="5" style="stroke:#8DC3EB;stroke-width:0.5;" width="212" x="47" y="128"/><rect fill="#BCDCF5" height="10" style="stroke:#8DC3EB;stroke-width:0.5;" width="15" x="239" y="133"/><rect fill="#BCDCF5" height="2" style="stroke:#8DC3EB;stroke-width:0.5;" width="4" x="237" y="135"/><rect fill="#BCDCF5" height="2" style="stroke:#8DC3EB;stroke-width:0.5;" width="4" x="237" y="139"/><text fill="#000000" font-family="sans-serif" font-size="14" lengthAdjust="spacing" textLength="172" x="62" y="160.9951">IndiGO Application Suite</text></g><!--MD5=[089df04bd3526297c056330c372c6879]
entity VHALService--><g id="elem_VHALService"><rect fill="#65A7A9" height="46.2969" rx="5" ry="5" style="stroke:#008D8D;stroke-width:0.5;" width="295" x="205.5" y="253"/><rect fill="#65A7A9" height="10" style="stroke:#008D8D;stroke-width:0.5;" width="15" x="480.5" y="258"/><rect fill="#65A7A9" height="2" style="stroke:#008D8D;stroke-width:0.5;" width="4" x="478.5" y="260"/><rect fill="#65A7A9" height="2" style="stroke:#008D8D;stroke-width:0.5;" width="4" x="478.5" y="264"/><text fill="#000000" font-family="sans-serif" font-size="14" lengthAdjust="spacing" textLength="255" x="220.5" y="285.9951">Tier1 specific VHAL Implementation</text></g><!--MD5=[675453dc6b6d7c0a0fa0da5531b84bf5]
entity VHAL--><g id="elem_VHAL"><rect fill="#E94743" height="46.2969" rx="5" ry="5" style="stroke:#87382B;stroke-width:0.5;" width="79" x="398.5" y="128"/><rect fill="#E94743" height="10" style="stroke:#87382B;stroke-width:0.5;" width="15" x="457.5" y="133"/><rect fill="#E94743" height="2" style="stroke:#87382B;stroke-width:0.5;" width="4" x="455.5" y="135"/><rect fill="#E94743" height="2" style="stroke:#87382B;stroke-width:0.5;" width="4" x="455.5" y="139"/><text fill="#000000" font-family="sans-serif" font-size="14" lengthAdjust="spacing" textLength="39" x="413.5" y="160.9951">VHAL</text></g><!--MD5=[5b97e6a9763a5eae7ad0965dc5d284fd]
entity VehicleData--><g id="elem_VehicleData"><path d="M302.0457,410.1575 C306.472,404.7121 310.6069,404.7275 314.7378,410.492 C317.523,403.4776 323.4318,403.9066 327.3232,409.377 C330.3066,402.643 336.6185,401.0788 340.9083,408.0854 C345.1211,401.9562 350.9575,401.1538 354.9484,408.3198 C358.3205,401.979 363.3076,401.599 367.1257,407.8899 C371.6143,401.5261 376.5961,401.784 379.9594,408.9567 C385.6367,402.4814 389.6695,404.5904 393.5078,410.9048 C398.0622,404.7231 401.8913,405.815 406.0435,411.3356 C414.514,413.4116 415.9092,418.1551 411.5336,425.2864 C417.8842,433.6543 413.9097,439.191 404.8045,440.8961 C402.0972,448.1541 396.4022,447.4847 391.9543,442.7632 C389.2011,449.868 384.9442,450.9595 378.8738,446.5225 C376.1976,453.1927 371.0311,455.1723 365.9323,448.9551 C362.624,456.0908 358.5514,456.1736 353.3831,450.8247 C349.0418,455.2989 343.3038,454.9085 341.1802,448.3678 C337.1623,453.3142 332.1163,453.9905 329.2846,447.1688 C322.9794,453.7338 317.7151,451.2981 315.1651,443.4819 C309.4272,449.9616 304.798,448.7743 301.7919,440.9313 C292.4307,438.633 290.7349,431.7507 298.1493,425.494 C291.8818,418.6543 294.5913,413.5111 302.0457,410.1575 " fill="#F1F1F1" style="stroke:#181818;stroke-width:0.5;"/><text fill="#000000" font-family="sans-serif" font-size="14" lengthAdjust="spacing" textLength="89" x="308.5" y="429.9951">Vehicle data</text></g><!--MD5=[a3b63ae50ec5f80fa93da2997275b8ab]
link Indigo to VHAL--><g id="link_Indigo_VHAL"><path d="M264.27,151 C309.13,151 358.33,151 392.88,151 " fill="none" id="Indigo-VHAL" style="stroke:#181818;stroke-width:1.0;"/><polygon fill="#181818" points="398.3,151,389.3,147,393.3,151,389.3,155,398.3,151" style="stroke:#181818;stroke-width:1.0;"/><polygon fill="#181818" points="259.12,151,268.12,155,264.12,151,268.12,147,259.12,151" style="stroke:#181818;stroke-width:1.0;"/><text fill="#000000" font-family="sans-serif" font-size="13" lengthAdjust="spacing" textLength="103" x="277.25" y="144.0669">VehicleProperty</text></g><!--MD5=[55cf676e3d300b12009cfe2cd5d2ff3e]
link VHAL to VHALService--><g id="link_VHAL_VHALService"><path d="M419.63,178.59 C405.31,199.31 385.52,227.94 371.24,248.61 " fill="none" id="VHAL-VHALService" style="stroke:#181818;stroke-width:1.0;"/><polygon fill="#181818" points="368.28,252.89,376.687,247.7595,371.1223,248.7765,370.1054,243.2118,368.28,252.89" style="stroke:#181818;stroke-width:1.0;"/><polygon fill="#181818" points="422.61,174.27,414.203,179.4005,419.7677,178.3835,420.7846,183.9482,422.61,174.27" style="stroke:#181818;stroke-width:1.0;"/><text fill="#000000" font-family="sans-serif" font-size="13" lengthAdjust="spacing" textLength="31" x="401" y="219.0669">HIDL</text></g><!--MD5=[1578dcc056aa05cb84a9c4c5f8d2095e]
link VHALService to VehicleData--><g id="link_VHALService_VehicleData"><path d="M353,304.07 C353,330.44 353,370.31 353,396.74 " fill="none" id="VHALService-VehicleData" style="stroke:#181818;stroke-width:1.0;"/><polygon fill="#181818" points="353,401.84,357,392.84,353,396.84,349,392.84,353,401.84" style="stroke:#181818;stroke-width:1.0;"/><polygon fill="#181818" points="353,299.01,349,308.01,353,304.01,357,308.01,353,299.01" style="stroke:#181818;stroke-width:1.0;"/><text fill="#000000" font-family="sans-serif" font-size="13" lengthAdjust="spacing" textLength="140" x="354" y="368.0669">CAN or other protocol</text></g><!--MD5=[b562394b09b4f0abb578c7c722d59f40]
@startuml
!include theme.plantuml
skinparam packageStyle rectangle

cloud VehicleData as "Vehicle data"

package "Hardware/Head Unit" {
    package "Android System Image"{
        component "IndiGO Application Suite" as Indigo<<Frontend>>
        package "Android Automotive OS"{
            component "VHAL" as VHAL<<AndroidService>>
        }
        component "Tier1 specific VHAL Implementation" as VHALService <<Android>>
    }
}
Indigo <-> VHAL:VehicleProperty
VHAL <- -> VHALService:HIDL
VHALService <- -> VehicleData:CAN or other protocol
@enduml

@startuml
skinparam componentRoundCorner 10
skinparam shadowing false
hide stereotype
hide stereotype


skinparam interface {
  backgroundColor #f8c9df
  borderColor #f29ac2
}

skinparam component {
  BackgroundColor<<Api>> #e5e5e5
  BorderColor<<Api>> #bebebe
  BackgroundColor<<Frontend>> #bcdcf5
  BorderColor<<Frontend>> #8dc3eb
  BackgroundColor<<Service>> #f8c9df
  BorderColor<<Service>> #f29ac2
  BackgroundColor<<Android>> #65a7a9
  BorderColor<<Android>> #008d8d
  BackgroundColor<<AndroidService>> #e94743
  BorderColor<<AndroidService>> #87382B
}

hide empty methods
hide empty attributes

skinparam class {
  BackgroundColor<<Api>> #e5e5e5
  BorderColor<<Api>> #bebebe
  BackgroundColor<<Frontend>> #bcdcf5
  BorderColor<<Frontend>> #8dc3eb
  BackgroundColor<<Service>> #f8c9df
  BorderColor<<Service>> #f29ac2
  BackgroundColor<<Android>> #65a7a9
  BorderColor<<Android>> #008d8d
  BackgroundColor<<AndroidService>> #e94743
  BorderColor<<AndroidService>> #87382B
}

skinparam stereotypeCBackgroundColor<<Api>> #bebebe
skinparam stereotypeCBackgroundColor<<Frontend>> #8dc3eb
skinparam stereotypeCBackgroundColor<<Service>> #f29ac2
skinparam stereotypeCBackgroundColor<<Android>> #008d8d
skinparam stereotypeCBackgroundColor<<AndroidService>> #87382B

skinparam stereotypeIBackgroundColor<<Api>> #bebebe
skinparam stereotypeIBackgroundColor<<Frontend>> #8dc3eb
skinparam stereotypeIBackgroundColor<<Service>> #f29ac2
skinparam stereotypeIBackgroundColor<<Android>> #008d8d
skinparam stereotypeIBackgroundColor<<AndroidService>> #87382B
skinparam packageStyle rectangle

cloud VehicleData as "Vehicle data"

package "Hardware/Head Unit" {
    package "Android System Image"{
        component "IndiGO Application Suite" as Indigo<<Frontend>>
        package "Android Automotive OS"{
            component "VHAL" as VHAL<<AndroidService>>
        }
        component "Tier1 specific VHAL Implementation" as VHALService <<Android>>
    }
}
Indigo <-> VHAL:VehicleProperty
VHAL <- -> VHALService:HIDL
VHALService <- -> VehicleData:CAN or other protocol
@enduml

PlantUML version 1.2022.4(Sat Apr 09 15:29:17 CEST 2022)
(GPL source distribution)
Java Runtime: OpenJDK Runtime Environment
JVM: OpenJDK 64-Bit Server VM
Default Encoding: UTF-8
Language: en
Country: US
--></g></svg>