<?xml version="1.0" encoding="UTF-8" standalone="no"?><svg xmlns="http://www.w3.org/2000/svg" xmlns:xlink="http://www.w3.org/1999/xlink" contentStyleType="text/css" height="514px" preserveAspectRatio="none" style="width:566px;height:514px;background:#FFFFFF;" version="1.1" viewBox="0 0 566 514" width="566px" zoomAndPan="magnify"><defs/><g><text fill="#000000" font-family="sans-serif" font-size="14" font-weight="bold" lengthAdjust="spacing" textLength="327" x="112.5" y="22.9951">In-Vehicle Charging domain architecture</text><!--MD5=[e42fcde8c60ffa312f31655522caf600]
cluster Digital Cockpit application suite--><g id="cluster_Digital Cockpit application suite"><path d="M141.5,43.2969 L405.5,43.2969 A3.75,3.75 0 0 1 408,45.7969 L415,65.5938 L420.5,65.5938 A2.5,2.5 0 0 1 423,68.0938 L423,277.7969 A2.5,2.5 0 0 1 420.5,280.2969 L141.5,280.2969 A2.5,2.5 0 0 1 139,277.7969 L139,45.7969 A2.5,2.5 0 0 1 141.5,43.2969 " fill="none" style="stroke:#000000;stroke-width:1.5;"/><line style="stroke:#000000;stroke-width:1.5;" x1="139" x2="415" y1="65.5938" y2="65.5938"/><text fill="#000000" font-family="sans-serif" font-size="14" font-weight="bold" lengthAdjust="spacing" textLength="263" x="143" y="58.292">Digital Cockpit application suite</text></g><!--MD5=[795ab6ce9a149693bd7b8e0e71535932]
cluster Digital Cockpit platform (EV Charging Services)--><g id="cluster_Digital Cockpit platform (EV Charging Services)"><path d="M8.5,304.2969 L393.5,304.2969 A3.75,3.75 0 0 1 396,306.7969 L403,326.5938 L556.5,326.5938 A2.5,2.5 0 0 1 559,329.0938 L559,415.7969 A2.5,2.5 0 0 1 556.5,418.2969 L8.5,418.2969 A2.5,2.5 0 0 1 6,415.7969 L6,306.7969 A2.5,2.5 0 0 1 8.5,304.2969 " fill="none" style="stroke:#000000;stroke-width:1.5;"/><line style="stroke:#000000;stroke-width:1.5;" x1="6" x2="403" y1="326.5938" y2="326.5938"/><text fill="#000000" font-family="sans-serif" font-size="14" font-weight="bold" lengthAdjust="spacing" textLength="384" x="10" y="319.292">Digital Cockpit platform (EV Charging Services)</text></g><!--MD5=[29cb60b5f226a78eaf2faa90c26038a6]
entity EV Charging Frontend--><g id="elem_EV Charging Frontend"><rect fill="#F1F1F1" height="62.5938" rx="2.5" ry="2.5" style="stroke:#181818;stroke-width:0.5;" width="197" x="182.5" y="78.2969"/><rect fill="#F1F1F1" height="10" style="stroke:#181818;stroke-width:0.5;" width="15" x="359.5" y="83.2969"/><rect fill="#F1F1F1" height="2" style="stroke:#181818;stroke-width:0.5;" width="4" x="357.5" y="85.2969"/><rect fill="#F1F1F1" height="2" style="stroke:#181818;stroke-width:0.5;" width="4" x="357.5" y="89.2969"/><text fill="#000000" font-family="sans-serif" font-size="14" font-style="italic" lengthAdjust="spacing" textLength="82" x="235" y="111.292">«Frontend»</text><text fill="#000000" font-family="sans-serif" font-size="14" lengthAdjust="spacing" textLength="157" x="197.5" y="127.5889">EV Charging Frontend</text></g><!--MD5=[8909cf4453e804887d6a633debaebc17]
entity EV Charging Mediator Service--><g id="elem_EV Charging Mediator Service"><rect fill="#F1F1F1" height="62.5938" rx="2.5" ry="2.5" style="stroke:#181818;stroke-width:0.5;" width="252" x="155" y="201.2969"/><rect fill="#F1F1F1" height="10" style="stroke:#181818;stroke-width:0.5;" width="15" x="387" y="206.2969"/><rect fill="#F1F1F1" height="2" style="stroke:#181818;stroke-width:0.5;" width="4" x="385" y="208.2969"/><rect fill="#F1F1F1" height="2" style="stroke:#181818;stroke-width:0.5;" width="4" x="385" y="212.2969"/><text fill="#000000" font-family="sans-serif" font-size="14" font-style="italic" lengthAdjust="spacing" textLength="71" x="240.5" y="234.292">«Service»</text><text fill="#000000" font-family="sans-serif" font-size="14" lengthAdjust="spacing" textLength="212" x="170" y="250.5889">EV Charging Mediator Service</text></g><!--MD5=[bb533409006c7ed8b819596749a79f2e]
entity Stock EV Charging Service 1--><g id="elem_Stock EV Charging Service 1"><rect fill="#F1F1F1" height="62.5938" rx="2.5" ry="2.5" style="stroke:#181818;stroke-width:0.5;" width="243" x="22.5" y="339.2969"/><rect fill="#F1F1F1" height="10" style="stroke:#181818;stroke-width:0.5;" width="15" x="245.5" y="344.2969"/><rect fill="#F1F1F1" height="2" style="stroke:#181818;stroke-width:0.5;" width="4" x="243.5" y="346.2969"/><rect fill="#F1F1F1" height="2" style="stroke:#181818;stroke-width:0.5;" width="4" x="243.5" y="350.2969"/><text fill="#000000" font-family="sans-serif" font-size="14" font-style="italic" lengthAdjust="spacing" textLength="71" x="103.5" y="372.292">«Service»</text><text fill="#000000" font-family="sans-serif" font-size="14" lengthAdjust="spacing" textLength="203" x="37.5" y="388.5889">Stock EV Charging Service 1</text></g><!--MD5=[c8fafd0d41df31421e36697d2affd2e7]
entity Stock EV Charging Service 2--><g id="elem_Stock EV Charging Service 2"><rect fill="#F1F1F1" height="62.5938" rx="2.5" ry="2.5" style="stroke:#181818;stroke-width:0.5;" width="242" x="301" y="339.2969"/><rect fill="#F1F1F1" height="10" style="stroke:#181818;stroke-width:0.5;" width="15" x="523" y="344.2969"/><rect fill="#F1F1F1" height="2" style="stroke:#181818;stroke-width:0.5;" width="4" x="521" y="346.2969"/><rect fill="#F1F1F1" height="2" style="stroke:#181818;stroke-width:0.5;" width="4" x="521" y="350.2969"/><text fill="#000000" font-family="sans-serif" font-size="14" font-style="italic" lengthAdjust="spacing" textLength="71" x="381.5" y="372.292">«Service»</text><text fill="#000000" font-family="sans-serif" font-size="14" lengthAdjust="spacing" textLength="202" x="316" y="388.5889">Stock EV Charging Service 2</text></g><!--MD5=[f9f871420bb74517121b6c02da6dc243]
entity eMSP service 1--><g id="elem_eMSP service 1"><rect fill="#90EE90" height="46.2969" rx="2.5" ry="2.5" style="stroke:#181818;stroke-width:0.5;" width="147" x="70.5" y="462.2969"/><rect fill="#90EE90" height="10" style="stroke:#181818;stroke-width:0.5;" width="15" x="197.5" y="467.2969"/><rect fill="#90EE90" height="2" style="stroke:#181818;stroke-width:0.5;" width="4" x="195.5" y="469.2969"/><rect fill="#90EE90" height="2" style="stroke:#181818;stroke-width:0.5;" width="4" x="195.5" y="473.2969"/><text fill="#000000" font-family="sans-serif" font-size="14" lengthAdjust="spacing" textLength="107" x="85.5" y="495.292">eMSP service 1</text></g><!--MD5=[b61468839f4b29e71bae84a54e9ce832]
entity eMSP service 2--><g id="elem_eMSP service 2"><rect fill="#FFF8DC" height="46.2969" rx="2.5" ry="2.5" style="stroke:#181818;stroke-width:0.5;" width="146" x="349" y="462.2969"/><rect fill="#FFF8DC" height="10" style="stroke:#181818;stroke-width:0.5;" width="15" x="475" y="467.2969"/><rect fill="#FFF8DC" height="2" style="stroke:#181818;stroke-width:0.5;" width="4" x="473" y="469.2969"/><rect fill="#FFF8DC" height="2" style="stroke:#181818;stroke-width:0.5;" width="4" x="473" y="473.2969"/><text fill="#000000" font-family="sans-serif" font-size="14" lengthAdjust="spacing" textLength="106" x="364" y="495.292">eMSP service 2</text></g><!--MD5=[b15d817ba6561c82f54b222f58299458]
link EV Charging Frontend to EV Charging Mediator Service--><g id="link_EV Charging Frontend_EV Charging Mediator Service"><path d="M281,141.3299 C281,157.9529 281,178.6149 281,195.9929 " fill="none" id="EV Charging Frontend-to-EV Charging Mediator Service" style="stroke:#181818;stroke-width:1.0;"/><polygon fill="#181818" points="281,201.2729,285,192.2729,281,196.2729,277,192.2729,281,201.2729" style="stroke:#181818;stroke-width:1.0;"/></g><!--MD5=[f89a13bca94a56de48138c02ef46e61b]
link EV Charging Mediator Service to Stock EV Charging Service 1--><g id="link_EV Charging Mediator Service_Stock EV Charging Service 1"><path d="M250.255,264.3179 C229.075,285.3429 200.892,313.3199 178.874,335.1779 " fill="none" id="EV Charging Mediator Service-to-Stock EV Charging Service 1" style="stroke:#181818;stroke-width:1.0;"/><polygon fill="#181818" points="175.117,338.9069,184.3222,335.4048,178.6654,335.3842,178.6859,329.7274,175.117,338.9069" style="stroke:#181818;stroke-width:1.0;"/></g><!--MD5=[ae13b9aa38bef47a319ecb011cc67d8e]
link EV Charging Mediator Service to Stock EV Charging Service 2--><g id="link_EV Charging Mediator Service_Stock EV Charging Service 2"><path d="M312.643,264.3179 C334.441,285.3429 363.447,313.3199 386.108,335.1779 " fill="none" id="EV Charging Mediator Service-to-Stock EV Charging Service 2" style="stroke:#181818;stroke-width:1.0;"/><polygon fill="#181818" points="389.975,338.9069,386.2748,329.7795,386.3765,335.4355,380.7205,335.5372,389.975,338.9069" style="stroke:#181818;stroke-width:1.0;"/></g><!--MD5=[d07d2c9da42ba1a14e23df6f5b2ec65f]
link Stock EV Charging Service 1 to eMSP service 1--><g id="link_Stock EV Charging Service 1_eMSP service 1"><path d="M144,402.5379 C144,419.4884 144,440.3596 144,456.7717 " fill="none" id="Stock EV Charging Service 1-to-eMSP service 1" style="stroke:#181818;stroke-width:1.0;"/><polygon fill="#181818" points="144,462.1544,148,453.1544,144,457.1544,140,453.1544,144,462.1544" style="stroke:#181818;stroke-width:1.0;"/></g><!--MD5=[4f3e640ce788a067b23c729a156344c6]
link Stock EV Charging Service 2 to eMSP service 2--><g id="link_Stock EV Charging Service 2_eMSP service 2"><path d="M422,402.5379 C422,419.4884 422,440.3596 422,456.7717 " fill="none" id="Stock EV Charging Service 2-to-eMSP service 2" style="stroke:#181818;stroke-width:1.0;"/><polygon fill="#181818" points="422,462.1544,426,453.1544,422,457.1544,418,453.1544,422,462.1544" style="stroke:#181818;stroke-width:1.0;"/></g><!--MD5=[a41b3739e61b48a2d7ebd44cb735a34c]
@startuml
title In-Vehicle Charging domain architecture

package "Digital Cockpit application suite" {
    [EV Charging Frontend]<<Frontend>>
    [EV Charging Mediator Service]<<Service>>
}

package "Digital Cockpit platform (EV Charging Services)" {
    [Stock EV Charging Service 1]<<Service>>
    [Stock EV Charging Service 2]<<Service>>
}
component [eMSP service 1] #LightGreen
component [eMSP service 2] #CornSilk

[EV Charging Frontend] - -> [EV Charging Mediator Service]
[EV Charging Mediator Service] - -> [Stock EV Charging Service 1]
[EV Charging Mediator Service] - -> [Stock EV Charging Service 2]
[Stock EV Charging Service 1] - -> [eMSP service 1]
[Stock EV Charging Service 2] - -> [eMSP service 2]
@enduml

PlantUML version 1.2022.14beta6(Unknown compile time)
(GPL source distribution)
Java Runtime: Java(TM) SE Runtime Environment
JVM: Java HotSpot(TM) 64-Bit Server VM
Default Encoding: UTF-8
Language: en
Country: US
--></g></svg>