<?xml version="1.0" encoding="UTF-8" standalone="no"?><svg xmlns="http://www.w3.org/2000/svg" xmlns:xlink="http://www.w3.org/1999/xlink" contentScriptType="application/ecmascript" contentStyleType="text/css" height="432px" preserveAspectRatio="none" style="width:1158px;height:432px;background:#FFFFFF;" version="1.1" viewBox="0 0 1158 432" width="1158px" zoomAndPan="magnify"><defs/><g><!--MD5=[86862a1d9a14f47bad95c3c567b8463f]
cluster Application frontend--><rect fill="#FFFFFF" height="67" style="stroke:#000000;stroke-width:1.5;" width="181" x="448" y="7"/><text fill="#000000" font-family="sans-serif" font-size="14" font-weight="bold" lengthAdjust="spacing" textLength="165" x="456" y="21.9951">Application frontend</text><!--MD5=[87a69700ba4a1e183985b3cf69829d65]
cluster IndiGO application suite--><rect fill="#FFFFFF" height="102" style="stroke:#000000;stroke-width:1.5;" width="978" x="8" y="136"/><text fill="#000000" font-family="sans-serif" font-size="14" font-weight="bold" lengthAdjust="spacing" textLength="191" x="401.5" y="150.9951">IndiGO application suite</text><!--MD5=[e8948d49c81b67cd602fbc2cdad3b34e]
cluster appsuite_media_api_service_core--><polygon fill="#FFFFFF" points="16,163,284,163,291,185.2969,453,185.2969,453,230,16,230,16,163" style="stroke:#000000;stroke-width:1.5;"/><line style="stroke:#000000;stroke-width:1.5;" x1="16" x2="291" y1="185.2969" y2="185.2969"/><text fill="#000000" font-family="sans-serif" font-size="14" font-weight="bold" lengthAdjust="spacing" textLength="262" x="20" y="177.9951">appsuite_media_api_service_core</text><!--MD5=[cbabf0dd004fa7599543e44c08a891b5]
cluster api_common_media--><polygon fill="#FFFFFF" points="807,163,968,163,975,185.2969,978,185.2969,978,230,807,230,807,163" style="stroke:#000000;stroke-width:1.5;"/><line style="stroke:#000000;stroke-width:1.5;" x1="807" x2="975" y1="185.2969" y2="185.2969"/><text fill="#000000" font-family="sans-serif" font-size="14" font-weight="bold" lengthAdjust="spacing" textLength="155" x="811" y="177.9951">api_common_media</text><!--MD5=[3a7196b1698a707497b5589e485f2539]
cluster api_common_mediasources--><polygon fill="#FFFFFF" points="472,163,694,163,701,185.2969,799,185.2969,799,230,472,230,472,163" style="stroke:#000000;stroke-width:1.5;"/><line style="stroke:#000000;stroke-width:1.5;" x1="472" x2="701" y1="185.2969" y2="185.2969"/><text fill="#000000" font-family="sans-serif" font-size="14" font-weight="bold" lengthAdjust="spacing" textLength="216" x="476" y="177.9951">api_common_mediasources</text><!--MD5=[c816b83431369208e3b55d328787b8a4]
cluster Android --><rect fill="#FFFFFF" height="67" style="stroke:#000000;stroke-width:1.5;" width="325" x="814" y="261"/><text fill="#000000" font-family="sans-serif" font-size="14" font-weight="bold" lengthAdjust="spacing" textLength="63" x="942.5" y="275.9951">Android</text><!--MD5=[09679be9800bec50d9d2c4930a4ad09f]
cluster Media source--><rect fill="#FFFFFF" height="67" style="stroke:#000000;stroke-width:1.5;" width="200" x="952" y="359"/><text fill="#000000" font-family="sans-serif" font-size="14" font-weight="bold" lengthAdjust="spacing" textLength="106" x="999" y="373.9951">Media source</text><!--MD5=[aea5a51a532750e01c78dc98072a2c26]
class MyPanel--><rect codeLine="4" fill="#BCDCF5" height="32" id="MyPanel" style="stroke:#8DC3EB;stroke-width:1.5;" width="81" x="497.5" y="34"/><ellipse cx="512.5" cy="50" fill="#8DC3EB" rx="11" ry="11" style="stroke:#8DC3EB;stroke-width:1.0;"/><path d="M514.9688,55.875 Q514.3906,56.1875 513.75,56.3438 Q513.1094,56.5 512.4063,56.5 Q509.9063,56.5 508.5781,54.8281 Q507.2656,53.1563 507.2656,50 Q507.2656,46.8438 508.5781,45.1719 Q509.9063,43.5 512.4063,43.5 Q513.1094,43.5 513.75,43.6563 Q514.4063,43.8125 514.9688,44.125 L514.9688,46.9219 Q514.3438,46.3594 513.75,46.0938 Q513.1563,45.8125 512.5313,45.8125 Q511.1875,45.8125 510.5,46.875 Q509.8125,47.9375 509.8125,50 Q509.8125,52.0781 510.5,53.1406 Q511.1875,54.1875 512.5313,54.1875 Q513.1563,54.1875 513.75,53.9219 Q514.3438,53.6563 514.9688,53.0781 L514.9688,55.875 Z " fill="#000000"/><text fill="#000000" font-family="sans-serif" font-size="12" lengthAdjust="spacing" textLength="49" x="526.5" y="54.1543">MyPanel</text><!--MD5=[2d6fc9cf78763f3bfa1f34675c9e309e]
class MediaService--><rect codeLine="9" fill="#F8C9DF" height="32" id="MediaService" style="stroke:#F29AC2;stroke-width:1.5;" width="111" x="334.5" y="190"/><ellipse cx="349.5" cy="206" fill="#F29AC2" rx="11" ry="11" style="stroke:#F29AC2;stroke-width:1.0;"/><path d="M345.9219,201.7813 L345.9219,199.5 L353.3125,199.5 L353.3125,201.7813 L350.8438,201.7813 L350.8438,210.2344 L353.3125,210.2344 L353.3125,212.5 L345.9219,212.5 L345.9219,210.2344 L348.3906,210.2344 L348.3906,201.7813 L345.9219,201.7813 Z " fill="#000000"/><text fill="#000000" font-family="sans-serif" font-size="12" font-style="italic" lengthAdjust="spacing" textLength="79" x="363.5" y="210.1543">MediaService</text><!--MD5=[a2b308fbc3c7acac6075e934217622f9]
class MediaServiceApi--><rect codeLine="10" fill="#F8C9DF" height="32" id="MediaServiceApi" style="stroke:#F29AC2;stroke-width:1.5;" width="130" x="24" y="190"/><ellipse cx="39" cy="206" fill="#F29AC2" rx="11" ry="11" style="stroke:#F29AC2;stroke-width:1.0;"/><path d="M41.4688,211.875 Q40.8906,212.1875 40.25,212.3438 Q39.6094,212.5 38.9063,212.5 Q36.4063,212.5 35.0781,210.8281 Q33.7656,209.1563 33.7656,206 Q33.7656,202.8438 35.0781,201.1719 Q36.4063,199.5 38.9063,199.5 Q39.6094,199.5 40.25,199.6563 Q40.9063,199.8125 41.4688,200.125 L41.4688,202.9219 Q40.8438,202.3594 40.25,202.0938 Q39.6563,201.8125 39.0313,201.8125 Q37.6875,201.8125 37,202.875 Q36.3125,203.9375 36.3125,206 Q36.3125,208.0781 37,209.1406 Q37.6875,210.1875 39.0313,210.1875 Q39.6563,210.1875 40.25,209.9219 Q40.8438,209.6563 41.4688,209.0781 L41.4688,211.875 Z " fill="#000000"/><text fill="#000000" font-family="sans-serif" font-size="12" lengthAdjust="spacing" textLength="98" x="53" y="210.1543">MediaServiceApi</text><!--MD5=[63b699a181b06d4d99ecd7eaa4fb5d4c]
class SourceClient--><rect codeLine="15" fill="#E5E5E5" height="32" id="SourceClient" style="stroke:#BEBEBE;stroke-width:1.5;" width="108" x="826" y="190"/><ellipse cx="841" cy="206" fill="#BEBEBE" rx="11" ry="11" style="stroke:#BEBEBE;stroke-width:1.0;"/><path d="M843.4688,211.875 Q842.8906,212.1875 842.25,212.3438 Q841.6094,212.5 840.9063,212.5 Q838.4063,212.5 837.0781,210.8281 Q835.7656,209.1563 835.7656,206 Q835.7656,202.8438 837.0781,201.1719 Q838.4063,199.5 840.9063,199.5 Q841.6094,199.5 842.25,199.6563 Q842.9063,199.8125 843.4688,200.125 L843.4688,202.9219 Q842.8438,202.3594 842.25,202.0938 Q841.6563,201.8125 841.0313,201.8125 Q839.6875,201.8125 839,202.875 Q838.3125,203.9375 838.3125,206 Q838.3125,208.0781 839,209.1406 Q839.6875,210.1875 841.0313,210.1875 Q841.6563,210.1875 842.25,209.9219 Q842.8438,209.6563 843.4688,209.0781 L843.4688,211.875 Z " fill="#000000"/><text fill="#000000" font-family="sans-serif" font-size="12" lengthAdjust="spacing" textLength="76" x="855" y="210.1543">SourceClient</text><!--MD5=[81af2cdabd55bc49ebdb4221a07e6739]
class PolicyProvider--><rect codeLine="19" fill="#E5E5E5" height="32" id="PolicyProvider" style="stroke:#BEBEBE;stroke-width:1.5;" width="115" x="480.5" y="190"/><ellipse cx="495.5" cy="206" fill="#BEBEBE" rx="11" ry="11" style="stroke:#BEBEBE;stroke-width:1.0;"/><path d="M497.9688,211.875 Q497.3906,212.1875 496.75,212.3438 Q496.1094,212.5 495.4063,212.5 Q492.9063,212.5 491.5781,210.8281 Q490.2656,209.1563 490.2656,206 Q490.2656,202.8438 491.5781,201.1719 Q492.9063,199.5 495.4063,199.5 Q496.1094,199.5 496.75,199.6563 Q497.4063,199.8125 497.9688,200.125 L497.9688,202.9219 Q497.3438,202.3594 496.75,202.0938 Q496.1563,201.8125 495.5313,201.8125 Q494.1875,201.8125 493.5,202.875 Q492.8125,203.9375 492.8125,206 Q492.8125,208.0781 493.5,209.1406 Q494.1875,210.1875 495.5313,210.1875 Q496.1563,210.1875 496.75,209.9219 Q497.3438,209.6563 497.9688,209.0781 L497.9688,211.875 Z " fill="#000000"/><text fill="#000000" font-family="sans-serif" font-size="12" lengthAdjust="spacing" textLength="83" x="509.5" y="210.1543">PolicyProvider</text><!--MD5=[235793329aea34df7c8a7a411fa54bcb]
class MediaTaskPanelPolicy--><rect codeLine="20" fill="#E5E5E5" height="32" id="MediaTaskPanelPolicy" style="stroke:#BEBEBE;stroke-width:1.5;" width="160" x="631" y="190"/><ellipse cx="646" cy="206" fill="#BEBEBE" rx="11" ry="11" style="stroke:#BEBEBE;stroke-width:1.0;"/><path d="M642.4219,201.7813 L642.4219,199.5 L649.8125,199.5 L649.8125,201.7813 L647.3438,201.7813 L647.3438,210.2344 L649.8125,210.2344 L649.8125,212.5 L642.4219,212.5 L642.4219,210.2344 L644.8906,210.2344 L644.8906,201.7813 L642.4219,201.7813 Z " fill="#000000"/><text fill="#000000" font-family="sans-serif" font-size="12" font-style="italic" lengthAdjust="spacing" textLength="128" x="660" y="210.1543">MediaTaskPanelPolicy</text><!--MD5=[55778d966bb900edd09e58dfde7b9fd5]
class MediaBrowser--><rect codeLine="25" fill="#65A7A9" height="32" id="MediaBrowser" style="stroke:#008D8D;stroke-width:1.5;" width="115" x="822.5" y="288"/><ellipse cx="837.5" cy="304" fill="#008D8D" rx="11" ry="11" style="stroke:#008D8D;stroke-width:1.0;"/><path d="M839.9688,309.875 Q839.3906,310.1875 838.75,310.3438 Q838.1094,310.5 837.4063,310.5 Q834.9063,310.5 833.5781,308.8281 Q832.2656,307.1563 832.2656,304 Q832.2656,300.8438 833.5781,299.1719 Q834.9063,297.5 837.4063,297.5 Q838.1094,297.5 838.75,297.6563 Q839.4063,297.8125 839.9688,298.125 L839.9688,300.9219 Q839.3438,300.3594 838.75,300.0938 Q838.1563,299.8125 837.5313,299.8125 Q836.1875,299.8125 835.5,300.875 Q834.8125,301.9375 834.8125,304 Q834.8125,306.0781 835.5,307.1406 Q836.1875,308.1875 837.5313,308.1875 Q838.1563,308.1875 838.75,307.9219 Q839.3438,307.6563 839.9688,307.0781 L839.9688,309.875 Z " fill="#000000"/><text fill="#000000" font-family="sans-serif" font-size="12" lengthAdjust="spacing" textLength="83" x="851.5" y="308.1543">MediaBrowser</text><!--MD5=[1be455286d01edf1ac8412d2e90b2181]
class MediaBrowserService--><rect codeLine="26" fill="#E94743" height="32" id="MediaBrowserService" style="stroke:#87382B;stroke-width:1.5;" width="159" x="972.5" y="288"/><ellipse cx="987.5" cy="304" fill="#87382B" rx="11" ry="11" style="stroke:#87382B;stroke-width:1.0;"/><path d="M989.9688,309.875 Q989.3906,310.1875 988.75,310.3438 Q988.1094,310.5 987.4063,310.5 Q984.9063,310.5 983.5781,308.8281 Q982.2656,307.1563 982.2656,304 Q982.2656,300.8438 983.5781,299.1719 Q984.9063,297.5 987.4063,297.5 Q988.1094,297.5 988.75,297.6563 Q989.4063,297.8125 989.9688,298.125 L989.9688,300.9219 Q989.3438,300.3594 988.75,300.0938 Q988.1563,299.8125 987.5313,299.8125 Q986.1875,299.8125 985.5,300.875 Q984.8125,301.9375 984.8125,304 Q984.8125,306.0781 985.5,307.1406 Q986.1875,308.1875 987.5313,308.1875 Q988.1563,308.1875 988.75,307.9219 Q989.3438,307.6563 989.9688,307.0781 L989.9688,309.875 Z " fill="#000000"/><text fill="#000000" font-family="sans-serif" font-size="12" lengthAdjust="spacing" textLength="127" x="1001.5" y="308.1543">MediaBrowserService</text><!--MD5=[db554e16a331766f8dc5de31c91ba433]
class AppMediaBrowserService--><rect codeLine="30" fill="#65A7A9" height="32" id="AppMediaBrowserService" style="stroke:#008D8D;stroke-width:1.5;" width="183" x="960.5" y="386"/><ellipse cx="975.5" cy="402" fill="#008D8D" rx="11" ry="11" style="stroke:#008D8D;stroke-width:1.0;"/><path d="M977.9688,407.875 Q977.3906,408.1875 976.75,408.3438 Q976.1094,408.5 975.4063,408.5 Q972.9063,408.5 971.5781,406.8281 Q970.2656,405.1563 970.2656,402 Q970.2656,398.8438 971.5781,397.1719 Q972.9063,395.5 975.4063,395.5 Q976.1094,395.5 976.75,395.6563 Q977.4063,395.8125 977.9688,396.125 L977.9688,398.9219 Q977.3438,398.3594 976.75,398.0938 Q976.1563,397.8125 975.5313,397.8125 Q974.1875,397.8125 973.5,398.875 Q972.8125,399.9375 972.8125,402 Q972.8125,404.0781 973.5,405.1406 Q974.1875,406.1875 975.5313,406.1875 Q976.1563,406.1875 976.75,405.9219 Q977.3438,405.6563 977.9688,405.0781 L977.9688,407.875 Z " fill="#000000"/><text fill="#000000" font-family="sans-serif" font-size="12" lengthAdjust="spacing" textLength="151" x="989.5" y="406.1543">AppMediaBrowserService</text><!--MD5=[d30c029cdbf9bc381dbaf75bf4d074d4]
link MediaServiceApi to MediaService--><path codeLine="12" d="M154.3125,206 C206.3,206 278.5086,206 329.2597,206 " fill="none" id="MediaServiceApi-to-MediaService" style="stroke:#A80036;stroke-width:1.0;stroke-dasharray:7.0,7.0;"/><polygon fill="#A80036" points="334.411,206,325.411,202,329.411,206,325.411,210,334.411,206" style="stroke:#A80036;stroke-width:1.0;"/><text fill="#000000" font-family="sans-serif" font-size="13" lengthAdjust="spacing" textLength="144" x="172.25" y="199.0669">is generated based on</text><!--MD5=[edd58d1c32839c09af04e14266a39b64]
reverse link MediaBrowserService to AppMediaBrowserService--><path d="M1052,340.3252 C1052,355.9606 1052,373.4449 1052,385.7933 " fill="none" id="MediaBrowserService-backto-AppMediaBrowserService" style="stroke:#A80036;stroke-width:1.0;"/><polygon fill="none" points="1045.0001,340.1827,1052,320.1827,1059.0001,340.1827,1045.0001,340.1827" style="stroke:#A80036;stroke-width:1.0;"/><!--MD5=[62a3e2ccb8b5b80b6aaa3ea829764c0d]
link MyPanel to SourceClient--><path codeLine="33" d="M578.6665,57.015 C633.5117,67.7649 732.85,91.8614 807,136 C829.2548,149.2474 850.0985,170.4674 863.7692,186.0751 " fill="none" id="MyPanel-to-SourceClient" style="stroke:#A80036;stroke-width:1.0;"/><polygon fill="#A80036" points="867.0867,189.9139,864.2283,180.4889,863.8174,186.1308,858.1755,185.7199,867.0867,189.9139" style="stroke:#A80036;stroke-width:1.0;"/><text fill="#000000" font-family="sans-serif" font-size="13" lengthAdjust="spacing" textLength="58" x="789" y="109.0669">connects</text><text fill="#000000" font-family="sans-serif" font-size="13" lengthAdjust="spacing" textLength="60" x="788" y="124.1997">to source</text><!--MD5=[3a8898db8cd72ac96e6e5f59dcae4275]
link MyPanel to PolicyProvider--><path codeLine="34" d="M538,66.1072 C538,94.3657 538,152.8729 538,184.5327 " fill="none" id="MyPanel-to-PolicyProvider" style="stroke:#A80036;stroke-width:1.0;"/><polygon fill="#A80036" points="538,189.7467,542,180.7467,538,184.7467,534,180.7467,538,189.7467" style="stroke:#A80036;stroke-width:1.0;"/><text fill="#000000" font-family="sans-serif" font-size="13" lengthAdjust="spacing" textLength="30" x="549" y="109.0669">uses</text><text fill="#000000" font-family="sans-serif" font-size="13" lengthAdjust="spacing" textLength="50" x="539" y="124.1997">policies</text><!--MD5=[a42efb45c7d54325ff394fc3f393ea2e]
link PolicyProvider to MediaTaskPanelPolicy--><path codeLine="35" d="M595.7793,206 C605.7444,206 615.7094,206 625.6745,206 " fill="none" id="PolicyProvider-to-MediaTaskPanelPolicy" style="stroke:#A80036;stroke-width:1.0;"/><polygon fill="#A80036" points="630.8856,206,621.8856,202,625.8856,206,621.8856,210,630.8856,206" style="stroke:#A80036;stroke-width:1.0;"/><!--MD5=[56f8963ec4376739c03fca04f566cb08]
link MyPanel to MediaServiceApi--><path codeLine="36" d="M497.3623,64.1191 C415.2892,92.6345 229.9298,157.0355 139.9355,188.303 " fill="none" id="MyPanel-to-MediaServiceApi" style="stroke:#A80036;stroke-width:1.0;"/><polygon fill="#A80036" points="135.1976,189.9492,145.0119,190.7735,139.9206,188.3081,142.3861,183.2168,135.1976,189.9492" style="stroke:#A80036;stroke-width:1.0;"/><text fill="#000000" font-family="sans-serif" font-size="13" lengthAdjust="spacing" textLength="30" x="406" y="116.5669">uses</text><!--MD5=[1d5d859844d91bfdbb8b726e64365534]
link SourceClient to MediaBrowser--><path codeLine="37" d="M880,222.1827 C880,238.6382 880,264.2325 880,282.4088 " fill="none" id="SourceClient-to-MediaBrowser" style="stroke:#A80036;stroke-width:1.0;"/><polygon fill="#A80036" points="880,287.7933,884,278.7933,880,282.7933,876,278.7933,880,287.7933" style="stroke:#A80036;stroke-width:1.0;"/><!--MD5=[56649df2bbb6e4cb95952920cdb2c2e7]
link MediaBrowser to MediaBrowserService--><path codeLine="38" d="M937.7813,304 C947.533,304 957.2848,304 967.0366,304 " fill="none" id="MediaBrowser-to-MediaBrowserService" style="stroke:#A80036;stroke-width:1.0;"/><polygon fill="#A80036" points="972.1361,304,963.1361,300,967.1361,304,963.1361,308,972.1361,304" style="stroke:#A80036;stroke-width:1.0;"/><!--MD5=[e8e94884139928a0940549184f578638]
@startuml
!include theme.plantuml

package "Application frontend"<<Rectangle>> {
    class MyPanel<<Frontend>>
}

package "IndiGO application suite"<<Rectangle>> {
    package "appsuite_media_api_service_core" {
        interface MediaService<<Service>>
        class MediaServiceApi<<Service>>

        MediaServiceApi .> MediaService: is generated based on
    }
    package "api_common_media" {
        class SourceClient<<Api>>
    }

    package "api_common_mediasources" {
        class PolicyProvider<<Api>>
        interface MediaTaskPanelPolicy<<Api>>
    }
}

package "Android "<<Rectangle>> {
    class MediaBrowser<<Android>>
    class MediaBrowserService<<AndroidService>>
}

package "Media source"<<Rectangle>> {
    class AppMediaBrowserService<<Android>> extends MediaBrowserService
}

MyPanel - -> SourceClient : connects\nto source
MyPanel - -> PolicyProvider : uses\npolicies
PolicyProvider -> MediaTaskPanelPolicy
MyPanel -> MediaServiceApi : uses
SourceClient - -> MediaBrowser
MediaBrowser -right-> MediaBrowserService
@enduml

@startuml
skinparam componentRoundCorner 10
skinparam shadowing false
hide stereotype


skinparam interface {
  backgroundColor #f8c9df
  borderColor #f29ac2
}

skinparam component {
  BackgroundColor<<Api>> #e5e5e5
  BorderColor<<Api>> #bebebe
  BackgroundColor<<Frontend>> #bcdcf5
  BorderColor<<Frontend>> #8dc3eb
  BackgroundColor<<Service>> #f8c9df
  BorderColor<<Service>> #f29ac2
  BackgroundColor<<Android>> #65a7a9
  BorderColor<<Android>> #008d8d
  BackgroundColor<<AndroidService>> #e94743
  BorderColor<<AndroidService>> #87382B
}

hide empty methods
hide empty attributes

skinparam class {
  BackgroundColor<<Api>> #e5e5e5
  BorderColor<<Api>> #bebebe
  BackgroundColor<<Frontend>> #bcdcf5
  BorderColor<<Frontend>> #8dc3eb
  BackgroundColor<<Service>> #f8c9df
  BorderColor<<Service>> #f29ac2
  BackgroundColor<<Android>> #65a7a9
  BorderColor<<Android>> #008d8d
  BackgroundColor<<AndroidService>> #e94743
  BorderColor<<AndroidService>> #87382B
}

skinparam stereotypeCBackgroundColor<<Api>> #bebebe
skinparam stereotypeCBackgroundColor<<Frontend>> #8dc3eb
skinparam stereotypeCBackgroundColor<<Service>> #f29ac2
skinparam stereotypeCBackgroundColor<<Android>> #008d8d
skinparam stereotypeCBackgroundColor<<AndroidService>> #87382B

skinparam stereotypeIBackgroundColor<<Api>> #bebebe
skinparam stereotypeIBackgroundColor<<Frontend>> #8dc3eb
skinparam stereotypeIBackgroundColor<<Service>> #f29ac2
skinparam stereotypeIBackgroundColor<<Android>> #008d8d
skinparam stereotypeIBackgroundColor<<AndroidService>> #87382B

package "Application frontend"<<Rectangle>> {
    class MyPanel<<Frontend>>
}

package "IndiGO application suite"<<Rectangle>> {
    package "appsuite_media_api_service_core" {
        interface MediaService<<Service>>
        class MediaServiceApi<<Service>>

        MediaServiceApi .> MediaService: is generated based on
    }
    package "api_common_media" {
        class SourceClient<<Api>>
    }

    package "api_common_mediasources" {
        class PolicyProvider<<Api>>
        interface MediaTaskPanelPolicy<<Api>>
    }
}

package "Android "<<Rectangle>> {
    class MediaBrowser<<Android>>
    class MediaBrowserService<<AndroidService>>
}

package "Media source"<<Rectangle>> {
    class AppMediaBrowserService<<Android>> extends MediaBrowserService
}

MyPanel - -> SourceClient : connects\nto source
MyPanel - -> PolicyProvider : uses\npolicies
PolicyProvider -> MediaTaskPanelPolicy
MyPanel -> MediaServiceApi : uses
SourceClient - -> MediaBrowser
MediaBrowser -right-> MediaBrowserService
@enduml

PlantUML version 1.2021.16(Wed Dec 08 18:25:22 CET 2021)
(GPL source distribution)
Java Runtime: OpenJDK Runtime Environment
JVM: OpenJDK 64-Bit Server VM
Default Encoding: UTF-8
Language: en
Country: US
--></g></svg>