<?xml version="1.0" encoding="UTF-8" standalone="no"?><svg xmlns="http://www.w3.org/2000/svg" xmlns:xlink="http://www.w3.org/1999/xlink" contentScriptType="application/ecmascript" contentStyleType="text/css" height="432px" preserveAspectRatio="none" style="width:1133px;height:432px;background:#FFFFFF;" version="1.1" viewBox="0 0 1133 432" width="1133px" zoomAndPan="magnify"><defs/><g><!--MD5=[86862a1d9a14f47bad95c3c567b8463f]
cluster Application frontend--><rect fill="#FFFFFF" height="67" style="stroke:#000000;stroke-width:1.5;" width="181" x="455" y="7"/><text fill="#000000" font-family="sans-serif" font-size="14" font-weight="bold" lengthAdjust="spacing" textLength="165" x="463" y="21.9951">Application frontend</text><!--MD5=[87a69700ba4a1e183985b3cf69829d65]
cluster IndiGO application suite--><rect fill="#FFFFFF" height="102" style="stroke:#000000;stroke-width:1.5;" width="1082" x="8" y="136"/><text fill="#000000" font-family="sans-serif" font-size="14" font-weight="bold" lengthAdjust="spacing" textLength="191" x="453.5" y="150.9951">IndiGO application suite</text><!--MD5=[e8948d49c81b67cd602fbc2cdad3b34e]
cluster appsuite_media_api_service_core--><polygon fill="#FFFFFF" points="16,163,284,163,291,185.2969,453,185.2969,453,230,16,230,16,163" style="stroke:#000000;stroke-width:1.5;"/><line style="stroke:#000000;stroke-width:1.5;" x1="16" x2="291" y1="185.2969" y2="185.2969"/><text fill="#000000" font-family="sans-serif" font-size="14" font-weight="bold" lengthAdjust="spacing" textLength="262" x="20" y="177.9951">appsuite_media_api_service_core</text><!--MD5=[e3709fe139870e3bff85853eb37bd32e]
cluster appsuite_media_api_common_core--><polygon fill="#FFFFFF" points="793,163,1072,163,1079,185.2969,1082,185.2969,1082,230,793,230,793,163" style="stroke:#000000;stroke-width:1.5;"/><line style="stroke:#000000;stroke-width:1.5;" x1="793" x2="1079" y1="185.2969" y2="185.2969"/><text fill="#000000" font-family="sans-serif" font-size="14" font-weight="bold" lengthAdjust="spacing" textLength="273" x="797" y="177.9951">appsuite_media_api_common_core</text><!--MD5=[a3014fcedb52ba8b6f1bcd4b68993503]
cluster appsuite_media_api_common_frontend--><polygon fill="#FFFFFF" points="461,163,775,163,782,185.2969,785,185.2969,785,230,461,230,461,163" style="stroke:#000000;stroke-width:1.5;"/><line style="stroke:#000000;stroke-width:1.5;" x1="461" x2="782" y1="185.2969" y2="185.2969"/><text fill="#000000" font-family="sans-serif" font-size="14" font-weight="bold" lengthAdjust="spacing" textLength="308" x="465" y="177.9951">appsuite_media_api_common_frontend</text><!--MD5=[c816b83431369208e3b55d328787b8a4]
cluster Android --><rect fill="#FFFFFF" height="67" style="stroke:#000000;stroke-width:1.5;" width="325" x="789" y="261"/><text fill="#000000" font-family="sans-serif" font-size="14" font-weight="bold" lengthAdjust="spacing" textLength="63" x="917.5" y="275.9951">Android</text><!--MD5=[09679be9800bec50d9d2c4930a4ad09f]
cluster Media source--><rect fill="#FFFFFF" height="67" style="stroke:#000000;stroke-width:1.5;" width="200" x="927" y="359"/><text fill="#000000" font-family="sans-serif" font-size="14" font-weight="bold" lengthAdjust="spacing" textLength="106" x="974" y="373.9951">Media source</text><!--MD5=[aea5a51a532750e01c78dc98072a2c26]
class MyPanel--><rect codeLine="4" fill="#BCDCF5" height="32" id="MyPanel" style="stroke:#8DC3EB;stroke-width:1.5;" width="81" x="504.5" y="34"/><ellipse cx="519.5" cy="50" fill="#8DC3EB" rx="11" ry="11" style="stroke:#8DC3EB;stroke-width:1.0;"/><path d="M521.9688,55.875 Q521.3906,56.1875 520.75,56.3438 Q520.1094,56.5 519.4063,56.5 Q516.9063,56.5 515.5781,54.8281 Q514.2656,53.1563 514.2656,50 Q514.2656,46.8438 515.5781,45.1719 Q516.9063,43.5 519.4063,43.5 Q520.1094,43.5 520.75,43.6563 Q521.4063,43.8125 521.9688,44.125 L521.9688,46.9219 Q521.3438,46.3594 520.75,46.0938 Q520.1563,45.8125 519.5313,45.8125 Q518.1875,45.8125 517.5,46.875 Q516.8125,47.9375 516.8125,50 Q516.8125,52.0781 517.5,53.1406 Q518.1875,54.1875 519.5313,54.1875 Q520.1563,54.1875 520.75,53.9219 Q521.3438,53.6563 521.9688,53.0781 L521.9688,55.875 Z " fill="#000000"/><text fill="#000000" font-family="sans-serif" font-size="12" lengthAdjust="spacing" textLength="49" x="533.5" y="54.1543">MyPanel</text><!--MD5=[2d6fc9cf78763f3bfa1f34675c9e309e]
class MediaService--><rect codeLine="9" fill="#F8C9DF" height="32" id="MediaService" style="stroke:#F29AC2;stroke-width:1.5;" width="111" x="334.5" y="190"/><ellipse cx="349.5" cy="206" fill="#F29AC2" rx="11" ry="11" style="stroke:#F29AC2;stroke-width:1.0;"/><path d="M345.9219,201.7813 L345.9219,199.5 L353.3125,199.5 L353.3125,201.7813 L350.8438,201.7813 L350.8438,210.2344 L353.3125,210.2344 L353.3125,212.5 L345.9219,212.5 L345.9219,210.2344 L348.3906,210.2344 L348.3906,201.7813 L345.9219,201.7813 Z " fill="#000000"/><text fill="#000000" font-family="sans-serif" font-size="12" font-style="italic" lengthAdjust="spacing" textLength="79" x="363.5" y="210.1543">MediaService</text><!--MD5=[a2b308fbc3c7acac6075e934217622f9]
class MediaServiceApi--><rect codeLine="10" fill="#F8C9DF" height="32" id="MediaServiceApi" style="stroke:#F29AC2;stroke-width:1.5;" width="130" x="24" y="190"/><ellipse cx="39" cy="206" fill="#F29AC2" rx="11" ry="11" style="stroke:#F29AC2;stroke-width:1.0;"/><path d="M41.4688,211.875 Q40.8906,212.1875 40.25,212.3438 Q39.6094,212.5 38.9063,212.5 Q36.4063,212.5 35.0781,210.8281 Q33.7656,209.1563 33.7656,206 Q33.7656,202.8438 35.0781,201.1719 Q36.4063,199.5 38.9063,199.5 Q39.6094,199.5 40.25,199.6563 Q40.9063,199.8125 41.4688,200.125 L41.4688,202.9219 Q40.8438,202.3594 40.25,202.0938 Q39.6563,201.8125 39.0313,201.8125 Q37.6875,201.8125 37,202.875 Q36.3125,203.9375 36.3125,206 Q36.3125,208.0781 37,209.1406 Q37.6875,210.1875 39.0313,210.1875 Q39.6563,210.1875 40.25,209.9219 Q40.8438,209.6563 41.4688,209.0781 L41.4688,211.875 Z " fill="#000000"/><text fill="#000000" font-family="sans-serif" font-size="12" lengthAdjust="spacing" textLength="98" x="53" y="210.1543">MediaServiceApi</text><!--MD5=[63b699a181b06d4d99ecd7eaa4fb5d4c]
class SourceClient--><rect codeLine="15" fill="#E5E5E5" height="32" id="SourceClient" style="stroke:#BEBEBE;stroke-width:1.5;" width="108" x="801" y="190"/><ellipse cx="816" cy="206" fill="#BEBEBE" rx="11" ry="11" style="stroke:#BEBEBE;stroke-width:1.0;"/><path d="M818.4688,211.875 Q817.8906,212.1875 817.25,212.3438 Q816.6094,212.5 815.9063,212.5 Q813.4063,212.5 812.0781,210.8281 Q810.7656,209.1563 810.7656,206 Q810.7656,202.8438 812.0781,201.1719 Q813.4063,199.5 815.9063,199.5 Q816.6094,199.5 817.25,199.6563 Q817.9063,199.8125 818.4688,200.125 L818.4688,202.9219 Q817.8438,202.3594 817.25,202.0938 Q816.6563,201.8125 816.0313,201.8125 Q814.6875,201.8125 814,202.875 Q813.3125,203.9375 813.3125,206 Q813.3125,208.0781 814,209.1406 Q814.6875,210.1875 816.0313,210.1875 Q816.6563,210.1875 817.25,209.9219 Q817.8438,209.6563 818.4688,209.0781 L818.4688,211.875 Z " fill="#000000"/><text fill="#000000" font-family="sans-serif" font-size="12" lengthAdjust="spacing" textLength="76" x="830" y="210.1543">SourceClient</text><!--MD5=[81af2cdabd55bc49ebdb4221a07e6739]
class PolicyProvider--><rect codeLine="19" fill="#E5E5E5" height="32" id="PolicyProvider" style="stroke:#BEBEBE;stroke-width:1.5;" width="115" x="487.5" y="190"/><ellipse cx="502.5" cy="206" fill="#BEBEBE" rx="11" ry="11" style="stroke:#BEBEBE;stroke-width:1.0;"/><path d="M504.9688,211.875 Q504.3906,212.1875 503.75,212.3438 Q503.1094,212.5 502.4063,212.5 Q499.9063,212.5 498.5781,210.8281 Q497.2656,209.1563 497.2656,206 Q497.2656,202.8438 498.5781,201.1719 Q499.9063,199.5 502.4063,199.5 Q503.1094,199.5 503.75,199.6563 Q504.4063,199.8125 504.9688,200.125 L504.9688,202.9219 Q504.3438,202.3594 503.75,202.0938 Q503.1563,201.8125 502.5313,201.8125 Q501.1875,201.8125 500.5,202.875 Q499.8125,203.9375 499.8125,206 Q499.8125,208.0781 500.5,209.1406 Q501.1875,210.1875 502.5313,210.1875 Q503.1563,210.1875 503.75,209.9219 Q504.3438,209.6563 504.9688,209.0781 L504.9688,211.875 Z " fill="#000000"/><text fill="#000000" font-family="sans-serif" font-size="12" lengthAdjust="spacing" textLength="83" x="516.5" y="210.1543">PolicyProvider</text><!--MD5=[6984b9fdad852dcd175ae3ee4faadf07]
class UserFlowPolicy--><rect codeLine="20" fill="#E5E5E5" height="32" id="UserFlowPolicy" style="stroke:#BEBEBE;stroke-width:1.5;" width="120" x="638" y="190"/><ellipse cx="653" cy="206" fill="#BEBEBE" rx="11" ry="11" style="stroke:#BEBEBE;stroke-width:1.0;"/><path d="M649.4219,201.7813 L649.4219,199.5 L656.8125,199.5 L656.8125,201.7813 L654.3438,201.7813 L654.3438,210.2344 L656.8125,210.2344 L656.8125,212.5 L649.4219,212.5 L649.4219,210.2344 L651.8906,210.2344 L651.8906,201.7813 L649.4219,201.7813 Z " fill="#000000"/><text fill="#000000" font-family="sans-serif" font-size="12" font-style="italic" lengthAdjust="spacing" textLength="88" x="667" y="210.1543">UserFlowPolicy</text><!--MD5=[55778d966bb900edd09e58dfde7b9fd5]
class MediaBrowser--><rect codeLine="25" fill="#65A7A9" height="32" id="MediaBrowser" style="stroke:#008D8D;stroke-width:1.5;" width="115" x="797.5" y="288"/><ellipse cx="812.5" cy="304" fill="#008D8D" rx="11" ry="11" style="stroke:#008D8D;stroke-width:1.0;"/><path d="M814.9688,309.875 Q814.3906,310.1875 813.75,310.3438 Q813.1094,310.5 812.4063,310.5 Q809.9063,310.5 808.5781,308.8281 Q807.2656,307.1563 807.2656,304 Q807.2656,300.8438 808.5781,299.1719 Q809.9063,297.5 812.4063,297.5 Q813.1094,297.5 813.75,297.6563 Q814.4063,297.8125 814.9688,298.125 L814.9688,300.9219 Q814.3438,300.3594 813.75,300.0938 Q813.1563,299.8125 812.5313,299.8125 Q811.1875,299.8125 810.5,300.875 Q809.8125,301.9375 809.8125,304 Q809.8125,306.0781 810.5,307.1406 Q811.1875,308.1875 812.5313,308.1875 Q813.1563,308.1875 813.75,307.9219 Q814.3438,307.6563 814.9688,307.0781 L814.9688,309.875 Z " fill="#000000"/><text fill="#000000" font-family="sans-serif" font-size="12" lengthAdjust="spacing" textLength="83" x="826.5" y="308.1543">MediaBrowser</text><!--MD5=[1be455286d01edf1ac8412d2e90b2181]
class MediaBrowserService--><rect codeLine="26" fill="#E94743" height="32" id="MediaBrowserService" style="stroke:#87382B;stroke-width:1.5;" width="159" x="947.5" y="288"/><ellipse cx="962.5" cy="304" fill="#87382B" rx="11" ry="11" style="stroke:#87382B;stroke-width:1.0;"/><path d="M964.9688,309.875 Q964.3906,310.1875 963.75,310.3438 Q963.1094,310.5 962.4063,310.5 Q959.9063,310.5 958.5781,308.8281 Q957.2656,307.1563 957.2656,304 Q957.2656,300.8438 958.5781,299.1719 Q959.9063,297.5 962.4063,297.5 Q963.1094,297.5 963.75,297.6563 Q964.4063,297.8125 964.9688,298.125 L964.9688,300.9219 Q964.3438,300.3594 963.75,300.0938 Q963.1563,299.8125 962.5313,299.8125 Q961.1875,299.8125 960.5,300.875 Q959.8125,301.9375 959.8125,304 Q959.8125,306.0781 960.5,307.1406 Q961.1875,308.1875 962.5313,308.1875 Q963.1563,308.1875 963.75,307.9219 Q964.3438,307.6563 964.9688,307.0781 L964.9688,309.875 Z " fill="#000000"/><text fill="#000000" font-family="sans-serif" font-size="12" lengthAdjust="spacing" textLength="127" x="976.5" y="308.1543">MediaBrowserService</text><!--MD5=[db554e16a331766f8dc5de31c91ba433]
class AppMediaBrowserService--><rect codeLine="30" fill="#65A7A9" height="32" id="AppMediaBrowserService" style="stroke:#008D8D;stroke-width:1.5;" width="183" x="935.5" y="386"/><ellipse cx="950.5" cy="402" fill="#008D8D" rx="11" ry="11" style="stroke:#008D8D;stroke-width:1.0;"/><path d="M952.9688,407.875 Q952.3906,408.1875 951.75,408.3438 Q951.1094,408.5 950.4063,408.5 Q947.9063,408.5 946.5781,406.8281 Q945.2656,405.1563 945.2656,402 Q945.2656,398.8438 946.5781,397.1719 Q947.9063,395.5 950.4063,395.5 Q951.1094,395.5 951.75,395.6563 Q952.4063,395.8125 952.9688,396.125 L952.9688,398.9219 Q952.3438,398.3594 951.75,398.0938 Q951.1563,397.8125 950.5313,397.8125 Q949.1875,397.8125 948.5,398.875 Q947.8125,399.9375 947.8125,402 Q947.8125,404.0781 948.5,405.1406 Q949.1875,406.1875 950.5313,406.1875 Q951.1563,406.1875 951.75,405.9219 Q952.3438,405.6563 952.9688,405.0781 L952.9688,407.875 Z " fill="#000000"/><text fill="#000000" font-family="sans-serif" font-size="12" lengthAdjust="spacing" textLength="151" x="964.5" y="406.1543">AppMediaBrowserService</text><!--MD5=[d30c029cdbf9bc381dbaf75bf4d074d4]
link MediaServiceApi to MediaService--><path codeLine="12" d="M154.3125,206 C206.3,206 278.5086,206 329.2597,206 " fill="none" id="MediaServiceApi-to-MediaService" style="stroke:#A80036;stroke-width:1.0;stroke-dasharray:7.0,7.0;"/><polygon fill="#A80036" points="334.411,206,325.411,202,329.411,206,325.411,210,334.411,206" style="stroke:#A80036;stroke-width:1.0;"/><text fill="#000000" font-family="sans-serif" font-size="13" lengthAdjust="spacing" textLength="144" x="172.25" y="199.0669">is generated based on</text><!--MD5=[edd58d1c32839c09af04e14266a39b64]
reverse link MediaBrowserService to AppMediaBrowserService--><path d="M1027,340.3252 C1027,355.9606 1027,373.4449 1027,385.7933 " fill="none" id="MediaBrowserService-backto-AppMediaBrowserService" style="stroke:#A80036;stroke-width:1.0;"/><polygon fill="none" points="1020.0001,340.1827,1027,320.1827,1034.0001,340.1827,1020.0001,340.1827" style="stroke:#A80036;stroke-width:1.0;"/><!--MD5=[62a3e2ccb8b5b80b6aaa3ea829764c0d]
link MyPanel to SourceClient--><path codeLine="33" d="M585.6429,57.4292 C637.2607,68.2894 727.4847,92.1467 793,136 C812.7305,149.2068 830.1524,170.1698 841.4639,185.7166 " fill="none" id="MyPanel-to-SourceClient" style="stroke:#A80036;stroke-width:1.0;"/><polygon fill="#A80036" points="844.4892,189.947,842.5078,180.2995,841.5808,185.8799,836.0004,184.9529,844.4892,189.947" style="stroke:#A80036;stroke-width:1.0;"/><text fill="#000000" font-family="sans-serif" font-size="13" lengthAdjust="spacing" textLength="58" x="777" y="109.0669">connects</text><text fill="#000000" font-family="sans-serif" font-size="13" lengthAdjust="spacing" textLength="60" x="776" y="124.1997">to source</text><!--MD5=[3a8898db8cd72ac96e6e5f59dcae4275]
link MyPanel to PolicyProvider--><path codeLine="34" d="M545,66.1072 C545,94.3657 545,152.8729 545,184.5327 " fill="none" id="MyPanel-to-PolicyProvider" style="stroke:#A80036;stroke-width:1.0;"/><polygon fill="#A80036" points="545,189.7467,549,180.7467,545,184.7467,541,180.7467,545,189.7467" style="stroke:#A80036;stroke-width:1.0;"/><text fill="#000000" font-family="sans-serif" font-size="13" lengthAdjust="spacing" textLength="30" x="556" y="109.0669">uses</text><text fill="#000000" font-family="sans-serif" font-size="13" lengthAdjust="spacing" textLength="50" x="546" y="124.1997">policies</text><!--MD5=[7fbbec9bbc5736e1429e0e0e98e36b9f]
link PolicyProvider to UserFlowPolicy--><path codeLine="35" d="M602.6738,206 C612.6095,206 622.5451,206 632.4807,206 " fill="none" id="PolicyProvider-to-UserFlowPolicy" style="stroke:#A80036;stroke-width:1.0;"/><polygon fill="#A80036" points="637.6764,206,628.6764,202,632.6764,206,628.6764,210,637.6764,206" style="stroke:#A80036;stroke-width:1.0;"/><!--MD5=[56f8963ec4376739c03fca04f566cb08]
link MyPanel to MediaServiceApi--><path codeLine="36" d="M504.1317,63.9812 C421.0188,92.4146 232.4311,156.9315 140.8436,188.264 " fill="none" id="MyPanel-to-MediaServiceApi" style="stroke:#A80036;stroke-width:1.0;"/><polygon fill="#A80036" points="136.0217,189.9136,145.8319,190.7851,140.7525,188.2952,143.2425,183.2158,136.0217,189.9136" style="stroke:#A80036;stroke-width:1.0;"/><text fill="#000000" font-family="sans-serif" font-size="13" lengthAdjust="spacing" textLength="30" x="411" y="116.5669">uses</text><!--MD5=[1d5d859844d91bfdbb8b726e64365534]
link SourceClient to MediaBrowser--><path codeLine="37" d="M855,222.1827 C855,238.6382 855,264.2325 855,282.4088 " fill="none" id="SourceClient-to-MediaBrowser" style="stroke:#A80036;stroke-width:1.0;"/><polygon fill="#A80036" points="855,287.7933,859,278.7933,855,282.7933,851,278.7933,855,287.7933" style="stroke:#A80036;stroke-width:1.0;"/><!--MD5=[56649df2bbb6e4cb95952920cdb2c2e7]
link MediaBrowser to MediaBrowserService--><path codeLine="38" d="M912.7813,304 C922.533,304 932.2848,304 942.0366,304 " fill="none" id="MediaBrowser-to-MediaBrowserService" style="stroke:#A80036;stroke-width:1.0;"/><polygon fill="#A80036" points="947.1361,304,938.1361,300,942.1361,304,938.1361,308,947.1361,304" style="stroke:#A80036;stroke-width:1.0;"/><!--MD5=[0bdf54adcea82eacc6a04807303c0cb3]
@startuml
!include theme.plantuml

package "Application frontend"<<Rectangle>> {
    class MyPanel<<Frontend>>
}

package "IndiGO application suite"<<Rectangle>> {
    package "appsuite_media_api_service_core" {
        interface MediaService<<Service>>
        class MediaServiceApi<<Service>>

        MediaServiceApi .> MediaService: is generated based on
    }
    package "appsuite_media_api_common_core" {
        class SourceClient<<Api>>
    }

    package "appsuite_media_api_common_frontend" {
        class PolicyProvider<<Api>>
        interface UserFlowPolicy<<Api>>
    }
}

package "Android "<<Rectangle>> {
    class MediaBrowser<<Android>>
    class MediaBrowserService<<AndroidService>>
}

package "Media source"<<Rectangle>> {
    class AppMediaBrowserService<<Android>> extends MediaBrowserService
}

MyPanel - -> SourceClient : connects\nto source
MyPanel - -> PolicyProvider : uses\npolicies
PolicyProvider -> UserFlowPolicy
MyPanel -> MediaServiceApi : uses
SourceClient - -> MediaBrowser
MediaBrowser -right-> MediaBrowserService
@enduml

@startuml
skinparam componentRoundCorner 10
skinparam shadowing false
hide stereotype


skinparam interface {
  backgroundColor #f8c9df
  borderColor #f29ac2
}

skinparam component {
  BackgroundColor<<Api>> #e5e5e5
  BorderColor<<Api>> #bebebe
  BackgroundColor<<Frontend>> #bcdcf5
  BorderColor<<Frontend>> #8dc3eb
  BackgroundColor<<Service>> #f8c9df
  BorderColor<<Service>> #f29ac2
  BackgroundColor<<Android>> #65a7a9
  BorderColor<<Android>> #008d8d
  BackgroundColor<<AndroidService>> #e94743
  BorderColor<<AndroidService>> #87382B
}

hide empty methods
hide empty attributes

skinparam class {
  BackgroundColor<<Api>> #e5e5e5
  BorderColor<<Api>> #bebebe
  BackgroundColor<<Frontend>> #bcdcf5
  BorderColor<<Frontend>> #8dc3eb
  BackgroundColor<<Service>> #f8c9df
  BorderColor<<Service>> #f29ac2
  BackgroundColor<<Android>> #65a7a9
  BorderColor<<Android>> #008d8d
  BackgroundColor<<AndroidService>> #e94743
  BorderColor<<AndroidService>> #87382B
}

skinparam stereotypeCBackgroundColor<<Api>> #bebebe
skinparam stereotypeCBackgroundColor<<Frontend>> #8dc3eb
skinparam stereotypeCBackgroundColor<<Service>> #f29ac2
skinparam stereotypeCBackgroundColor<<Android>> #008d8d
skinparam stereotypeCBackgroundColor<<AndroidService>> #87382B

skinparam stereotypeIBackgroundColor<<Api>> #bebebe
skinparam stereotypeIBackgroundColor<<Frontend>> #8dc3eb
skinparam stereotypeIBackgroundColor<<Service>> #f29ac2
skinparam stereotypeIBackgroundColor<<Android>> #008d8d
skinparam stereotypeIBackgroundColor<<AndroidService>> #87382B

package "Application frontend"<<Rectangle>> {
    class MyPanel<<Frontend>>
}

package "IndiGO application suite"<<Rectangle>> {
    package "appsuite_media_api_service_core" {
        interface MediaService<<Service>>
        class MediaServiceApi<<Service>>

        MediaServiceApi .> MediaService: is generated based on
    }
    package "appsuite_media_api_common_core" {
        class SourceClient<<Api>>
    }

    package "appsuite_media_api_common_frontend" {
        class PolicyProvider<<Api>>
        interface UserFlowPolicy<<Api>>
    }
}

package "Android "<<Rectangle>> {
    class MediaBrowser<<Android>>
    class MediaBrowserService<<AndroidService>>
}

package "Media source"<<Rectangle>> {
    class AppMediaBrowserService<<Android>> extends MediaBrowserService
}

MyPanel - -> SourceClient : connects\nto source
MyPanel - -> PolicyProvider : uses\npolicies
PolicyProvider -> UserFlowPolicy
MyPanel -> MediaServiceApi : uses
SourceClient - -> MediaBrowser
MediaBrowser -right-> MediaBrowserService
@enduml

PlantUML version 1.2022.1(Tue Feb 01 19:19:58 CET 2022)
(GPL source distribution)
Java Runtime: OpenJDK Runtime Environment
JVM: OpenJDK 64-Bit Server VM
Default Encoding: UTF-8
Language: en
Country: US
--></g></svg>