<?xml version="1.0" encoding="UTF-8" standalone="no"?><svg xmlns="http://www.w3.org/2000/svg" xmlns:xlink="http://www.w3.org/1999/xlink" contentScriptType="application/ecmascript" contentStyleType="text/css" height="280px" preserveAspectRatio="none" style="width:542px;height:280px;" version="1.1" viewBox="0 0 542 280" width="542px" zoomAndPan="magnify"><defs/><g><!--entity ApplicationService--><rect fill="#F8C9DF" height="36.2969" rx="5" ry="5" style="stroke: #F29AC2; stroke-width: 1.5;" width="148" x="6" y="230"/><rect fill="#F8C9DF" height="5" style="stroke: #F29AC2; stroke-width: 1.5;" width="10" x="1" y="235"/><rect fill="#F8C9DF" height="5" style="stroke: #F29AC2; stroke-width: 1.5;" width="10" x="1" y="256.2969"/><text fill="#000000" font-family="sans-serif" font-size="14" lengthAdjust="spacingAndGlyphs" textLength="128" x="16" y="252.9951">Application service</text><!--entity ApplicationFrontend--><rect fill="#BCDCF5" height="36.2969" rx="5" ry="5" style="stroke: #8DC3EB; stroke-width: 1.5;" width="158" x="98" y="10"/><rect fill="#BCDCF5" height="5" style="stroke: #8DC3EB; stroke-width: 1.5;" width="10" x="93" y="15"/><rect fill="#BCDCF5" height="5" style="stroke: #8DC3EB; stroke-width: 1.5;" width="10" x="93" y="36.2969"/><text fill="#000000" font-family="sans-serif" font-size="14" lengthAdjust="spacingAndGlyphs" textLength="138" x="108" y="32.9951">Application frontend</text><!--entity MediaBrowser--><rect fill="#65A7A9" height="36.2969" rx="5" ry="5" style="stroke: #008D8D; stroke-width: 1.5;" width="118" x="189" y="230"/><rect fill="#65A7A9" height="5" style="stroke: #008D8D; stroke-width: 1.5;" width="10" x="184" y="235"/><rect fill="#65A7A9" height="5" style="stroke: #008D8D; stroke-width: 1.5;" width="10" x="184" y="256.2969"/><text fill="#000000" font-family="sans-serif" font-size="14" lengthAdjust="spacingAndGlyphs" textLength="98" x="199" y="252.9951">MediaBrowser</text><!--entity MediaService--><ellipse cx="113" cy="138" fill="#F8C9DF" rx="8" ry="8" style="stroke: #F29AC2; stroke-width: 2.0;"/><text fill="#000000" font-family="sans-serif" font-size="14" lengthAdjust="spacingAndGlyphs" textLength="91" x="67.5" y="167.9951">MediaService</text><path d="M291.5,8 L291.5,24 L256.26,28 L291.5,32 L291.5,48.2656 A0,0 0 0 0 291.5,48.2656 L474.5,48.2656 A0,0 0 0 0 474.5,48.2656 L474.5,18 L464.5,8 L291.5,8 A0,0 0 0 0 291.5,8 " fill="#FBFB77" style="stroke: #A80036; stroke-width: 1.0;"/><path d="M464.5,8 L464.5,18 L474.5,18 L464.5,8 " fill="#FBFB77" style="stroke: #A80036; stroke-width: 1.0;"/><text fill="#000000" font-family="sans-serif" font-size="13" lengthAdjust="spacingAndGlyphs" textLength="119" x="297.5" y="25.0669">The user interface,</text><text fill="#000000" font-family="sans-serif" font-size="13" lengthAdjust="spacingAndGlyphs" textLength="162" x="297.5" y="40.1997">customizable via policies.</text><path d="M342,228 L342,244 L307.12,248 L342,252 L342,268.2656 A0,0 0 0 0 342,268.2656 L530,268.2656 A0,0 0 0 0 530,268.2656 L530,238 L520,228 L342,228 A0,0 0 0 0 342,228 " fill="#FBFB77" style="stroke: #A80036; stroke-width: 1.0;"/><path d="M520,228 L520,238 L530,238 L520,228 " fill="#FBFB77" style="stroke: #A80036; stroke-width: 1.0;"/><text fill="#000000" font-family="sans-serif" font-size="13" lengthAdjust="spacingAndGlyphs" textLength="167" x="348" y="245.0669">Connection to the Android</text><text fill="#000000" font-family="sans-serif" font-size="13" lengthAdjust="spacingAndGlyphs" textLength="152" x="348" y="260.1997">Automotive ecosystem.</text><!--link MediaService to ApplicationService--><path d="M110.52,147.12 C105.18,164.58 92.51,206.05 85.29,229.7 " fill="none" id="MediaService-ApplicationService" style="stroke: #A80036; stroke-width: 1.0;"/><!--link ApplicationFrontend to MediaService--><path d="M166.72,46.35 C153.82,68.12 132,104.93 120.55,124.27 " fill="none" id="ApplicationFrontend-MediaService" style="stroke: #A80036; stroke-width: 1.0;"/><polygon fill="#A80036" points="117.87,128.79,125.9082,123.099,120.4257,124.4925,119.0322,119.01,117.87,128.79" style="stroke: #A80036; stroke-width: 1.0;"/><!--link ApplicationService to MediaBrowser--><path d="M154.16,248 C164.04,248 173.93,248 183.81,248 " fill="none" id="ApplicationService-MediaBrowser" style="stroke: #A80036; stroke-width: 1.0;"/><polygon fill="#A80036" points="188.98,248,179.98,244,183.98,248,179.98,252,188.98,248" style="stroke: #A80036; stroke-width: 1.0;"/><!--link ApplicationFrontend to MediaBrowser--><path d="M182.57,46.11 C195.35,85.35 226.76,181.78 240.9,225.2 " fill="none" id="ApplicationFrontend-MediaBrowser" style="stroke: #A80036; stroke-width: 1.0;"/><polygon fill="#A80036" points="242.45,229.97,243.4783,220.175,240.9075,225.2139,235.8686,222.643,242.45,229.97" style="stroke: #A80036; stroke-width: 1.0;"/><path d="M227,125.5 L227,150.5 L335,150.5 L335,135.5 L325,125.5 L227,125.5 " fill="#FBFB77" style="stroke: #A80036; stroke-width: 1.0;"/><path d="M325,125.5 L325,135.5 L335,135.5 L325,125.5 " fill="#FBFB77" style="stroke: #A80036; stroke-width: 1.0;"/><text fill="#000000" font-family="sans-serif" font-size="13" lengthAdjust="spacingAndGlyphs" textLength="87" x="233" y="142.5669">Browsing only</text><!--
@startuml
skinparam componentRoundCorner 10
skinparam shadowing false
hide stereotype


skinparam interface {
  backgroundColor #f8c9df
  borderColor #f29ac2
}

skinparam component {
  BackgroundColor<<Api>> #e5e5e5
  BorderColor<<Api>> #bebebe
  BackgroundColor<<Frontend>> #bcdcf5
  BorderColor<<Frontend>> #8dc3eb
  BackgroundColor<<Service>> #f8c9df
  BorderColor<<Service>> #f29ac2
  BackgroundColor<<Android>> #65a7a9
  BorderColor<<Android>> #008d8d
  BackgroundColor<<AndroidService>> #e94743
  BorderColor<<AndroidService>> #87382B
}

hide empty methods
hide empty attributes

skinparam class {
  BackgroundColor<<Api>> #e5e5e5
  BorderColor<<Api>> #bebebe
  BackgroundColor<<Frontend>> #bcdcf5
  BorderColor<<Frontend>> #8dc3eb
  BackgroundColor<<Service>> #f8c9df
  BorderColor<<Service>> #f29ac2
  BackgroundColor<<Android>> #65a7a9
  BorderColor<<Android>> #008d8d
  BackgroundColor<<AndroidService>> #e94743
  BorderColor<<AndroidService>> #87382B
}

skinparam stereotypeCBackgroundColor<<Api>> #bebebe
skinparam stereotypeCBackgroundColor<<Frontend>> #8dc3eb
skinparam stereotypeCBackgroundColor<<Service>> #f29ac2
skinparam stereotypeCBackgroundColor<<Android>> #008d8d
skinparam stereotypeCBackgroundColor<<AndroidService>> #87382B

skinparam stereotypeIBackgroundColor<<Api>> #bebebe
skinparam stereotypeIBackgroundColor<<Frontend>> #8dc3eb
skinparam stereotypeIBackgroundColor<<Service>> #f29ac2
skinparam stereotypeIBackgroundColor<<Android>> #008d8d
skinparam stereotypeIBackgroundColor<<AndroidService>> #87382B

Component ApplicationService as [Application service]<<Service>>
Component ApplicationFrontend as [Application frontend]<<Frontend>>

Component MediaBrowser as [MediaBrowser]<<Android>>

MediaService - - ApplicationService
ApplicationFrontend - -> MediaService
ApplicationService -> MediaBrowser
ApplicationFrontend -> MediaBrowser
note on link: Browsing only

note right of ApplicationFrontend: The user interface,\ncustomizable via policies.
note right of MediaBrowser: Connection to the Android\nAutomotive ecosystem.
@enduml

PlantUML version 1.2018.13(Mon Nov 26 18:11:51 CET 2018)
(GPL source distribution)
Java Runtime: OpenJDK Runtime Environment
JVM: OpenJDK 64-Bit Server VM
Java Version: 11.0.16+8-post-Ubuntu-0ubuntu120.04
Operating System: Linux
OS Version: 5.4.0-126-generic
Default Encoding: UTF-8
Language: en
Country: US
--></g></svg>