<?xml version="1.0" encoding="UTF-8" standalone="no"?><svg xmlns="http://www.w3.org/2000/svg" xmlns:xlink="http://www.w3.org/1999/xlink" contentScriptType="application/ecmascript" contentStyleType="text/css" height="432px" preserveAspectRatio="none" style="width:1036px;height:432px;" version="1.1" viewBox="0 0 1036 432" width="1036px" zoomAndPan="magnify"><defs/><g><text fill="#000000" font-family="sans-serif" font-size="18" lengthAdjust="spacingAndGlyphs" textLength="82" x="483" y="16.708">Guidance</text><!--cluster Digital Cockpit application suite--><polygon fill="#FFFFFF" points="418,44.9531,670,44.9531,677,67.25,680,67.25,680,131.9531,418,131.9531,418,44.9531" style="stroke: #000000; stroke-width: 1.5;"/><line style="stroke: #000000; stroke-width: 1.5;" x1="418" x2="677" y1="67.25" y2="67.25"/><text fill="#000000" font-family="sans-serif" font-size="14" font-weight="bold" lengthAdjust="spacingAndGlyphs" textLength="246" x="422" y="59.9482">Digital Cockpit application suite</text><!--cluster Digital Cockpit platform--><polygon fill="#FFFFFF" points="22,155.9531,211,155.9531,218,178.25,561,178.25,561,420.9531,22,420.9531,22,155.9531" style="stroke: #000000; stroke-width: 1.5;"/><line style="stroke: #000000; stroke-width: 1.5;" x1="22" x2="218" y1="178.25" y2="178.25"/><text fill="#000000" font-family="sans-serif" font-size="14" font-weight="bold" lengthAdjust="spacingAndGlyphs" textLength="183" x="26" y="170.9482">Digital Cockpit platform</text><!--cluster Core Service APIs--><polygon fill="#FFFFFF" points="74,198.9531,221,198.9531,228,221.25,508,221.25,508,285.9531,74,285.9531,74,198.9531" style="stroke: #000000; stroke-width: 1.5;"/><line style="stroke: #000000; stroke-width: 1.5;" x1="74" x2="228" y1="221.25" y2="221.25"/><text fill="#000000" font-family="sans-serif" font-size="14" font-weight="bold" lengthAdjust="spacingAndGlyphs" textLength="141" x="78" y="213.9482">Core Service APIs</text><!--cluster Common APIs--><polygon fill="#FFFFFF" points="46,309.9531,160,309.9531,167,332.25,537,332.25,537,396.9531,46,396.9531,46,309.9531" style="stroke: #000000; stroke-width: 1.5;"/><line style="stroke: #000000; stroke-width: 1.5;" x1="46" x2="167" y1="332.25" y2="332.25"/><text fill="#000000" font-family="sans-serif" font-size="14" font-weight="bold" lengthAdjust="spacingAndGlyphs" textLength="108" x="50" y="324.9482">Common APIs</text><!--cluster NavKit--><polygon fill="#FFFFFF" points="585,198.9531,641,198.9531,648,221.25,1014,221.25,1014,285.9531,585,285.9531,585,198.9531" style="stroke: #000000; stroke-width: 1.5;"/><line style="stroke: #000000; stroke-width: 1.5;" x1="585" x2="648" y1="221.25" y2="221.25"/><text fill="#000000" font-family="sans-serif" font-size="14" font-weight="bold" lengthAdjust="spacingAndGlyphs" textLength="50" x="589" y="213.9482">NavKit</text><!--entity StockGuidanceFrontend--><rect fill="#BCDCF5" height="36.2969" rx="5" ry="5" style="stroke: #8DC3EB; stroke-width: 1.5;" width="196" x="451" y="79.9531"/><rect fill="#BCDCF5" height="5" style="stroke: #8DC3EB; stroke-width: 1.5;" width="10" x="446" y="84.9531"/><rect fill="#BCDCF5" height="5" style="stroke: #8DC3EB; stroke-width: 1.5;" width="10" x="446" y="106.25"/><text fill="#000000" font-family="sans-serif" font-size="14" lengthAdjust="spacingAndGlyphs" textLength="176" x="461" y="102.9482">Stock Guidance Frontend</text><!--entity NavigationService--><rect fill="#F8C9DF" height="36.2969" rx="5" ry="5" style="stroke: #F29AC2; stroke-width: 1.5;" width="141" x="350.5" y="233.9531"/><rect fill="#F8C9DF" height="5" style="stroke: #F29AC2; stroke-width: 1.5;" width="10" x="345.5" y="238.9531"/><rect fill="#F8C9DF" height="5" style="stroke: #F29AC2; stroke-width: 1.5;" width="10" x="345.5" y="260.25"/><text fill="#000000" font-family="sans-serif" font-size="14" lengthAdjust="spacingAndGlyphs" textLength="121" x="360.5" y="256.9482">NavigationService</text><!--entity GuidanceInstructionsService--><rect fill="#F8C9DF" height="36.2969" rx="5" ry="5" style="stroke: #F29AC2; stroke-width: 1.5;" width="225" x="90.5" y="233.9531"/><rect fill="#F8C9DF" height="5" style="stroke: #F29AC2; stroke-width: 1.5;" width="10" x="85.5" y="238.9531"/><rect fill="#F8C9DF" height="5" style="stroke: #F29AC2; stroke-width: 1.5;" width="10" x="85.5" y="260.25"/><text fill="#000000" font-family="sans-serif" font-size="14" lengthAdjust="spacingAndGlyphs" textLength="205" x="100.5" y="256.9482">Guidance Instructions Service</text><!--entity Coordinate--><rect fill="#E5E5E5" height="36.2969" rx="5" ry="5" style="stroke: #BEBEBE; stroke-width: 1.5;" width="96" x="425" y="344.9531"/><rect fill="#E5E5E5" height="5" style="stroke: #BEBEBE; stroke-width: 1.5;" width="10" x="420" y="349.9531"/><rect fill="#E5E5E5" height="5" style="stroke: #BEBEBE; stroke-width: 1.5;" width="10" x="420" y="371.25"/><text fill="#000000" font-family="sans-serif" font-size="14" lengthAdjust="spacingAndGlyphs" textLength="76" x="435" y="367.9482">Coordinate</text><!--entity TripId--><rect fill="#E5E5E5" height="36.2969" rx="5" ry="5" style="stroke: #BEBEBE; stroke-width: 1.5;" width="62" x="328" y="344.9531"/><rect fill="#E5E5E5" height="5" style="stroke: #BEBEBE; stroke-width: 1.5;" width="10" x="323" y="349.9531"/><rect fill="#E5E5E5" height="5" style="stroke: #BEBEBE; stroke-width: 1.5;" width="10" x="323" y="371.25"/><text fill="#000000" font-family="sans-serif" font-size="14" lengthAdjust="spacingAndGlyphs" textLength="42" x="338" y="367.9482">Trip Id</text><!--entity TripPlan--><rect fill="#E5E5E5" height="36.2969" rx="5" ry="5" style="stroke: #BEBEBE; stroke-width: 1.5;" width="79" x="213.5" y="344.9531"/><rect fill="#E5E5E5" height="5" style="stroke: #BEBEBE; stroke-width: 1.5;" width="10" x="208.5" y="349.9531"/><rect fill="#E5E5E5" height="5" style="stroke: #BEBEBE; stroke-width: 1.5;" width="10" x="208.5" y="371.25"/><text fill="#000000" font-family="sans-serif" font-size="14" lengthAdjust="spacingAndGlyphs" textLength="59" x="223.5" y="367.9482">Trip Plan</text><!--entity TripPlanError--><rect fill="#E5E5E5" height="36.2969" rx="5" ry="5" style="stroke: #BEBEBE; stroke-width: 1.5;" width="116" x="62" y="344.9531"/><rect fill="#E5E5E5" height="5" style="stroke: #BEBEBE; stroke-width: 1.5;" width="10" x="57" y="349.9531"/><rect fill="#E5E5E5" height="5" style="stroke: #BEBEBE; stroke-width: 1.5;" width="10" x="57" y="371.25"/><text fill="#000000" font-family="sans-serif" font-size="14" lengthAdjust="spacingAndGlyphs" textLength="96" x="72" y="367.9482">Trip Plan Error</text><!--entity DrivingContextApiProvider--><rect fill="#E5E5E5" height="36.2969" rx="5" ry="5" style="stroke: #BEBEBE; stroke-width: 1.5;" width="210" x="788" y="233.9531"/><rect fill="#E5E5E5" height="5" style="stroke: #BEBEBE; stroke-width: 1.5;" width="10" x="783" y="238.9531"/><rect fill="#E5E5E5" height="5" style="stroke: #BEBEBE; stroke-width: 1.5;" width="10" x="783" y="260.25"/><text fill="#000000" font-family="sans-serif" font-size="14" lengthAdjust="spacingAndGlyphs" textLength="190" x="798" y="256.9482">Driving Context Api Provider</text><!--entity NavigationProvider--><rect fill="#E5E5E5" height="36.2969" rx="5" ry="5" style="stroke: #BEBEBE; stroke-width: 1.5;" width="151" x="601.5" y="233.9531"/><rect fill="#E5E5E5" height="5" style="stroke: #BEBEBE; stroke-width: 1.5;" width="10" x="596.5" y="238.9531"/><rect fill="#E5E5E5" height="5" style="stroke: #BEBEBE; stroke-width: 1.5;" width="10" x="596.5" y="260.25"/><text fill="#000000" font-family="sans-serif" font-size="14" lengthAdjust="spacingAndGlyphs" textLength="131" x="611.5" y="256.9482">Navigation Provider</text><!--link StockGuidanceFrontend to NavigationService--><path d="M534.57,116.0931 C511.04,144.0331 464.49,199.3131 438.89,229.7031 " fill="none" id="StockGuidanceFrontend-NavigationService" style="stroke: #A80036; stroke-width: 1.0;"/><polygon fill="#A80036" points="435.58,233.6431,444.4304,229.3222,438.795,229.8138,438.3034,224.1783,435.58,233.6431" style="stroke: #A80036; stroke-width: 1.0;"/><!--link StockGuidanceFrontend to GuidanceInstructionsService--><path d="M450.75,111.6831 C412.71,119.0331 369.59,130.4331 333,147.9531 C289.37,168.8431 247.01,206.6831 223.05,230.2231 " fill="none" id="StockGuidanceFrontend-GuidanceInstructionsService" style="stroke: #A80036; stroke-width: 1.0;"/><polygon fill="#A80036" points="219.37,233.8731,228.5836,230.3934,222.9269,230.3591,222.9612,224.7023,219.37,233.8731" style="stroke: #A80036; stroke-width: 1.0;"/><!--link StockGuidanceFrontend to DrivingContextApiProvider--><path d="M647.01,110.3431 C686.64,117.5431 731.92,129.2031 770,147.9531 C811.98,168.6331 851.84,206.5331 874.27,230.1431 " fill="none" id="StockGuidanceFrontend-DrivingContextApiProvider" style="stroke: #A80036; stroke-width: 1.0;"/><polygon fill="#A80036" points="877.72,233.8031,874.4645,224.5079,874.2932,230.1621,868.6389,229.9908,877.72,233.8031" style="stroke: #A80036; stroke-width: 1.0;"/><!--link StockGuidanceFrontend to NavigationProvider--><path d="M563.43,116.0931 C586.96,144.0331 633.51,199.3131 659.11,229.7031 " fill="none" id="StockGuidanceFrontend-NavigationProvider" style="stroke: #A80036; stroke-width: 1.0;"/><polygon fill="#A80036" points="662.42,233.6431,659.6966,224.1783,659.205,229.8138,653.5696,229.3222,662.42,233.6431" style="stroke: #A80036; stroke-width: 1.0;"/><!--link NavigationService to Coordinate--><path d="M429.12,269.9831 C438.12,288.8331 452.63,319.2631 462.49,339.9131 " fill="none" id="NavigationService-Coordinate" style="stroke: #A80036; stroke-width: 1.0;"/><polygon fill="#A80036" points="464.76,344.6831,464.4887,334.838,462.6042,340.1717,457.2705,338.2872,464.76,344.6831" style="stroke: #A80036; stroke-width: 1.0;"/><!--link NavigationService to TripId--><path d="M411.31,269.9831 C400.55,288.9131 383.14,319.5231 371.39,340.1731 " fill="none" id="NavigationService-TripId" style="stroke: #A80036; stroke-width: 1.0;"/><polygon fill="#A80036" points="368.82,344.6831,376.7479,338.8394,371.293,340.3375,369.7949,334.8826,368.82,344.6831" style="stroke: #A80036; stroke-width: 1.0;"/><!--link NavigationService to TripPlan--><path d="M386.2,270.0231 C370.15,277.6731 350.75,286.6031 333,293.9531 C323.39,297.9331 319.73,296.2931 311,301.9531 C294.95,312.3631 280.02,328.0031 269.33,340.7031 " fill="none" id="NavigationService-TripPlan" style="stroke: #A80036; stroke-width: 1.0;"/><polygon fill="#A80036" points="265.87,344.8931,274.6854,340.5012,269.054,341.038,268.5172,335.4067,265.87,344.8931" style="stroke: #A80036; stroke-width: 1.0;"/><!--link NavigationService to TripPlanError--><path d="M391.5,270.1231 C374.89,278.9031 353.43,288.8031 333,293.9531 C303.43,301.4131 224.51,291.1131 196,301.9531 C174.17,310.2531 153.65,327.2131 139.45,340.9931 " fill="none" id="NavigationService-TripPlanError" style="stroke: #A80036; stroke-width: 1.0;"/><polygon fill="#A80036" points="135.61,344.7831,144.8236,341.3034,139.1669,341.2691,139.2012,335.6123,135.61,344.7831" style="stroke: #A80036; stroke-width: 1.0;"/><!--
@startuml
skinparam componentRoundCorner 10
skinparam shadowing false
hide stereotype


skinparam interface {
  backgroundColor #f8c9df
  borderColor #f29ac2
}

skinparam component {
  BackgroundColor<<Api>> #e5e5e5
  BorderColor<<Api>> #bebebe
  BackgroundColor<<Frontend>> #bcdcf5
  BorderColor<<Frontend>> #8dc3eb
  BackgroundColor<<Service>> #f8c9df
  BorderColor<<Service>> #f29ac2
  BackgroundColor<<Android>> #65a7a9
  BorderColor<<Android>> #008d8d
  BackgroundColor<<AndroidService>> #e94743
  BorderColor<<AndroidService>> #87382B
}

hide empty methods
hide empty attributes

skinparam class {
  BackgroundColor<<Api>> #e5e5e5
  BorderColor<<Api>> #bebebe
  BackgroundColor<<Frontend>> #bcdcf5
  BorderColor<<Frontend>> #8dc3eb
  BackgroundColor<<Service>> #f8c9df
  BorderColor<<Service>> #f29ac2
  BackgroundColor<<Android>> #65a7a9
  BorderColor<<Android>> #008d8d
  BackgroundColor<<AndroidService>> #e94743
  BorderColor<<AndroidService>> #87382B
}

skinparam stereotypeCBackgroundColor<<Api>> #bebebe
skinparam stereotypeCBackgroundColor<<Frontend>> #8dc3eb
skinparam stereotypeCBackgroundColor<<Service>> #f29ac2
skinparam stereotypeCBackgroundColor<<Android>> #008d8d
skinparam stereotypeCBackgroundColor<<AndroidService>> #87382B

skinparam stereotypeIBackgroundColor<<Api>> #bebebe
skinparam stereotypeIBackgroundColor<<Frontend>> #8dc3eb
skinparam stereotypeIBackgroundColor<<Service>> #f29ac2
skinparam stereotypeIBackgroundColor<<Android>> #008d8d
skinparam stereotypeIBackgroundColor<<AndroidService>> #87382B
skinparam packageStyle rectangle

title Guidance

package "Digital Cockpit application suite"<<Rectangle>> {
    component StockGuidanceFrontend as [Stock Guidance Frontend]<<Frontend>>
}

package "Digital Cockpit platform"<<Rectangle>> {
     package "Core Service APIs" {
         component NavigationService<<Service>>
         component GuidanceInstructionsService as [Guidance Instructions Service]<<Service>>

    }

    package "Common APIs" {
            component Coordinate as [Coordinate]<<Api>>
            component TripId as [Trip Id]<<Api>>
            component TripPlan as [Trip Plan]<<Api>>
            component TripPlanError as [Trip Plan Error]<<Api>>
    }
}

package "NavKit"<<Rectangle>> {
    component DrivingContextApiProvider as [Driving Context Api Provider]<<Api>>
    component NavigationProvider as [Navigation Provider]<<Api>>

}

StockGuidanceFrontend -d-> NavigationService
StockGuidanceFrontend -d-> GuidanceInstructionsService

StockGuidanceFrontend -d-> DrivingContextApiProvider
StockGuidanceFrontend -d-> NavigationProvider

NavigationService -d-> Coordinate
NavigationService -d-> TripId
NavigationService -d-> TripPlan
NavigationService -d-> TripPlanError

@enduml

PlantUML version 1.2018.13(Mon Nov 26 18:11:51 CET 2018)
(GPL source distribution)
Java Runtime: OpenJDK Runtime Environment
JVM: OpenJDK 64-Bit Server VM
Java Version: 11.0.16+8-post-Ubuntu-0ubuntu120.04
Operating System: Linux
OS Version: 5.4.0-126-generic
Default Encoding: UTF-8
Language: en
Country: US
--></g></svg>