<?xml version="1.0" encoding="UTF-8" standalone="no"?><svg xmlns="http://www.w3.org/2000/svg" xmlns:xlink="http://www.w3.org/1999/xlink" contentScriptType="application/ecmascript" contentStyleType="text/css" height="448px" preserveAspectRatio="none" style="width:526px;height:448px;background:#FFFFFF;" version="1.1" viewBox="0 0 526 448" width="526px" zoomAndPan="magnify"><defs/><g><text fill="#000000" font-family="sans-serif" font-size="18" lengthAdjust="spacing" textLength="222" x="145.5" y="16.708">VPA domain architecture</text><!--MD5=[87a69700ba4a1e183985b3cf69829d65]
cluster IndiGO application suite--><rect fill="#FFFFFF" height="203" style="stroke:#000000;stroke-width:1.5;" width="513" x="7" y="27.9531"/><text fill="#000000" font-family="sans-serif" font-size="14" font-weight="bold" lengthAdjust="spacing" textLength="191" x="168" y="42.9482">IndiGO application suite</text><!--MD5=[31b330a205b4bc153b3a1d564eb9a981]
cluster IndiGO platform (VPA adaptations)--><rect fill="#FFFFFF" height="97" style="stroke:#000000;stroke-width:1.5;" width="420" x="38" y="254.9531"/><text fill="#000000" font-family="sans-serif" font-size="14" font-weight="bold" lengthAdjust="spacing" textLength="275" x="110.5" y="269.9482">IndiGO platform (VPA adaptations)</text><!--MD5=[0a1e8d0c2c399de8c6898e50d075811d]
entity VPA2 Frontend--><rect fill="#BCDCF5" height="46.2969" rx="5" ry="5" style="stroke:#8DC3EB;stroke-width:1.5;" width="145" x="284.5" y="62.9531"/><rect fill="#BCDCF5" height="10" style="stroke:#8DC3EB;stroke-width:1.5;" width="15" x="409.5" y="67.9531"/><rect fill="#BCDCF5" height="2" style="stroke:#8DC3EB;stroke-width:1.5;" width="4" x="407.5" y="69.9531"/><rect fill="#BCDCF5" height="2" style="stroke:#8DC3EB;stroke-width:1.5;" width="4" x="407.5" y="73.9531"/><text fill="#000000" font-family="sans-serif" font-size="14" lengthAdjust="spacing" textLength="105" x="299.5" y="95.9482">VPA2 Frontend</text><!--MD5=[67531abd5d3f7f9f1689593c92ee36bd]
entity VPA1 Frontend--><rect fill="#BCDCF5" height="46.2969" rx="5" ry="5" style="stroke:#8DC3EB;stroke-width:1.5;" width="145" x="65.5" y="62.9531"/><rect fill="#BCDCF5" height="10" style="stroke:#8DC3EB;stroke-width:1.5;" width="15" x="190.5" y="67.9531"/><rect fill="#BCDCF5" height="2" style="stroke:#8DC3EB;stroke-width:1.5;" width="4" x="188.5" y="69.9531"/><rect fill="#BCDCF5" height="2" style="stroke:#8DC3EB;stroke-width:1.5;" width="4" x="188.5" y="73.9531"/><text fill="#000000" font-family="sans-serif" font-size="14" lengthAdjust="spacing" textLength="105" x="80.5" y="95.9482">VPA1 Frontend</text><!--MD5=[ad26f1822ffac31c69a03f902cdaef5f]
entity VPA Mediator Service--><rect fill="#F8C9DF" height="46.2969" rx="5" ry="5" style="stroke:#F29AC2;stroke-width:1.5;" width="192" x="23" y="168.9531"/><rect fill="#F8C9DF" height="10" style="stroke:#F29AC2;stroke-width:1.5;" width="15" x="195" y="173.9531"/><rect fill="#F8C9DF" height="2" style="stroke:#F29AC2;stroke-width:1.5;" width="4" x="193" y="175.9531"/><rect fill="#F8C9DF" height="2" style="stroke:#F29AC2;stroke-width:1.5;" width="4" x="193" y="179.9531"/><text fill="#000000" font-family="sans-serif" font-size="14" lengthAdjust="spacing" textLength="152" x="38" y="201.9482">VPA Mediator Service</text><!--MD5=[38e76dd9c9924a19f181d27eef86c70f]
entity VPA Mediator Settings Service--><rect fill="#F8C9DF" height="46.2969" rx="5" ry="5" style="stroke:#F29AC2;stroke-width:1.5;" width="253" x="250.5" y="168.9531"/><rect fill="#F8C9DF" height="10" style="stroke:#F29AC2;stroke-width:1.5;" width="15" x="483.5" y="173.9531"/><rect fill="#F8C9DF" height="2" style="stroke:#F29AC2;stroke-width:1.5;" width="4" x="481.5" y="175.9531"/><rect fill="#F8C9DF" height="2" style="stroke:#F29AC2;stroke-width:1.5;" width="4" x="481.5" y="179.9531"/><text fill="#000000" font-family="sans-serif" font-size="14" lengthAdjust="spacing" textLength="213" x="265.5" y="201.9482">VPA Mediator Settings Service</text><!--MD5=[eca183fa8d0069b2d4e5c715588ffbd4]
entity Stock VPA1 Service--><rect fill="#F8C9DF" height="46.2969" rx="5" ry="5" style="stroke:#F29AC2;stroke-width:1.5;" width="177" x="53.5" y="289.9531"/><rect fill="#F8C9DF" height="10" style="stroke:#F29AC2;stroke-width:1.5;" width="15" x="210.5" y="294.9531"/><rect fill="#F8C9DF" height="2" style="stroke:#F29AC2;stroke-width:1.5;" width="4" x="208.5" y="296.9531"/><rect fill="#F8C9DF" height="2" style="stroke:#F29AC2;stroke-width:1.5;" width="4" x="208.5" y="300.9531"/><text fill="#000000" font-family="sans-serif" font-size="14" lengthAdjust="spacing" textLength="137" x="68.5" y="322.9482">Stock VPA1 Service</text><!--MD5=[5f94a80db22c7b24fa9dab0a8619151e]
entity Stock VPA2 Service--><rect fill="#F8C9DF" height="46.2969" rx="5" ry="5" style="stroke:#F29AC2;stroke-width:1.5;" width="177" x="265.5" y="289.9531"/><rect fill="#F8C9DF" height="10" style="stroke:#F29AC2;stroke-width:1.5;" width="15" x="422.5" y="294.9531"/><rect fill="#F8C9DF" height="2" style="stroke:#F29AC2;stroke-width:1.5;" width="4" x="420.5" y="296.9531"/><rect fill="#F8C9DF" height="2" style="stroke:#F29AC2;stroke-width:1.5;" width="4" x="420.5" y="300.9531"/><text fill="#000000" font-family="sans-serif" font-size="14" lengthAdjust="spacing" textLength="137" x="280.5" y="322.9482">Stock VPA2 Service</text><!--MD5=[28283d573302b556f1265f2c4319d75c]
entity VPA1 Engine--><rect fill="#90EE90" height="46.2969" rx="5" ry="5" style="stroke:#A80036;stroke-width:1.5;" width="130" x="77" y="395.9531"/><rect fill="#90EE90" height="10" style="stroke:#A80036;stroke-width:1.5;" width="15" x="187" y="400.9531"/><rect fill="#90EE90" height="2" style="stroke:#A80036;stroke-width:1.5;" width="4" x="185" y="402.9531"/><rect fill="#90EE90" height="2" style="stroke:#A80036;stroke-width:1.5;" width="4" x="185" y="406.9531"/><text fill="#000000" font-family="sans-serif" font-size="14" lengthAdjust="spacing" textLength="90" x="92" y="428.9482">VPA1 Engine</text><!--MD5=[321c818a0d690f4118f8dbcf88015f4e]
entity VPA2 Engine--><rect fill="#FFF8DC" height="46.2969" rx="5" ry="5" style="stroke:#A80036;stroke-width:1.5;" width="130" x="289" y="395.9531"/><rect fill="#FFF8DC" height="10" style="stroke:#A80036;stroke-width:1.5;" width="15" x="399" y="400.9531"/><rect fill="#FFF8DC" height="2" style="stroke:#A80036;stroke-width:1.5;" width="4" x="397" y="402.9531"/><rect fill="#FFF8DC" height="2" style="stroke:#A80036;stroke-width:1.5;" width="4" x="397" y="406.9531"/><text fill="#000000" font-family="sans-serif" font-size="14" lengthAdjust="spacing" textLength="90" x="304" y="428.9482">VPA2 Engine</text><!--MD5=[55bdef3ca0b6dfa1caf8e0bda64a3fc0]
link VPA1 Frontend to VPA Mediator Service--><path d="M133.97,109.0131 C131.05,125.0031 127.08,146.7331 123.96,163.7931 " fill="none" id="VPA1 Frontend-to-VPA Mediator Service" style="stroke:#A80036;stroke-width:1.0;"/><polygon fill="#A80036" points="123.02,168.9331,128.5759,160.8009,123.9207,164.0149,120.7067,159.3598,123.02,168.9331" style="stroke:#A80036;stroke-width:1.0;"/><!--MD5=[eea21ba862633444000fa47c5ea8235d]
link VPA1 Frontend to VPA Mediator Settings Service--><path d="M188.69,109.0131 C227.66,125.9731 281.45,149.3731 321.56,166.8331 " fill="none" id="VPA1 Frontend-to-VPA Mediator Settings Service" style="stroke:#A80036;stroke-width:1.0;"/><polygon fill="#A80036" points="326.39,168.9331,319.7395,161.6687,321.8069,166.9343,316.5414,169.0017,326.39,168.9331" style="stroke:#A80036;stroke-width:1.0;"/><!--MD5=[d97aeb95c9e3e2a9ba294f436557ef93]
link VPA2 Frontend to VPA Mediator Service--><path d="M306.53,109.0131 C267.71,125.9731 214.15,149.3731 174.2,166.8331 " fill="none" id="VPA2 Frontend-to-VPA Mediator Service" style="stroke:#A80036;stroke-width:1.0;"/><polygon fill="#A80036" points="169.4,168.9331,179.2486,169.0017,173.9831,166.9343,176.0505,161.6687,169.4,168.9331" style="stroke:#A80036;stroke-width:1.0;"/><!--MD5=[bb56352657f59fd22a8aafdf44b13150]
link VPA2 Frontend to VPA Mediator Settings Service--><path d="M361.24,109.0131 C364.32,125.0031 368.5,146.7331 371.78,163.7931 " fill="none" id="VPA2 Frontend-to-VPA Mediator Settings Service" style="stroke:#A80036;stroke-width:1.0;"/><polygon fill="#A80036" points="372.76,168.9331,374.9925,159.3406,371.8179,164.0227,367.1358,160.848,372.76,168.9331" style="stroke:#A80036;stroke-width:1.0;"/><!--MD5=[dae83afa898618c238c64f4cf27a999a]
link VPA Mediator Service to Stock VPA1 Service--><path d="M123.27,215.0531 C127.07,234.7231 132.64,263.5431 136.72,284.6431 " fill="none" id="VPA Mediator Service-to-Stock VPA1 Service" style="stroke:#A80036;stroke-width:1.0;"/><polygon fill="#A80036" points="137.67,289.5631,139.8974,279.9694,136.7252,284.6532,132.0415,281.4811,137.67,289.5631" style="stroke:#A80036;stroke-width:1.0;"/><!--MD5=[4c55cc484ac750b427c69a277d798a9e]
link VPA Mediator Service to Stock VPA2 Service--><path d="M177.01,215.0231 C199.53,224.1631 225.31,235.3331 248,246.9531 C271.4,258.9331 296.53,274.2331 316.44,286.9731 " fill="none" id="VPA Mediator Service-to-Stock VPA2 Service" style="stroke:#A80036;stroke-width:1.0;"/><polygon fill="#A80036" points="320.87,289.8131,315.4822,281.5686,316.6706,287.0992,311.14,288.2876,320.87,289.8131" style="stroke:#A80036;stroke-width:1.0;"/><!--MD5=[86b58574e11658053e97862fc876fedb]
link VPA Mediator Settings Service to Stock VPA1 Service--><path d="M318.99,215.0231 C296.47,224.1631 270.69,235.3331 248,246.9531 C224.6,258.9331 199.47,274.2331 179.56,286.9731 " fill="none" id="VPA Mediator Settings Service-to-Stock VPA1 Service" style="stroke:#A80036;stroke-width:1.0;"/><polygon fill="#A80036" points="175.13,289.8131,184.86,288.2876,179.3294,287.0992,180.5178,281.5686,175.13,289.8131" style="stroke:#A80036;stroke-width:1.0;"/><!--MD5=[97e1914d1bfeec5b7334f9bc66fa1601]
link VPA Mediator Settings Service to Stock VPA2 Service--><path d="M372.73,215.0531 C368.93,234.7231 363.36,263.5431 359.28,284.6431 " fill="none" id="VPA Mediator Settings Service-to-Stock VPA2 Service" style="stroke:#A80036;stroke-width:1.0;"/><polygon fill="#A80036" points="358.33,289.5631,363.9585,281.4811,359.2748,284.6532,356.1026,279.9694,358.33,289.5631" style="stroke:#A80036;stroke-width:1.0;"/><!--MD5=[588aef86e89141547fcc4a093ef1114f]
link Stock VPA1 Service to VPA1 Engine--><path d="M142,336.0131 C142,352.0031 142,373.7331 142,390.7931 " fill="none" id="Stock VPA1 Service-to-VPA1 Engine" style="stroke:#A80036;stroke-width:1.0;"/><polygon fill="#A80036" points="142,395.9331,146,386.9331,142,390.9331,138,386.9331,142,395.9331" style="stroke:#A80036;stroke-width:1.0;"/><!--MD5=[020c4c457ae2d0e8845dd7f2cc6dea44]
link Stock VPA2 Service to VPA2 Engine--><path d="M354,336.0131 C354,352.0031 354,373.7331 354,390.7931 " fill="none" id="Stock VPA2 Service-to-VPA2 Engine" style="stroke:#A80036;stroke-width:1.0;"/><polygon fill="#A80036" points="354,395.9331,358,386.9331,354,390.9331,350,386.9331,354,395.9331" style="stroke:#A80036;stroke-width:1.0;"/><!--MD5=[86603e838a8809b3e3d0b8b60b0ae0dd]
@startuml
!include theme.plantuml
skinparam packageStyle rectangle

title VPA domain architecture

package "IndiGO application suite"<<Rectangle>> {
    [VPA2 Frontend]<<Frontend>>
    [VPA1 Frontend]<<Frontend>>
    [VPA Mediator Service]<<Service>>
    [VPA Mediator Settings Service]<<Service>>
}

package "IndiGO platform (VPA adaptations)" {
    [Stock VPA1 Service]<<Service>>
    [Stock VPA2 Service]<<Service>>
}
component [VPA1 Engine] #LightGreen
component [VPA2 Engine] #CornSilk

[VPA1 Frontend] - -> [VPA Mediator Service]
[VPA1 Frontend] - -> [VPA Mediator Settings Service]
[VPA2 Frontend] - -> [VPA Mediator Service]
[VPA2 Frontend] - -> [VPA Mediator Settings Service]
[VPA Mediator Service] - -> [Stock VPA1 Service]
[VPA Mediator Service] - -> [Stock VPA2 Service]
[VPA Mediator Settings Service] - -> [Stock VPA1 Service]
[VPA Mediator Settings Service] - -> [Stock VPA2 Service]
[Stock VPA1 Service] - -> [VPA1 Engine]
[Stock VPA2 Service] - -> [VPA2 Engine]

@enduml

@startuml
skinparam componentRoundCorner 10
skinparam shadowing false
hide stereotype


skinparam interface {
  backgroundColor #f8c9df
  borderColor #f29ac2
}

skinparam component {
  BackgroundColor<<Api>> #e5e5e5
  BorderColor<<Api>> #bebebe
  BackgroundColor<<Frontend>> #bcdcf5
  BorderColor<<Frontend>> #8dc3eb
  BackgroundColor<<Service>> #f8c9df
  BorderColor<<Service>> #f29ac2
  BackgroundColor<<Android>> #65a7a9
  BorderColor<<Android>> #008d8d
  BackgroundColor<<AndroidService>> #e94743
  BorderColor<<AndroidService>> #87382B
}

hide empty methods
hide empty attributes

skinparam class {
  BackgroundColor<<Api>> #e5e5e5
  BorderColor<<Api>> #bebebe
  BackgroundColor<<Frontend>> #bcdcf5
  BorderColor<<Frontend>> #8dc3eb
  BackgroundColor<<Service>> #f8c9df
  BorderColor<<Service>> #f29ac2
  BackgroundColor<<Android>> #65a7a9
  BorderColor<<Android>> #008d8d
  BackgroundColor<<AndroidService>> #e94743
  BorderColor<<AndroidService>> #87382B
}

skinparam stereotypeCBackgroundColor<<Api>> #bebebe
skinparam stereotypeCBackgroundColor<<Frontend>> #8dc3eb
skinparam stereotypeCBackgroundColor<<Service>> #f29ac2
skinparam stereotypeCBackgroundColor<<Android>> #008d8d
skinparam stereotypeCBackgroundColor<<AndroidService>> #87382B

skinparam stereotypeIBackgroundColor<<Api>> #bebebe
skinparam stereotypeIBackgroundColor<<Frontend>> #8dc3eb
skinparam stereotypeIBackgroundColor<<Service>> #f29ac2
skinparam stereotypeIBackgroundColor<<Android>> #008d8d
skinparam stereotypeIBackgroundColor<<AndroidService>> #87382B
skinparam packageStyle rectangle

title VPA domain architecture

package "IndiGO application suite"<<Rectangle>> {
    [VPA2 Frontend]<<Frontend>>
    [VPA1 Frontend]<<Frontend>>
    [VPA Mediator Service]<<Service>>
    [VPA Mediator Settings Service]<<Service>>
}

package "IndiGO platform (VPA adaptations)" {
    [Stock VPA1 Service]<<Service>>
    [Stock VPA2 Service]<<Service>>
}
component [VPA1 Engine] #LightGreen
component [VPA2 Engine] #CornSilk

[VPA1 Frontend] - -> [VPA Mediator Service]
[VPA1 Frontend] - -> [VPA Mediator Settings Service]
[VPA2 Frontend] - -> [VPA Mediator Service]
[VPA2 Frontend] - -> [VPA Mediator Settings Service]
[VPA Mediator Service] - -> [Stock VPA1 Service]
[VPA Mediator Service] - -> [Stock VPA2 Service]
[VPA Mediator Settings Service] - -> [Stock VPA1 Service]
[VPA Mediator Settings Service] - -> [Stock VPA2 Service]
[Stock VPA1 Service] - -> [VPA1 Engine]
[Stock VPA2 Service] - -> [VPA2 Engine]

@enduml

PlantUML version 1.2022.1(Tue Feb 01 19:19:58 CET 2022)
(GPL source distribution)
Java Runtime: OpenJDK Runtime Environment
JVM: OpenJDK 64-Bit Server VM
Default Encoding: UTF-8
Language: en
Country: US
--></g></svg>
