<?xml version="1.0" encoding="UTF-8" standalone="no"?><svg xmlns="http://www.w3.org/2000/svg" xmlns:xlink="http://www.w3.org/1999/xlink" contentScriptType="application/ecmascript" contentStyleType="text/css" height="443px" preserveAspectRatio="none" style="width:584px;height:443px;" version="1.1" viewBox="0 0 584 443" width="584px" zoomAndPan="magnify"><defs/><g><!--cluster Hardware/Head Unit--><polygon fill="#FFFFFF" points="22,24,186,24,193,46.2969,562,46.2969,562,336,22,336,22,24" style="stroke: #000000; stroke-width: 1.5;"/><line style="stroke: #000000; stroke-width: 1.5;" x1="22" x2="193" y1="46.2969" y2="46.2969"/><text fill="#000000" font-family="sans-serif" font-size="14" font-weight="bold" lengthAdjust="spacingAndGlyphs" textLength="158" x="26" y="38.9951">Hardware/Head Unit</text><!--cluster Android System Image--><polygon fill="#FFFFFF" points="46,67,229,67,236,89.2969,538,89.2969,538,312,46,312,46,67" style="stroke: #000000; stroke-width: 1.5;"/><line style="stroke: #000000; stroke-width: 1.5;" x1="46" x2="236" y1="89.2969" y2="89.2969"/><text fill="#000000" font-family="sans-serif" font-size="14" font-weight="bold" lengthAdjust="spacingAndGlyphs" textLength="177" x="50" y="81.9951">Android System Image</text><!--cluster Android Automotive OS--><polygon fill="#FFFFFF" points="314,110,504,110,511,132.2969,514,132.2969,514,197,314,197,314,110" style="stroke: #000000; stroke-width: 1.5;"/><line style="stroke: #000000; stroke-width: 1.5;" x1="314" x2="511" y1="132.2969" y2="132.2969"/><text fill="#000000" font-family="sans-serif" font-size="14" font-weight="bold" lengthAdjust="spacingAndGlyphs" textLength="184" x="318" y="124.9951">Android Automotive OS</text><!--entity DigitalCockpit--><rect fill="#BCDCF5" height="36.2969" rx="5" ry="5" style="stroke: #8DC3EB; stroke-width: 1.5;" width="236" x="62" y="145"/><rect fill="#BCDCF5" height="5" style="stroke: #8DC3EB; stroke-width: 1.5;" width="10" x="57" y="150"/><rect fill="#BCDCF5" height="5" style="stroke: #8DC3EB; stroke-width: 1.5;" width="10" x="57" y="171.2969"/><text fill="#000000" font-family="sans-serif" font-size="14" lengthAdjust="spacingAndGlyphs" textLength="216" x="72" y="167.9951">Digital Cockpit Application Suite</text><!--entity VHALService--><rect fill="#65A7A9" height="36.2969" rx="5" ry="5" style="stroke: #008D8D; stroke-width: 1.5;" width="261" x="260.5" y="260"/><rect fill="#65A7A9" height="5" style="stroke: #008D8D; stroke-width: 1.5;" width="10" x="255.5" y="265"/><rect fill="#65A7A9" height="5" style="stroke: #008D8D; stroke-width: 1.5;" width="10" x="255.5" y="286.2969"/><text fill="#000000" font-family="sans-serif" font-size="14" lengthAdjust="spacingAndGlyphs" textLength="241" x="270.5" y="282.9951">Tier1 specific VHAL Implementation</text><!--entity VHAL--><rect fill="#E94743" height="36.2969" rx="5" ry="5" style="stroke: #87382B; stroke-width: 1.5;" width="55" x="434.5" y="145"/><rect fill="#E94743" height="5" style="stroke: #87382B; stroke-width: 1.5;" width="10" x="429.5" y="150"/><rect fill="#E94743" height="5" style="stroke: #87382B; stroke-width: 1.5;" width="10" x="429.5" y="171.2969"/><text fill="#000000" font-family="sans-serif" font-size="14" lengthAdjust="spacingAndGlyphs" textLength="35" x="444.5" y="167.9951">VHAL</text><!--entity VehicleData--><path d="M342,406 C342,403 344,401 347,401 C350,401 352,403 352,406 C352,403 354,401 357,401 C360,401 362,403 362,406 C362,403 364,401 367,401 C370,401 372,403 372,406 C372,403 374,401 377,401 C380,401 382,403 382,406 C382,403 384,401 387,401 C390,401 392,403 392,406 C392,403 394,401 397,401 C400,401 402,403 402,406 C402,403 404,401 407,401 C410,401 412,403 412,406 C412,403 414,401 417,401 C420,401 422,403 422,406 C422,403 424,401 427,401 C430,401 432,403 432,406 C432,403 434,401 437,401 C440,401 442,403 442,406 C445,406 447,408 447,411 C447,414 445,416 442,416 C445,416 447,418 447,421 C447,424 445,426 442,426 C442,429 439,431 437,431 C434,431 432,429 432,426 C432,429 429,431 427,431 C424,431 422,429 422,426 C422,429 419,431 417,431 C414,431 412,429 412,426 C412,429 409,431 407,431 C404,431 402,429 402,426 C402,429 399,431 397,431 C394,431 392,429 392,426 C392,429 389,431 387,431 C384,431 382,429 382,426 C382,429 379,431 377,431 C374,431 372,429 372,426 C372,429 369,431 367,431 C364,431 362,429 362,426 C362,429 359,431 357,431 C354,431 352,429 352,426 C352,429 349,431 347,431 C344,431 342,429 342,426 C339,426 337,424 337,421 C337,418 339,416 342,416 C339,416 337,414 337,411 C337,408 339,406 342,406 " fill="#FEFECE" style="stroke: #000000; stroke-width: 1.5;"/><text fill="#000000" font-family="sans-serif" font-size="14" lengthAdjust="spacingAndGlyphs" textLength="84" x="349" y="421.9951">Vehicle data</text><!--link DigitalCockpit to VHAL--><path d="M303.38,163 C349.46,163 398.1,163 429.17,163 " fill="none" id="DigitalCockpit-VHAL" style="stroke: #A80036; stroke-width: 1.0;"/><polygon fill="#A80036" points="434.39,163,425.39,159,429.39,163,425.39,167,434.39,163" style="stroke: #A80036; stroke-width: 1.0;"/><polygon fill="#A80036" points="298.37,163,307.37,167,303.37,163,307.37,159,298.37,163" style="stroke: #A80036; stroke-width: 1.0;"/><text fill="#000000" font-family="sans-serif" font-size="13" lengthAdjust="spacingAndGlyphs" textLength="100" x="316.25" y="156.0669">VehicleProperty</text><!--link VHAL to VHALService--><path d="M448.44,185.58 C435.86,205.6 417.24,235.24 404.64,255.3 " fill="none" id="VHAL-VHALService" style="stroke: #A80036; stroke-width: 1.0;"/><polygon fill="#A80036" points="401.88,259.68,410.047,254.1754,404.5338,255.4424,403.2668,249.9293,401.88,259.68" style="stroke: #A80036; stroke-width: 1.0;"/><polygon fill="#A80036" points="451.22,181.16,443.0397,186.6448,448.5559,185.3912,449.8096,190.9073,451.22,181.16" style="stroke: #A80036; stroke-width: 1.0;"/><text fill="#000000" font-family="sans-serif" font-size="13" lengthAdjust="spacingAndGlyphs" textLength="30" x="431" y="226.0669">HIDL</text><!--link VHALService to VehicleData--><path d="M391,301.26 C391,326.68 391,368.02 391,393.52 " fill="none" id="VHALService-VehicleData" style="stroke: #A80036; stroke-width: 1.0;"/><polygon fill="#A80036" points="391,398.71,395,389.71,391,393.71,387,389.71,391,398.71" style="stroke: #A80036; stroke-width: 1.0;"/><polygon fill="#A80036" points="391,296.07,387,305.07,391,301.07,395,305.07,391,296.07" style="stroke: #A80036; stroke-width: 1.0;"/><text fill="#000000" font-family="sans-serif" font-size="13" lengthAdjust="spacingAndGlyphs" textLength="139" x="392" y="365.0669">CAN or other protocol</text><!--
@startuml
skinparam componentRoundCorner 10
skinparam shadowing false
hide stereotype
hide stereotype


skinparam interface {
  backgroundColor #f8c9df
  borderColor #f29ac2
}

skinparam component {
  BackgroundColor<<Api>> #e5e5e5
  BorderColor<<Api>> #bebebe
  BackgroundColor<<Frontend>> #bcdcf5
  BorderColor<<Frontend>> #8dc3eb
  BackgroundColor<<Service>> #f8c9df
  BorderColor<<Service>> #f29ac2
  BackgroundColor<<Android>> #65a7a9
  BorderColor<<Android>> #008d8d
  BackgroundColor<<AndroidService>> #e94743
  BorderColor<<AndroidService>> #87382B
}

hide empty methods
hide empty attributes

skinparam class {
  BackgroundColor<<Api>> #e5e5e5
  BorderColor<<Api>> #bebebe
  BackgroundColor<<Frontend>> #bcdcf5
  BorderColor<<Frontend>> #8dc3eb
  BackgroundColor<<Service>> #f8c9df
  BorderColor<<Service>> #f29ac2
  BackgroundColor<<Android>> #65a7a9
  BorderColor<<Android>> #008d8d
  BackgroundColor<<AndroidService>> #e94743
  BorderColor<<AndroidService>> #87382B
}

skinparam stereotypeCBackgroundColor<<Api>> #bebebe
skinparam stereotypeCBackgroundColor<<Frontend>> #8dc3eb
skinparam stereotypeCBackgroundColor<<Service>> #f29ac2
skinparam stereotypeCBackgroundColor<<Android>> #008d8d
skinparam stereotypeCBackgroundColor<<AndroidService>> #87382B

skinparam stereotypeIBackgroundColor<<Api>> #bebebe
skinparam stereotypeIBackgroundColor<<Frontend>> #8dc3eb
skinparam stereotypeIBackgroundColor<<Service>> #f29ac2
skinparam stereotypeIBackgroundColor<<Android>> #008d8d
skinparam stereotypeIBackgroundColor<<AndroidService>> #87382B
skinparam packageStyle rectangle

cloud VehicleData as "Vehicle data"

package "Hardware/Head Unit" {
    package "Android System Image"{
        component "Digital Cockpit Application Suite" as DigitalCockpit<<Frontend>>
        package "Android Automotive OS"{
            component "VHAL" as VHAL<<AndroidService>>
        }
        component "Tier1 specific VHAL Implementation" as VHALService <<Android>>
    }
}
DigitalCockpit <-> VHAL:VehicleProperty
VHAL <- -> VHALService:HIDL
VHALService <- -> VehicleData:CAN or other protocol
@enduml

PlantUML version 1.2018.13(Mon Nov 26 18:11:51 CET 2018)
(GPL source distribution)
Java Runtime: OpenJDK Runtime Environment
JVM: OpenJDK 64-Bit Server VM
Java Version: 11.0.16+8-post-Ubuntu-0ubuntu120.04
Operating System: Linux
OS Version: 5.4.0-126-generic
Default Encoding: UTF-8
Language: en
Country: US
--></g></svg>