<?xml version="1.0" encoding="UTF-8" standalone="no"?><svg xmlns="http://www.w3.org/2000/svg" xmlns:xlink="http://www.w3.org/1999/xlink" contentScriptType="application/ecmascript" contentStyleType="text/css" height="430px" preserveAspectRatio="none" style="width:503px;height:430px;" version="1.1" viewBox="0 0 503 430" width="503px" zoomAndPan="magnify"><defs/><g><text fill="#000000" font-family="sans-serif" font-size="18" lengthAdjust="spacingAndGlyphs" textLength="219" x="148" y="16.708">VPA domain architecture</text><!--cluster Digital Cockpit application suite--><polygon fill="#FFFFFF" points="22,44.9531,274,44.9531,281,67.25,481,67.25,481,227.9531,22,227.9531,22,44.9531" style="stroke: #000000; stroke-width: 1.5;"/><line style="stroke: #000000; stroke-width: 1.5;" x1="22" x2="281" y1="67.25" y2="67.25"/><text fill="#000000" font-family="sans-serif" font-size="14" font-weight="bold" lengthAdjust="spacingAndGlyphs" textLength="246" x="26" y="59.9482">Digital Cockpit application suite</text><!--cluster Digital Cockpit platform (VPA adaptations)--><polygon fill="#FFFFFF" points="49,251.9531,384,251.9531,391,274.25,423,274.25,423,338.9531,49,338.9531,49,251.9531" style="stroke: #000000; stroke-width: 1.5;"/><line style="stroke: #000000; stroke-width: 1.5;" x1="49" x2="391" y1="274.25" y2="274.25"/><text fill="#000000" font-family="sans-serif" font-size="14" font-weight="bold" lengthAdjust="spacingAndGlyphs" textLength="329" x="53" y="266.9482">Digital Cockpit platform (VPA adaptations)</text><!--entity VPA2 Frontend--><rect fill="#BCDCF5" height="36.2969" rx="5" ry="5" style="stroke: #8DC3EB; stroke-width: 1.5;" width="123" x="271.5" y="79.9531"/><rect fill="#BCDCF5" height="5" style="stroke: #8DC3EB; stroke-width: 1.5;" width="10" x="266.5" y="84.9531"/><rect fill="#BCDCF5" height="5" style="stroke: #8DC3EB; stroke-width: 1.5;" width="10" x="266.5" y="106.25"/><text fill="#000000" font-family="sans-serif" font-size="14" lengthAdjust="spacingAndGlyphs" textLength="103" x="281.5" y="102.9482">VPA2 Frontend</text><!--entity VPA1 Frontend--><rect fill="#BCDCF5" height="36.2969" rx="5" ry="5" style="stroke: #8DC3EB; stroke-width: 1.5;" width="123" x="77.5" y="79.9531"/><rect fill="#BCDCF5" height="5" style="stroke: #8DC3EB; stroke-width: 1.5;" width="10" x="72.5" y="84.9531"/><rect fill="#BCDCF5" height="5" style="stroke: #8DC3EB; stroke-width: 1.5;" width="10" x="72.5" y="106.25"/><text fill="#000000" font-family="sans-serif" font-size="14" lengthAdjust="spacingAndGlyphs" textLength="103" x="87.5" y="102.9482">VPA1 Frontend</text><!--entity VPA Mediator Service--><rect fill="#F8C9DF" height="36.2969" rx="5" ry="5" style="stroke: #F29AC2; stroke-width: 1.5;" width="165" x="38.5" y="175.9531"/><rect fill="#F8C9DF" height="5" style="stroke: #F29AC2; stroke-width: 1.5;" width="10" x="33.5" y="180.9531"/><rect fill="#F8C9DF" height="5" style="stroke: #F29AC2; stroke-width: 1.5;" width="10" x="33.5" y="202.25"/><text fill="#000000" font-family="sans-serif" font-size="14" lengthAdjust="spacingAndGlyphs" textLength="145" x="48.5" y="198.9482">VPA Mediator Service</text><!--entity VPA Mediator Settings Service--><rect fill="#F8C9DF" height="36.2969" rx="5" ry="5" style="stroke: #F29AC2; stroke-width: 1.5;" width="226" x="239" y="175.9531"/><rect fill="#F8C9DF" height="5" style="stroke: #F29AC2; stroke-width: 1.5;" width="10" x="234" y="180.9531"/><rect fill="#F8C9DF" height="5" style="stroke: #F29AC2; stroke-width: 1.5;" width="10" x="234" y="202.25"/><text fill="#000000" font-family="sans-serif" font-size="14" lengthAdjust="spacingAndGlyphs" textLength="206" x="249" y="198.9482">VPA Mediator Settings Service</text><!--entity Stock VPA1 Service--><rect fill="#F8C9DF" height="36.2969" rx="5" ry="5" style="stroke: #F29AC2; stroke-width: 1.5;" width="153" x="65.5" y="286.9531"/><rect fill="#F8C9DF" height="5" style="stroke: #F29AC2; stroke-width: 1.5;" width="10" x="60.5" y="291.9531"/><rect fill="#F8C9DF" height="5" style="stroke: #F29AC2; stroke-width: 1.5;" width="10" x="60.5" y="313.25"/><text fill="#000000" font-family="sans-serif" font-size="14" lengthAdjust="spacingAndGlyphs" textLength="133" x="75.5" y="309.9482">Stock VPA1 Service</text><!--entity Stock VPA2 Service--><rect fill="#F8C9DF" height="36.2969" rx="5" ry="5" style="stroke: #F29AC2; stroke-width: 1.5;" width="153" x="253.5" y="286.9531"/><rect fill="#F8C9DF" height="5" style="stroke: #F29AC2; stroke-width: 1.5;" width="10" x="248.5" y="291.9531"/><rect fill="#F8C9DF" height="5" style="stroke: #F29AC2; stroke-width: 1.5;" width="10" x="248.5" y="313.25"/><text fill="#000000" font-family="sans-serif" font-size="14" lengthAdjust="spacingAndGlyphs" textLength="133" x="263.5" y="309.9482">Stock VPA2 Service</text><!--entity VPA1 Engine--><rect fill="#90EE90" height="36.2969" rx="5" ry="5" style="stroke: #A80036; stroke-width: 1.5;" width="108" x="88" y="382.9531"/><rect fill="#90EE90" height="5" style="stroke: #A80036; stroke-width: 1.5;" width="10" x="83" y="387.9531"/><rect fill="#90EE90" height="5" style="stroke: #A80036; stroke-width: 1.5;" width="10" x="83" y="409.25"/><text fill="#000000" font-family="sans-serif" font-size="14" lengthAdjust="spacingAndGlyphs" textLength="88" x="98" y="405.9482">VPA1 Engine</text><!--entity VPA2 Engine--><rect fill="#FFF8DC" height="36.2969" rx="5" ry="5" style="stroke: #A80036; stroke-width: 1.5;" width="108" x="276" y="382.9531"/><rect fill="#FFF8DC" height="5" style="stroke: #A80036; stroke-width: 1.5;" width="10" x="271" y="387.9531"/><rect fill="#FFF8DC" height="5" style="stroke: #A80036; stroke-width: 1.5;" width="10" x="271" y="409.25"/><text fill="#000000" font-family="sans-serif" font-size="14" lengthAdjust="spacingAndGlyphs" textLength="88" x="286" y="405.9482">VPA2 Engine</text><!--link VPA1 Frontend to VPA Mediator Service--><path d="M135.7,116.1931 C132.76,131.5631 128.43,154.1531 125.23,170.8431 " fill="none" id="VPA1 Frontend-VPA Mediator Service" style="stroke: #A80036; stroke-width: 1.0;"/><polygon fill="#A80036" points="124.28,175.8231,129.9042,167.738,125.2221,170.9127,122.0475,166.2306,124.28,175.8231" style="stroke: #A80036; stroke-width: 1.0;"/><!--link VPA1 Frontend to VPA Mediator Settings Service--><path d="M177.57,115.9731 C214.55,132.2931 270.28,156.8931 308.75,173.8631 " fill="none" id="VPA1 Frontend-VPA Mediator Settings Service" style="stroke: #A80036; stroke-width: 1.0;"/><polygon fill="#A80036" points="313.35,175.9031,306.746,168.5965,308.7798,173.8751,303.5011,175.9088,313.35,175.9031" style="stroke: #A80036; stroke-width: 1.0;"/><!--link VPA2 Frontend to VPA Mediator Service--><path d="M294.61,115.9731 C257.8,132.2931 202.33,156.8931 164.05,173.8631 " fill="none" id="VPA2 Frontend-VPA Mediator Service" style="stroke: #A80036; stroke-width: 1.0;"/><polygon fill="#A80036" points="159.46,175.9031,169.3088,175.9346,164.0355,173.887,166.0831,168.6137,159.46,175.9031" style="stroke: #A80036; stroke-width: 1.0;"/><!--link VPA2 Frontend to VPA Mediator Settings Service--><path d="M336.48,116.1931 C339.59,131.5631 344.16,154.1531 347.53,170.8431 " fill="none" id="VPA2 Frontend-VPA Mediator Settings Service" style="stroke: #A80036; stroke-width: 1.0;"/><polygon fill="#A80036" points="348.54,175.8231,350.6865,166.211,347.5539,170.9213,342.8436,167.7887,348.54,175.8231" style="stroke: #A80036; stroke-width: 1.0;"/><!--link VPA Mediator Service to Stock VPA1 Service--><path d="M124.28,211.9831 C127.9,230.7531 133.73,261.0031 137.7,281.6531 " fill="none" id="VPA Mediator Service-Stock VPA1 Service" style="stroke: #A80036; stroke-width: 1.0;"/><polygon fill="#A80036" points="138.67,286.6831,140.8974,277.0894,137.7252,281.7732,133.0415,278.6011,138.67,286.6831" style="stroke: #A80036; stroke-width: 1.0;"/><!--link VPA Mediator Service to Stock VPA2 Service--><path d="M165.75,212.0131 C187.37,220.7531 213.45,232.0531 236,243.9531 C258.57,255.8631 282.83,271.4131 301.04,283.7031 " fill="none" id="VPA Mediator Service-Stock VPA2 Service" style="stroke: #A80036; stroke-width: 1.0;"/><polygon fill="#A80036" points="305.54,286.7531,300.3366,278.391,301.4019,283.9467,295.8463,285.012,305.54,286.7531" style="stroke: #A80036; stroke-width: 1.0;"/><!--link VPA Mediator Settings Service to Stock VPA1 Service--><path d="M306.85,211.9631 C285.04,220.7031 258.74,232.0031 236,243.9531 C213.41,255.8231 189.16,271.3831 170.95,283.6831 " fill="none" id="VPA Mediator Settings Service-Stock VPA1 Service" style="stroke: #A80036; stroke-width: 1.0;"/><polygon fill="#A80036" points="166.45,286.7331,176.1424,284.9846,170.586,283.9235,171.647,278.3671,166.45,286.7331" style="stroke: #A80036; stroke-width: 1.0;"/><!--link VPA Mediator Settings Service to Stock VPA2 Service--><path d="M348.56,211.9831 C344.77,230.7531 338.67,261.0031 334.5,281.6531 " fill="none" id="VPA Mediator Settings Service-Stock VPA2 Service" style="stroke: #A80036; stroke-width: 1.0;"/><polygon fill="#A80036" points="333.49,286.6831,339.1864,278.6487,334.4761,281.7813,331.3435,277.071,333.49,286.6831" style="stroke: #A80036; stroke-width: 1.0;"/><!--link Stock VPA1 Service to VPA1 Engine--><path d="M142,323.1931 C142,338.4331 142,360.7631 142,377.4131 " fill="none" id="Stock VPA1 Service-VPA1 Engine" style="stroke: #A80036; stroke-width: 1.0;"/><polygon fill="#A80036" points="142,382.8231,146,373.8231,142,377.8231,138,373.8231,142,382.8231" style="stroke: #A80036; stroke-width: 1.0;"/><!--link Stock VPA2 Service to VPA2 Engine--><path d="M330,323.1931 C330,338.4331 330,360.7631 330,377.4131 " fill="none" id="Stock VPA2 Service-VPA2 Engine" style="stroke: #A80036; stroke-width: 1.0;"/><polygon fill="#A80036" points="330,382.8231,334,373.8231,330,377.8231,326,373.8231,330,382.8231" style="stroke: #A80036; stroke-width: 1.0;"/><!--
@startuml
skinparam componentRoundCorner 10
skinparam shadowing false
hide stereotype


skinparam interface {
  backgroundColor #f8c9df
  borderColor #f29ac2
}

skinparam component {
  BackgroundColor<<Api>> #e5e5e5
  BorderColor<<Api>> #bebebe
  BackgroundColor<<Frontend>> #bcdcf5
  BorderColor<<Frontend>> #8dc3eb
  BackgroundColor<<Service>> #f8c9df
  BorderColor<<Service>> #f29ac2
  BackgroundColor<<Android>> #65a7a9
  BorderColor<<Android>> #008d8d
  BackgroundColor<<AndroidService>> #e94743
  BorderColor<<AndroidService>> #87382B
}

hide empty methods
hide empty attributes

skinparam class {
  BackgroundColor<<Api>> #e5e5e5
  BorderColor<<Api>> #bebebe
  BackgroundColor<<Frontend>> #bcdcf5
  BorderColor<<Frontend>> #8dc3eb
  BackgroundColor<<Service>> #f8c9df
  BorderColor<<Service>> #f29ac2
  BackgroundColor<<Android>> #65a7a9
  BorderColor<<Android>> #008d8d
  BackgroundColor<<AndroidService>> #e94743
  BorderColor<<AndroidService>> #87382B
}

skinparam stereotypeCBackgroundColor<<Api>> #bebebe
skinparam stereotypeCBackgroundColor<<Frontend>> #8dc3eb
skinparam stereotypeCBackgroundColor<<Service>> #f29ac2
skinparam stereotypeCBackgroundColor<<Android>> #008d8d
skinparam stereotypeCBackgroundColor<<AndroidService>> #87382B

skinparam stereotypeIBackgroundColor<<Api>> #bebebe
skinparam stereotypeIBackgroundColor<<Frontend>> #8dc3eb
skinparam stereotypeIBackgroundColor<<Service>> #f29ac2
skinparam stereotypeIBackgroundColor<<Android>> #008d8d
skinparam stereotypeIBackgroundColor<<AndroidService>> #87382B
skinparam packageStyle rectangle

title VPA domain architecture

package "Digital Cockpit application suite"<<Rectangle>> {
    [VPA2 Frontend]<<Frontend>>
    [VPA1 Frontend]<<Frontend>>
    [VPA Mediator Service]<<Service>>
    [VPA Mediator Settings Service]<<Service>>
}

package "Digital Cockpit platform (VPA adaptations)" {
    [Stock VPA1 Service]<<Service>>
    [Stock VPA2 Service]<<Service>>
}
component [VPA1 Engine] #LightGreen
component [VPA2 Engine] #CornSilk

[VPA1 Frontend] - -> [VPA Mediator Service]
[VPA1 Frontend] - -> [VPA Mediator Settings Service]
[VPA2 Frontend] - -> [VPA Mediator Service]
[VPA2 Frontend] - -> [VPA Mediator Settings Service]
[VPA Mediator Service] - -> [Stock VPA1 Service]
[VPA Mediator Service] - -> [Stock VPA2 Service]
[VPA Mediator Settings Service] - -> [Stock VPA1 Service]
[VPA Mediator Settings Service] - -> [Stock VPA2 Service]
[Stock VPA1 Service] - -> [VPA1 Engine]
[Stock VPA2 Service] - -> [VPA2 Engine]

@enduml

PlantUML version 1.2018.13(Mon Nov 26 18:11:51 CET 2018)
(GPL source distribution)
Java Runtime: OpenJDK Runtime Environment
JVM: OpenJDK 64-Bit Server VM
Java Version: 11.0.16+8-post-Ubuntu-0ubuntu120.04
Operating System: Linux
OS Version: 5.4.0-126-generic
Default Encoding: UTF-8
Language: en
Country: US
--></g></svg>