<?xml version="1.0" encoding="UTF-8" standalone="no"?><svg xmlns="http://www.w3.org/2000/svg" xmlns:xlink="http://www.w3.org/1999/xlink" contentScriptType="application/ecmascript" contentStyleType="text/css" height="581px" preserveAspectRatio="none" style="width:475px;height:581px;background:#FFFFFF;" version="1.1" viewBox="0 0 475 581" width="475px" zoomAndPan="magnify"><defs/><g><!--MD5=[751014a9392b2c449da76a4392acfc0b]
cluster Hardware/Head Unit--><rect fill="#FFFFFF" height="452" style="stroke:#000000;stroke-width:1.5;" width="462" x="7" y="7"/><text fill="#000000" font-family="sans-serif" font-size="14" font-weight="bold" lengthAdjust="spacing" textLength="161" x="157.5" y="21.9951">Hardware/Head Unit</text><!--MD5=[6fdd2b2115c022aa727f78ccd5b48ece]
cluster Android System Image--><rect fill="#FFFFFF" height="417" style="stroke:#000000;stroke-width:1.5;" width="446" x="15" y="34"/><text fill="#000000" font-family="sans-serif" font-size="14" font-weight="bold" lengthAdjust="spacing" textLength="181" x="147.5" y="48.9951">Android System Image</text><!--MD5=[78b8bb3aeee69c8ba3414da576f66191]
cluster Android Automotive OS--><rect fill="#FFFFFF" height="81" style="stroke:#000000;stroke-width:1.5;" width="205" x="248" y="61"/><text fill="#000000" font-family="sans-serif" font-size="14" font-weight="bold" lengthAdjust="spacing" textLength="189" x="256" y="75.9951">Android Automotive OS</text><!--MD5=[6bc0b0ecbfa32c82d472c167d20999c5]
entity Indigo--><rect fill="#BCDCF5" height="46.2969" rx="5" ry="5" style="stroke:#8DC3EB;stroke-width:1.5;" width="208" x="23" y="88"/><rect fill="#BCDCF5" height="10" style="stroke:#8DC3EB;stroke-width:1.5;" width="15" x="211" y="93"/><rect fill="#BCDCF5" height="2" style="stroke:#8DC3EB;stroke-width:1.5;" width="4" x="209" y="95"/><rect fill="#BCDCF5" height="2" style="stroke:#8DC3EB;stroke-width:1.5;" width="4" x="209" y="99"/><text fill="#000000" font-family="sans-serif" font-size="14" lengthAdjust="spacing" textLength="168" x="38" y="120.9951">IndiGo Application suite</text><!--MD5=[089df04bd3526297c056330c372c6879]
entity VHALService--><rect fill="#65A7A9" height="46.2969" rx="5" ry="5" style="stroke:#008D8D;stroke-width:1.5;" width="295" x="157.5" y="397"/><rect fill="#65A7A9" height="10" style="stroke:#008D8D;stroke-width:1.5;" width="15" x="432.5" y="402"/><rect fill="#65A7A9" height="2" style="stroke:#008D8D;stroke-width:1.5;" width="4" x="430.5" y="404"/><rect fill="#65A7A9" height="2" style="stroke:#008D8D;stroke-width:1.5;" width="4" x="430.5" y="408"/><text fill="#000000" font-family="sans-serif" font-size="14" lengthAdjust="spacing" textLength="255" x="172.5" y="429.9951">Tier1 specific VHAL Implementation</text><!--MD5=[675453dc6b6d7c0a0fa0da5531b84bf5]
entity VHAL--><rect fill="#E94743" height="46.2969" rx="5" ry="5" style="stroke:#87382B;stroke-width:1.5;" width="79" x="366.5" y="88"/><rect fill="#E94743" height="10" style="stroke:#87382B;stroke-width:1.5;" width="15" x="425.5" y="93"/><rect fill="#E94743" height="2" style="stroke:#87382B;stroke-width:1.5;" width="4" x="423.5" y="95"/><rect fill="#E94743" height="2" style="stroke:#87382B;stroke-width:1.5;" width="4" x="423.5" y="99"/><text fill="#000000" font-family="sans-serif" font-size="14" lengthAdjust="spacing" textLength="39" x="381.5" y="120.9951">VHAL</text><!--MD5=[5b97e6a9763a5eae7ad0965dc5d284fd]
entity VehicleData--><path d="M254.0457,528.1575 C258.472,522.7121 262.6069,522.7275 266.7378,528.492 C269.523,521.4776 275.4318,521.9066 279.3232,527.377 C282.3066,520.643 288.6185,519.0788 292.9083,526.0854 C297.1211,519.9562 302.9575,519.1538 306.9484,526.3198 C310.3205,519.979 315.3076,519.599 319.1257,525.8899 C323.6143,519.5261 328.5961,519.784 331.9594,526.9567 C337.6367,520.4814 341.6695,522.5904 345.5078,528.9048 C350.0622,522.7231 353.8913,523.815 358.0435,529.3356 C366.514,531.4116 367.9092,536.1551 363.5336,543.2864 C369.8842,551.6543 365.9097,557.191 356.8045,558.8961 C354.0972,566.1541 348.4022,565.4847 343.9543,560.7632 C341.2011,567.868 336.9442,568.9595 330.8738,564.5225 C328.1976,571.1927 323.0311,573.1723 317.9323,566.9551 C314.624,574.0908 310.5514,574.1736 305.3831,568.8247 C301.0418,573.2989 295.3038,572.9085 293.1802,566.3678 C289.1623,571.3142 284.1163,571.9905 281.2846,565.1688 C274.9794,571.7338 269.7151,569.2981 267.1651,561.4819 C261.4272,567.9616 256.798,566.7743 253.7919,558.9313 C244.4307,556.633 242.7349,549.7507 250.1493,543.494 C243.8818,536.6543 246.5913,531.5111 254.0457,528.1575 " fill="#FEFECE" style="stroke:#000000;stroke-width:1.5;"/><text fill="#000000" font-family="sans-serif" font-size="14" lengthAdjust="spacing" textLength="89" x="260.5" y="547.9951">Vehicle data</text><!--MD5=[a3b63ae50ec5f80fa93da2997275b8ab]
link Indigo to VHAL--><path d="M236.5467,111 C279.9107,111 327.3275,111 360.9462,111 " fill="none" id="Indigo-VHAL" style="stroke:#A80036;stroke-width:1.0;"/><polygon fill="#A80036" points="366.2206,111,357.2206,107,361.2206,111,357.2206,115,366.2206,111" style="stroke:#A80036;stroke-width:1.0;"/><polygon fill="#A80036" points="231.2861,111,240.2861,115,236.2861,111,240.2861,107,231.2861,111" style="stroke:#A80036;stroke-width:1.0;"/><text fill="#000000" font-family="sans-serif" font-size="13" lengthAdjust="spacing" textLength="99" x="249.25" y="104.0669">VehiceProperty</text><!--MD5=[55cf676e3d300b12009cfe2cd5d2ff3e]
link VHAL to VHALService--><path d="M379.1255,138.5084 C366.8498,153.9621 355,174.3556 355,195.5 C355,195.5 355,195.5 355,335.5 C355,356.6903 343.2098,377.2261 331.08,392.7463 " fill="none" id="VHAL-VHALService" style="stroke:#A80036;stroke-width:1.0;"/><polygon fill="#A80036" points="327.6593,396.9872,336.4231,392.4932,330.7984,393.0954,330.1962,387.4707,327.6593,396.9872" style="stroke:#A80036;stroke-width:1.0;"/><polygon fill="#A80036" points="382.5897,134.2841,373.7898,138.7069,379.4192,138.1503,379.9757,143.7797,382.5897,134.2841" style="stroke:#A80036;stroke-width:1.0;"/><text fill="#000000" font-family="sans-serif" font-size="13" lengthAdjust="spacing" textLength="31" x="356" y="270.0669">HIDL</text><!--MD5=[1578dcc056aa05cb84a9c4c5f8d2095e]
link VHALService to VehicleData--><path d="M305,448.2028 C305,468.1635 305,494.8236 305,514.7866 " fill="none" id="VHALService-VehicleData" style="stroke:#A80036;stroke-width:1.0;"/><polygon fill="#A80036" points="305,519.9684,309,510.9684,305,514.9684,301,510.9684,305,519.9684" style="stroke:#A80036;stroke-width:1.0;"/><polygon fill="#A80036" points="305,443.1354,301,452.1354,305,448.1354,309,452.1354,305,443.1354" style="stroke:#A80036;stroke-width:1.0;"/><text fill="#000000" font-family="sans-serif" font-size="13" lengthAdjust="spacing" textLength="140" x="306" y="486.0669">CAN or other protocol</text><!--MD5=[22ecdcb02c48ef35530d5586fbf92089]
@startuml
!include theme.plantuml
skinparam packageStyle rectangle

cloud VehicleData as "Vehicle data"

package "Hardware/Head Unit" {
    package "Android System Image"{
        component "IndiGo Application suite" as Indigo<<Frontend>>
        package "Android Automotive OS"{
            component "VHAL" as VHAL<<AndroidService>>
        }
        component "Tier1 specific VHAL Implementation" as VHALService <<Android>>
    }
}
Indigo <-> VHAL:VehiceProperty
VHAL <- -> VHALService:HIDL
VHALService <- -> VehicleData:CAN or other protocol
@enduml

@startuml
skinparam componentRoundCorner 10
skinparam shadowing false
hide stereotype
hide stereotype


skinparam interface {
  backgroundColor #f8c9df
  borderColor #f29ac2
}

skinparam component {
  BackgroundColor<<Api>> #e5e5e5
  BorderColor<<Api>> #bebebe
  BackgroundColor<<Frontend>> #bcdcf5
  BorderColor<<Frontend>> #8dc3eb
  BackgroundColor<<Service>> #f8c9df
  BorderColor<<Service>> #f29ac2
  BackgroundColor<<Android>> #65a7a9
  BorderColor<<Android>> #008d8d
  BackgroundColor<<AndroidService>> #e94743
  BorderColor<<AndroidService>> #87382B
}

hide empty methods
hide empty attributes

skinparam class {
  BackgroundColor<<Api>> #e5e5e5
  BorderColor<<Api>> #bebebe
  BackgroundColor<<Frontend>> #bcdcf5
  BorderColor<<Frontend>> #8dc3eb
  BackgroundColor<<Service>> #f8c9df
  BorderColor<<Service>> #f29ac2
  BackgroundColor<<Android>> #65a7a9
  BorderColor<<Android>> #008d8d
  BackgroundColor<<AndroidService>> #e94743
  BorderColor<<AndroidService>> #87382B
}

skinparam stereotypeCBackgroundColor<<Api>> #bebebe
skinparam stereotypeCBackgroundColor<<Frontend>> #8dc3eb
skinparam stereotypeCBackgroundColor<<Service>> #f29ac2
skinparam stereotypeCBackgroundColor<<Android>> #008d8d
skinparam stereotypeCBackgroundColor<<AndroidService>> #87382B

skinparam stereotypeIBackgroundColor<<Api>> #bebebe
skinparam stereotypeIBackgroundColor<<Frontend>> #8dc3eb
skinparam stereotypeIBackgroundColor<<Service>> #f29ac2
skinparam stereotypeIBackgroundColor<<Android>> #008d8d
skinparam stereotypeIBackgroundColor<<AndroidService>> #87382B
skinparam packageStyle rectangle

cloud VehicleData as "Vehicle data"

package "Hardware/Head Unit" {
    package "Android System Image"{
        component "IndiGo Application suite" as Indigo<<Frontend>>
        package "Android Automotive OS"{
            component "VHAL" as VHAL<<AndroidService>>
        }
        component "Tier1 specific VHAL Implementation" as VHALService <<Android>>
    }
}
Indigo <-> VHAL:VehiceProperty
VHAL <- -> VHALService:HIDL
VHALService <- -> VehicleData:CAN or other protocol
@enduml

PlantUML version 1.2021.11(Sat Oct 02 15:26:11 CEST 2021)
(GPL source distribution)
Java Runtime: OpenJDK Runtime Environment
JVM: OpenJDK 64-Bit Server VM
Default Encoding: UTF-8
Language: en
Country: US
--></g></svg>