<?xml version="1.0" encoding="UTF-8" standalone="no"?><svg xmlns="http://www.w3.org/2000/svg" xmlns:xlink="http://www.w3.org/1999/xlink" contentScriptType="application/ecmascript" contentStyleType="text/css" height="344px" preserveAspectRatio="none" style="width:1488px;height:344px;background:#FFFFFF;" version="1.1" viewBox="0 0 1488 344" width="1488px" zoomAndPan="magnify"><defs/><g><text fill="#000000" font-family="sans-serif" font-size="18" lengthAdjust="spacing" textLength="110" x="682.5" y="16.708">Map Display</text><!--MD5=[87a69700ba4a1e183985b3cf69829d65]
cluster IndiGO application suite--><rect fill="#FFFFFF" height="81" style="stroke:#000000;stroke-width:1.5;" width="495" x="719" y="27.9531"/><text fill="#000000" font-family="sans-serif" font-size="14" font-weight="bold" lengthAdjust="spacing" textLength="191" x="871" y="42.9482">IndiGO application suite</text><!--MD5=[f1b15d1f15a93a89342c26e44dc14812]
cluster IndiGO platform--><rect fill="#FFFFFF" height="222" style="stroke:#000000;stroke-width:1.5;" width="519" x="7" y="116.9531"/><text fill="#000000" font-family="sans-serif" font-size="14" font-weight="bold" lengthAdjust="spacing" textLength="127" x="203" y="131.9482">IndiGO platform</text><!--MD5=[c1d676ded42000381bd6d4e96119a0f4]
cluster Core Service APIs--><rect fill="#FFFFFF" height="81" style="stroke:#000000;stroke-width:1.5;" width="503" x="15" y="143.9531"/><text fill="#000000" font-family="sans-serif" font-size="14" font-weight="bold" lengthAdjust="spacing" textLength="140" x="196.5" y="158.9482">Core Service APIs</text><!--MD5=[d4cabe04da2f58be5e8ee88408aadc41]
cluster Common APIs--><rect fill="#FFFFFF" height="81" style="stroke:#000000;stroke-width:1.5;" width="256" x="246" y="249.9531"/><text fill="#000000" font-family="sans-serif" font-size="14" font-weight="bold" lengthAdjust="spacing" textLength="109" x="319.5" y="264.9482">Common APIs</text><!--MD5=[5fe9d65315b71e2f10cfee898398be24]
cluster NavKit2--><rect fill="#FFFFFF" height="81" style="stroke:#000000;stroke-width:1.5;" width="945" x="537" y="143.9531"/><text fill="#000000" font-family="sans-serif" font-size="14" font-weight="bold" lengthAdjust="spacing" textLength="63" x="978" y="158.9482">NavKit2</text><!--MD5=[13f5dc52f193b7ecf137742f054e6fba]
entity StockMapDisplayFrontend--><rect fill="#BCDCF5" height="46.2969" rx="5" ry="5" style="stroke:#8DC3EB;stroke-width:1.5;" width="237" x="727.5" y="54.9531"/><rect fill="#BCDCF5" height="10" style="stroke:#8DC3EB;stroke-width:1.5;" width="15" x="944.5" y="59.9531"/><rect fill="#BCDCF5" height="2" style="stroke:#8DC3EB;stroke-width:1.5;" width="4" x="942.5" y="61.9531"/><rect fill="#BCDCF5" height="2" style="stroke:#8DC3EB;stroke-width:1.5;" width="4" x="942.5" y="65.9531"/><text fill="#000000" font-family="sans-serif" font-size="14" lengthAdjust="spacing" textLength="197" x="742.5" y="87.9482">Stock Map Display Frontend</text><!--MD5=[1e025580d17e03182d67189abd0c996d]
entity TripRenderManager--><rect fill="#BCDCF5" height="46.2969" rx="5" ry="5" style="stroke:#8DC3EB;stroke-width:1.5;" width="206" x="1000" y="54.9531"/><rect fill="#BCDCF5" height="10" style="stroke:#8DC3EB;stroke-width:1.5;" width="15" x="1186" y="59.9531"/><rect fill="#BCDCF5" height="2" style="stroke:#8DC3EB;stroke-width:1.5;" width="4" x="1184" y="61.9531"/><rect fill="#BCDCF5" height="2" style="stroke:#8DC3EB;stroke-width:1.5;" width="4" x="1184" y="65.9531"/><text fill="#000000" font-family="sans-serif" font-size="14" lengthAdjust="spacing" textLength="166" x="1015" y="87.9482">Trip Renderer Manager</text><!--MD5=[2451babc5421f4cd30cdb6c79d702879]
entity MapDisplayService--><rect fill="#F8C9DF" height="46.2969" rx="5" ry="5" style="stroke:#F29AC2;stroke-width:1.5;" width="183" x="326.5" y="170.9531"/><rect fill="#F8C9DF" height="10" style="stroke:#F29AC2;stroke-width:1.5;" width="15" x="489.5" y="175.9531"/><rect fill="#F8C9DF" height="2" style="stroke:#F29AC2;stroke-width:1.5;" width="4" x="487.5" y="177.9531"/><rect fill="#F8C9DF" height="2" style="stroke:#F29AC2;stroke-width:1.5;" width="4" x="487.5" y="181.9531"/><text fill="#000000" font-family="sans-serif" font-size="14" lengthAdjust="spacing" textLength="143" x="341.5" y="203.9482">Map Display Service</text><!--MD5=[f950c3ccf38a395cee66315cde05e156]
entity MapDisplayConnectionService--><rect fill="#F8C9DF" height="46.2969" rx="5" ry="5" style="stroke:#F29AC2;stroke-width:1.5;" width="268" x="23" y="170.9531"/><rect fill="#F8C9DF" height="10" style="stroke:#F29AC2;stroke-width:1.5;" width="15" x="271" y="175.9531"/><rect fill="#F8C9DF" height="2" style="stroke:#F29AC2;stroke-width:1.5;" width="4" x="269" y="177.9531"/><rect fill="#F8C9DF" height="2" style="stroke:#F29AC2;stroke-width:1.5;" width="4" x="269" y="181.9531"/><text fill="#000000" font-family="sans-serif" font-size="14" lengthAdjust="spacing" textLength="228" x="38" y="203.9482">Map Display Connection Service</text><!--MD5=[f5828fa494324866718cd10a7674f338]
entity Coordinate--><rect fill="#E5E5E5" height="46.2969" rx="5" ry="5" style="stroke:#BEBEBE;stroke-width:1.5;" width="119" x="374.5" y="276.9531"/><rect fill="#E5E5E5" height="10" style="stroke:#BEBEBE;stroke-width:1.5;" width="15" x="473.5" y="281.9531"/><rect fill="#E5E5E5" height="2" style="stroke:#BEBEBE;stroke-width:1.5;" width="4" x="471.5" y="283.9531"/><rect fill="#E5E5E5" height="2" style="stroke:#BEBEBE;stroke-width:1.5;" width="4" x="471.5" y="287.9531"/><text fill="#000000" font-family="sans-serif" font-size="14" lengthAdjust="spacing" textLength="79" x="389.5" y="309.9482">Coordinate</text><!--MD5=[80dddbec5035a3468d8dea585d1ecb11]
entity TripId--><rect fill="#E5E5E5" height="46.2969" rx="5" ry="5" style="stroke:#BEBEBE;stroke-width:1.5;" width="85" x="254.5" y="276.9531"/><rect fill="#E5E5E5" height="10" style="stroke:#BEBEBE;stroke-width:1.5;" width="15" x="319.5" y="281.9531"/><rect fill="#E5E5E5" height="2" style="stroke:#BEBEBE;stroke-width:1.5;" width="4" x="317.5" y="283.9531"/><rect fill="#E5E5E5" height="2" style="stroke:#BEBEBE;stroke-width:1.5;" width="4" x="317.5" y="287.9531"/><text fill="#000000" font-family="sans-serif" font-size="14" lengthAdjust="spacing" textLength="45" x="269.5" y="309.9482">Trip Id</text><!--MD5=[45391651d3918b89eec44bc163763dcf]
entity TripRenderer--><rect fill="#E5E5E5" height="46.2969" rx="5" ry="5" style="stroke:#BEBEBE;stroke-width:1.5;" width="139" x="1334.5" y="170.9531"/><rect fill="#E5E5E5" height="10" style="stroke:#BEBEBE;stroke-width:1.5;" width="15" x="1453.5" y="175.9531"/><rect fill="#E5E5E5" height="2" style="stroke:#BEBEBE;stroke-width:1.5;" width="4" x="1451.5" y="177.9531"/><rect fill="#E5E5E5" height="2" style="stroke:#BEBEBE;stroke-width:1.5;" width="4" x="1451.5" y="181.9531"/><text fill="#000000" font-family="sans-serif" font-size="14" lengthAdjust="spacing" textLength="99" x="1349.5" y="203.9482">Trip Renderer</text><!--MD5=[27bd3f4936aed605389f2371dafd5302]
entity Trip--><rect fill="#E5E5E5" height="46.2969" rx="5" ry="5" style="stroke:#BEBEBE;stroke-width:1.5;" width="68" x="1231" y="170.9531"/><rect fill="#E5E5E5" height="10" style="stroke:#BEBEBE;stroke-width:1.5;" width="15" x="1279" y="175.9531"/><rect fill="#E5E5E5" height="2" style="stroke:#BEBEBE;stroke-width:1.5;" width="4" x="1277" y="177.9531"/><rect fill="#E5E5E5" height="2" style="stroke:#BEBEBE;stroke-width:1.5;" width="4" x="1277" y="181.9531"/><text fill="#000000" font-family="sans-serif" font-size="14" lengthAdjust="spacing" textLength="28" x="1246" y="203.9482">Trip</text><!--MD5=[542686fedb5a5dd6c57e948464750b8a]
entity TrafficRenderer--><rect fill="#E5E5E5" height="46.2969" rx="5" ry="5" style="stroke:#BEBEBE;stroke-width:1.5;" width="157" x="1038.5" y="170.9531"/><rect fill="#E5E5E5" height="10" style="stroke:#BEBEBE;stroke-width:1.5;" width="15" x="1175.5" y="175.9531"/><rect fill="#E5E5E5" height="2" style="stroke:#BEBEBE;stroke-width:1.5;" width="4" x="1173.5" y="177.9531"/><rect fill="#E5E5E5" height="2" style="stroke:#BEBEBE;stroke-width:1.5;" width="4" x="1173.5" y="181.9531"/><text fill="#000000" font-family="sans-serif" font-size="14" lengthAdjust="spacing" textLength="117" x="1053.5" y="203.9482">Traffic Renderer</text><!--MD5=[2596564e44ab3aa47d7c167100f8b894]
entity Map--><rect fill="#E5E5E5" height="46.2969" rx="5" ry="5" style="stroke:#BEBEBE;stroke-width:1.5;" width="70" x="933" y="170.9531"/><rect fill="#E5E5E5" height="10" style="stroke:#BEBEBE;stroke-width:1.5;" width="15" x="983" y="175.9531"/><rect fill="#E5E5E5" height="2" style="stroke:#BEBEBE;stroke-width:1.5;" width="4" x="981" y="177.9531"/><rect fill="#E5E5E5" height="2" style="stroke:#BEBEBE;stroke-width:1.5;" width="4" x="981" y="181.9531"/><text fill="#000000" font-family="sans-serif" font-size="14" lengthAdjust="spacing" textLength="30" x="948" y="203.9482">Map</text><!--MD5=[1469ecfdec10051a3b59804757f85fb4]
entity MapView--><rect fill="#E5E5E5" height="46.2969" rx="5" ry="5" style="stroke:#BEBEBE;stroke-width:1.5;" width="104" x="794" y="170.9531"/><rect fill="#E5E5E5" height="10" style="stroke:#BEBEBE;stroke-width:1.5;" width="15" x="878" y="175.9531"/><rect fill="#E5E5E5" height="2" style="stroke:#BEBEBE;stroke-width:1.5;" width="4" x="876" y="177.9531"/><rect fill="#E5E5E5" height="2" style="stroke:#BEBEBE;stroke-width:1.5;" width="4" x="876" y="181.9531"/><text fill="#000000" font-family="sans-serif" font-size="14" lengthAdjust="spacing" textLength="64" x="809" y="203.9482">MapView</text><!--MD5=[7828191eae922abefa7819c69c0787f1]
entity Route--><rect fill="#E5E5E5" height="46.2969" rx="5" ry="5" style="stroke:#BEBEBE;stroke-width:1.5;" width="82" x="677" y="170.9531"/><rect fill="#E5E5E5" height="10" style="stroke:#BEBEBE;stroke-width:1.5;" width="15" x="739" y="175.9531"/><rect fill="#E5E5E5" height="2" style="stroke:#BEBEBE;stroke-width:1.5;" width="4" x="737" y="177.9531"/><rect fill="#E5E5E5" height="2" style="stroke:#BEBEBE;stroke-width:1.5;" width="4" x="737" y="181.9531"/><text fill="#000000" font-family="sans-serif" font-size="14" lengthAdjust="spacing" textLength="42" x="692" y="203.9482">Route</text><!--MD5=[c8f729b8e352a0860913e8756c4779b6]
entity Camera--><rect fill="#E5E5E5" height="46.2969" rx="5" ry="5" style="stroke:#BEBEBE;stroke-width:1.5;" width="97" x="544.5" y="170.9531"/><rect fill="#E5E5E5" height="10" style="stroke:#BEBEBE;stroke-width:1.5;" width="15" x="621.5" y="175.9531"/><rect fill="#E5E5E5" height="2" style="stroke:#BEBEBE;stroke-width:1.5;" width="4" x="619.5" y="177.9531"/><rect fill="#E5E5E5" height="2" style="stroke:#BEBEBE;stroke-width:1.5;" width="4" x="619.5" y="181.9531"/><text fill="#000000" font-family="sans-serif" font-size="14" lengthAdjust="spacing" textLength="57" x="559.5" y="203.9482">Camera</text><!--MD5=[88f540cbbc62cff54686aa2c677adf71]
link StockMapDisplayFrontend to MapDisplayConnectionService--><path d="M727.2758,81.1265 C593.5195,85.6615 384.8846,95.8944 309,116.9531 C268.655,128.1492 226.4585,150.5026 196.7906,168.2534 " fill="none" id="StockMapDisplayFrontend-to-MapDisplayConnectionService" style="stroke:#A80036;stroke-width:1.0;"/><polygon fill="#A80036" points="192.506,170.8371,202.2787,169.6149,196.7877,168.2551,198.1475,162.7641,192.506,170.8371" style="stroke:#A80036;stroke-width:1.0;"/><!--MD5=[ba8624e89c60cc62f6ac0f1c71478589]
link StockMapDisplayFrontend to MapDisplayService--><path d="M727.1942,86.6237 C652.7794,93.1973 564.4883,103.4147 529,116.9531 C498.8009,128.4737 468.9483,149.9051 447.8207,167.238 " fill="none" id="StockMapDisplayFrontend-to-MapDisplayService" style="stroke:#A80036;stroke-width:1.0;"/><polygon fill="#A80036" points="443.714,170.6458,453.1943,167.9768,447.5618,167.4529,448.0856,161.8204,443.714,170.6458" style="stroke:#A80036;stroke-width:1.0;"/><!--MD5=[fe7c696930dba2210078659cca7fd919]
link StockMapDisplayFrontend to Map--><path d="M894.7235,101.1505 C902.2631,105.8261 909.6455,111.1209 916,116.9531 C931.3167,131.0109 944.391,150.4304 953.5986,166.2498 " fill="none" id="StockMapDisplayFrontend-to-Map" style="stroke:#A80036;stroke-width:1.0;"/><polygon fill="#A80036" points="956.0917,170.6088,955.0954,160.8105,953.6092,166.2686,948.1511,164.7824,956.0917,170.6088" style="stroke:#A80036;stroke-width:1.0;"/><!--MD5=[b5b03cea4b08b97595ef108d2aaa92a1]
link StockMapDisplayFrontend to MapView--><path d="M846,101.1486 C846,119.7207 846,145.848 846,165.6505 " fill="none" id="StockMapDisplayFrontend-to-MapView" style="stroke:#A80036;stroke-width:1.0;"/><polygon fill="#A80036" points="846,170.7978,850,161.7978,846,165.7978,842,161.7978,846,170.7978" style="stroke:#A80036;stroke-width:1.0;"/><!--MD5=[11a4445ac65d576ef421350fb2657bc0]
link StockMapDisplayFrontend to Route--><path d="M798.9957,101.1081 C791.2809,105.8478 783.6456,111.1746 777,116.9531 C760.6206,131.1953 745.7795,150.6135 735.0792,166.3862 " fill="none" id="StockMapDisplayFrontend-to-Route" style="stroke:#A80036;stroke-width:1.0;"/><polygon fill="#A80036" points="732.1731,170.7309,740.5017,165.474,734.953,166.5749,733.852,161.0262,732.1731,170.7309" style="stroke:#A80036;stroke-width:1.0;"/><!--MD5=[82ad9618be7722740d88e6d8bd7b3621]
link StockMapDisplayFrontend to Camera--><path d="M727.4892,96.7024 C698.7062,102.6222 672.5916,109.5635 660,116.9531 C639.4303,129.0248 621.9698,149.6873 610.0349,166.5704 " fill="none" id="StockMapDisplayFrontend-to-Camera" style="stroke:#A80036;stroke-width:1.0;"/><polygon fill="#A80036" points="607.1212,170.7737,615.536,165.6559,609.9697,166.6645,608.9612,161.0983,607.1212,170.7737" style="stroke:#A80036;stroke-width:1.0;"/><!--MD5=[7b01e39662b6afc1d4f39a670bcf0577]
link StockMapDisplayFrontend to TrafficRenderer--><path d="M946.9656,100.98 C959.1018,103.6944 971.326,106.4036 983,108.9531 C999.8617,112.6355 1005.3977,109.5744 1021,116.9531 C1047.2163,129.3514 1072.6202,150.2489 1090.7032,167.1473 " fill="none" id="StockMapDisplayFrontend-to-TrafficRenderer" style="stroke:#A80036;stroke-width:1.0;"/><polygon fill="#A80036" points="1094.6776,170.9074,1090.8888,161.8165,1091.0455,167.4712,1085.3908,167.6279,1094.6776,170.9074" style="stroke:#A80036;stroke-width:1.0;"/><!--MD5=[e20935282ead6183faa7745102f4a828]
link TripRenderManager to TripRenderer--><path d="M1206.185,91.4197 C1250.7226,98.3202 1297.1299,107.2963 1317,116.9531 C1341.624,128.9203 1364.594,149.8438 1380.7415,166.8619 " fill="none" id="TripRenderManager-to-TripRenderer" style="stroke:#A80036;stroke-width:1.0;"/><polygon fill="#A80036" points="1384.2859,170.6505,1381.0584,161.3455,1380.87,166.9992,1375.2163,166.8109,1384.2859,170.6505" style="stroke:#A80036;stroke-width:1.0;"/><!--MD5=[abe038591759e08f0ad37af58f6f0f16]
link TripRenderManager to Trip--><path d="M1186.4887,101.024 C1195.9111,105.4846 1204.989,110.7515 1213,116.9531 C1229.7893,129.9503 1243.0606,149.938 1251.9931,166.2918 " fill="none" id="TripRenderManager-to-Trip" style="stroke:#A80036;stroke-width:1.0;"/><polygon fill="#A80036" points="1254.3968,170.7992,1253.6911,160.9757,1252.044,166.3874,1246.6322,164.7402,1254.3968,170.7992" style="stroke:#A80036;stroke-width:1.0;"/><!--MD5=[aa6de8d5e92d1253942c5b9d9100249a]
link MapDisplayService to Coordinate--><path d="M421.4718,216.9535 C423.8872,232.9561 427.1239,254.3992 429.7023,271.4811 " fill="none" id="MapDisplayService-to-Coordinate" style="stroke:#A80036;stroke-width:1.0;"/><polygon fill="#A80036" points="430.4798,276.6315,433.0917,267.1353,429.7335,271.6875,425.1813,268.3294,430.4798,276.6315" style="stroke:#A80036;stroke-width:1.0;"/><!--MD5=[360b5cba82e7e4d1957d76dc70c24a58]
link MapDisplayService to TripId--><path d="M391.7448,216.9535 C372.8479,233.5079 347.3048,255.8845 327.5021,273.2322 " fill="none" id="MapDisplayService-to-TripId" style="stroke:#A80036;stroke-width:1.0;"/><polygon fill="#A80036" points="323.6218,276.6315,333.0273,273.7097,327.3827,273.3367,327.7556,267.6922,323.6218,276.6315" style="stroke:#A80036;stroke-width:1.0;"/><!--MD5=[c45b3018bdcc6c9d5c193c474eb34ec3]
@startuml
!include theme.plantuml
skinparam packageStyle rectangle

title Map Display

package "IndiGO application suite"<<Rectangle>> {
    component StockMapDisplayFrontend as [Stock Map Display Frontend]<<Frontend>>
    component TripRenderManager as [Trip Renderer Manager]<<Frontend>>
}

package "IndiGO platform"<<Rectangle>> {
    package "Core Service APIs"{
        component MapDisplayService as [Map Display Service]<<Service>>
        component MapDisplayConnectionService as [Map Display Connection Service]<<Service>>

    }

    package "Common APIs" {
        component Coordinate as [Coordinate]<<Api>>
        component TripId as [Trip Id]<<Api>>
    }
}

package "NavKit2"<<Rectangle>> {
    component TripRenderer as [Trip Renderer]<<Api>>
    component Trip as [Trip]<<Api>>
    component TrafficRenderer as [Traffic Renderer]<<Api>>
    component Map<<API>>
    component MapView<<API>>
    component Route<<API>>
    component Camera<<API>>
}

StockMapDisplayFrontend -d-> MapDisplayConnectionService
StockMapDisplayFrontend -d-> MapDisplayService

StockMapDisplayFrontend -d-> Map
StockMapDisplayFrontend -d-> MapView
StockMapDisplayFrontend -d-> Route
StockMapDisplayFrontend -d-> Camera

StockMapDisplayFrontend -d-> TrafficRenderer

TripRenderManager -d-> TripRenderer
TripRenderManager -d-> Trip

MapDisplayService -d-> Coordinate
MapDisplayService -d-> TripId


@enduml

@startuml
skinparam componentRoundCorner 10
skinparam shadowing false
hide stereotype


skinparam interface {
  backgroundColor #f8c9df
  borderColor #f29ac2
}

skinparam component {
  BackgroundColor<<Api>> #e5e5e5
  BorderColor<<Api>> #bebebe
  BackgroundColor<<Frontend>> #bcdcf5
  BorderColor<<Frontend>> #8dc3eb
  BackgroundColor<<Service>> #f8c9df
  BorderColor<<Service>> #f29ac2
  BackgroundColor<<Android>> #65a7a9
  BorderColor<<Android>> #008d8d
  BackgroundColor<<AndroidService>> #e94743
  BorderColor<<AndroidService>> #87382B
}

hide empty methods
hide empty attributes

skinparam class {
  BackgroundColor<<Api>> #e5e5e5
  BorderColor<<Api>> #bebebe
  BackgroundColor<<Frontend>> #bcdcf5
  BorderColor<<Frontend>> #8dc3eb
  BackgroundColor<<Service>> #f8c9df
  BorderColor<<Service>> #f29ac2
  BackgroundColor<<Android>> #65a7a9
  BorderColor<<Android>> #008d8d
  BackgroundColor<<AndroidService>> #e94743
  BorderColor<<AndroidService>> #87382B
}

skinparam stereotypeCBackgroundColor<<Api>> #bebebe
skinparam stereotypeCBackgroundColor<<Frontend>> #8dc3eb
skinparam stereotypeCBackgroundColor<<Service>> #f29ac2
skinparam stereotypeCBackgroundColor<<Android>> #008d8d
skinparam stereotypeCBackgroundColor<<AndroidService>> #87382B

skinparam stereotypeIBackgroundColor<<Api>> #bebebe
skinparam stereotypeIBackgroundColor<<Frontend>> #8dc3eb
skinparam stereotypeIBackgroundColor<<Service>> #f29ac2
skinparam stereotypeIBackgroundColor<<Android>> #008d8d
skinparam stereotypeIBackgroundColor<<AndroidService>> #87382B
skinparam packageStyle rectangle

title Map Display

package "IndiGO application suite"<<Rectangle>> {
    component StockMapDisplayFrontend as [Stock Map Display Frontend]<<Frontend>>
    component TripRenderManager as [Trip Renderer Manager]<<Frontend>>
}

package "IndiGO platform"<<Rectangle>> {
    package "Core Service APIs"{
        component MapDisplayService as [Map Display Service]<<Service>>
        component MapDisplayConnectionService as [Map Display Connection Service]<<Service>>

    }

    package "Common APIs" {
        component Coordinate as [Coordinate]<<Api>>
        component TripId as [Trip Id]<<Api>>
    }
}

package "NavKit2"<<Rectangle>> {
    component TripRenderer as [Trip Renderer]<<Api>>
    component Trip as [Trip]<<Api>>
    component TrafficRenderer as [Traffic Renderer]<<Api>>
    component Map<<API>>
    component MapView<<API>>
    component Route<<API>>
    component Camera<<API>>
}

StockMapDisplayFrontend -d-> MapDisplayConnectionService
StockMapDisplayFrontend -d-> MapDisplayService

StockMapDisplayFrontend -d-> Map
StockMapDisplayFrontend -d-> MapView
StockMapDisplayFrontend -d-> Route
StockMapDisplayFrontend -d-> Camera

StockMapDisplayFrontend -d-> TrafficRenderer

TripRenderManager -d-> TripRenderer
TripRenderManager -d-> Trip

MapDisplayService -d-> Coordinate
MapDisplayService -d-> TripId


@enduml

PlantUML version 1.2021.11(Sat Oct 02 15:26:11 CEST 2021)
(GPL source distribution)
Java Runtime: OpenJDK Runtime Environment
JVM: OpenJDK 64-Bit Server VM
Default Encoding: UTF-8
Language: en
Country: US
--></g></svg>