<?xml version="1.0" encoding="UTF-8" standalone="no"?><svg xmlns="http://www.w3.org/2000/svg" xmlns:xlink="http://www.w3.org/1999/xlink" contentScriptType="application/ecmascript" contentStyleType="text/css" height="317px" preserveAspectRatio="none" style="width:590px;height:317px;background:#FFFFFF;" version="1.1" viewBox="0 0 590 317" width="590px" zoomAndPan="magnify"><defs><filter height="300%" id="ffd03wpfh8601" width="300%" x="-1" y="-1"><feGaussianBlur result="blurOut" stdDeviation="2.0"/><feColorMatrix in="blurOut" result="blurOut2" type="matrix" values="0 0 0 0 0 0 0 0 0 0 0 0 0 0 0 0 0 0 .4 0"/><feOffset dx="4.0" dy="4.0" in="blurOut2" result="blurOut3"/><feBlend in="SourceGraphic" in2="blurOut3" mode="normal"/></filter></defs><g><line style="stroke:#A80036;stroke-width:1.0;stroke-dasharray:5.0,5.0;" x1="57" x2="57" y1="40.2969" y2="274.0938"/><line style="stroke:#A80036;stroke-width:1.0;stroke-dasharray:5.0,5.0;" x1="247.5" x2="247.5" y1="40.2969" y2="274.0938"/><line style="stroke:#A80036;stroke-width:1.0;stroke-dasharray:5.0,5.0;" x1="506.5" x2="506.5" y1="40.2969" y2="274.0938"/><rect fill="#BCDCF5" filter="url(#ffd03wpfh8601)" height="30.2969" style="stroke:#A80036;stroke-width:1.5;" width="100" x="5" y="5"/><text fill="#000000" font-family="sans-serif" font-size="14" lengthAdjust="spacing" textLength="86" x="12" y="24.9951">Map Display</text><rect fill="#BCDCF5" filter="url(#ffd03wpfh8601)" height="30.2969" style="stroke:#A80036;stroke-width:1.5;" width="100" x="5" y="273.0938"/><text fill="#000000" font-family="sans-serif" font-size="14" lengthAdjust="spacing" textLength="86" x="12" y="293.0889">Map Display</text><rect fill="#E5E5E5" filter="url(#ffd03wpfh8601)" height="30.2969" style="stroke:#A80036;stroke-width:1.5;" width="49" x="221.5" y="5"/><text fill="#000000" font-family="sans-serif" font-size="14" lengthAdjust="spacing" textLength="35" x="228.5" y="24.9951">Trips</text><rect fill="#E5E5E5" filter="url(#ffd03wpfh8601)" height="30.2969" style="stroke:#A80036;stroke-width:1.5;" width="49" x="221.5" y="273.0938"/><text fill="#000000" font-family="sans-serif" font-size="14" lengthAdjust="spacing" textLength="35" x="228.5" y="293.0889">Trips</text><rect fill="#E5E5E5" filter="url(#ffd03wpfh8601)" height="30.2969" style="stroke:#A80036;stroke-width:1.5;" width="143" x="433.5" y="5"/><text fill="#000000" font-family="sans-serif" font-size="14" lengthAdjust="spacing" textLength="129" x="440.5" y="24.9951">Driving assistance</text><rect fill="#E5E5E5" filter="url(#ffd03wpfh8601)" height="30.2969" style="stroke:#A80036;stroke-width:1.5;" width="143" x="433.5" y="273.0938"/><text fill="#000000" font-family="sans-serif" font-size="14" lengthAdjust="spacing" textLength="129" x="440.5" y="293.0889">Driving assistance</text><polygon fill="#A80036" points="236,67.4297,246,71.4297,236,75.4297,240,71.4297" style="stroke:#A80036;stroke-width:1.0;"/><line style="stroke:#A80036;stroke-width:1.0;" x1="57" x2="242" y1="71.4297" y2="71.4297"/><text fill="#000000" font-family="sans-serif" font-size="13" lengthAdjust="spacing" textLength="136" x="64" y="66.3638">planTrip(destination)</text><polygon fill="#A80036" points="495,96.5625,505,100.5625,495,104.5625,499,100.5625" style="stroke:#A80036;stroke-width:1.0;"/><line style="stroke:#A80036;stroke-width:1.0;" x1="248" x2="501" y1="100.5625" y2="100.5625"/><text fill="#000000" font-family="sans-serif" font-size="13" lengthAdjust="spacing" textLength="124" x="255" y="95.4966">getCurrentLocation</text><line style="stroke:#A80036;stroke-width:1.0;" x1="248" x2="290" y1="129.6953" y2="129.6953"/><line style="stroke:#A80036;stroke-width:1.0;" x1="290" x2="290" y1="129.6953" y2="142.6953"/><line style="stroke:#A80036;stroke-width:1.0;" x1="249" x2="290" y1="142.6953" y2="142.6953"/><polygon fill="#A80036" points="259,138.6953,249,142.6953,259,146.6953,255,142.6953" style="stroke:#A80036;stroke-width:1.0;"/><text fill="#000000" font-family="sans-serif" font-size="13" lengthAdjust="spacing" textLength="245" x="255" y="124.6294">planTrip(currentLocation, destination)</text><line style="stroke:#A80036;stroke-width:1.0;" x1="248" x2="290" y1="171.8281" y2="171.8281"/><line style="stroke:#A80036;stroke-width:1.0;" x1="290" x2="290" y1="171.8281" y2="184.8281"/><line style="stroke:#A80036;stroke-width:1.0;" x1="249" x2="290" y1="184.8281" y2="184.8281"/><polygon fill="#A80036" points="259,180.8281,249,184.8281,259,188.8281,255,184.8281" style="stroke:#A80036;stroke-width:1.0;"/><text fill="#000000" font-family="sans-serif" font-size="13" lengthAdjust="spacing" textLength="165" x="255" y="166.7622">activateTrip(plannedTrip)</text><polygon fill="#A80036" points="68,209.9609,58,213.9609,68,217.9609,64,213.9609" style="stroke:#A80036;stroke-width:1.0;"/><line style="stroke:#A80036;stroke-width:1.0;" x1="62" x2="247" y1="213.9609" y2="213.9609"/><text fill="#000000" font-family="sans-serif" font-size="13" lengthAdjust="spacing" textLength="167" x="74" y="208.895">activateTripChanged(trip)</text><line style="stroke:#A80036;stroke-width:1.0;" x1="248" x2="290" y1="243.0938" y2="243.0938"/><line style="stroke:#A80036;stroke-width:1.0;" x1="290" x2="290" y1="243.0938" y2="256.0938"/><line style="stroke:#A80036;stroke-width:1.0;" x1="249" x2="290" y1="256.0938" y2="256.0938"/><polygon fill="#A80036" points="259,252.0938,249,256.0938,259,260.0938,255,256.0938" style="stroke:#A80036;stroke-width:1.0;"/><text fill="#000000" font-family="sans-serif" font-size="13" lengthAdjust="spacing" textLength="142" x="255" y="238.0278">renderTrip(activeTrip)</text><!--MD5=[7d68b1137d6a948bd3d4569ef374d52d]
@startuml

participant "Map Display" as MapDisplay #bcdcf5
participant Trips #e5e5e5
participant "Driving assistance" as DrivingAssistance #e5e5e5

MapDisplay -> Trips: planTrip(destination)
Trips -> DrivingAssistance: getCurrentLocation
Trips -> Trips: planTrip(currentLocation, destination)
Trips -> Trips: activateTrip(plannedTrip)
Trips -> MapDisplay: activateTripChanged(trip)
Trips -> Trips: renderTrip(activeTrip)

@enduml

PlantUML version 1.2021.11(Sat Oct 02 15:26:11 CEST 2021)
(GPL source distribution)
Java Runtime: OpenJDK Runtime Environment
JVM: OpenJDK 64-Bit Server VM
Default Encoding: UTF-8
Language: en
Country: US
--></g></svg>